<svg width="44" height="44" viewBox="0 0 44 44" fill="none" xmlns="http://www.w3.org/2000/svg">
<path d="M9.72559 34.1094C8.58008 34.1094 7.71126 33.8133 7.11914 33.2212C6.52702 32.6346 6.23096 31.7741 6.23096 30.6396V19.583C6.23096 18.4486 6.52702 17.5881 7.11914 17.0015C7.71126 16.4093 8.58008 16.1133 9.72559 16.1133H25.4224C26.5679 16.1133 27.4367 16.4093 28.0288 17.0015C28.6265 17.5881 28.9253 18.4486 28.9253 19.583V30.6396C28.9253 31.7686 28.6265 32.6291 28.0288 33.2212C27.4367 33.8133 26.5679 34.1094 25.4224 34.1094H9.72559ZM9.8916 32.0176H25.2563C25.7599 32.0176 26.1473 31.8848 26.4185 31.6191C26.6896 31.359 26.8252 30.9634 26.8252 30.4321V19.7905C26.8252 19.2593 26.6896 18.8636 26.4185 18.6035C26.1473 18.3379 25.7599 18.2051 25.2563 18.2051H9.8916C9.38249 18.2051 8.99235 18.3379 8.72119 18.6035C8.45557 18.8636 8.32275 19.2593 8.32275 19.7905V30.4321C8.32275 30.9634 8.45557 31.359 8.72119 31.6191C8.99235 31.8848 9.38249 32.0176 9.8916 32.0176ZM8.63818 14.3203C8.70459 13.8499 8.86784 13.4819 9.12793 13.2163C9.39355 12.9507 9.79199 12.8179 10.3232 12.8179H24.8413C25.3726 12.8179 25.7682 12.9507 26.0283 13.2163C26.2939 13.4819 26.4572 13.8499 26.5181 14.3203H8.63818ZM10.7798 11.2573C10.813 10.8146 10.9624 10.4771 11.228 10.2446C11.4937 10.0067 11.8644 9.8877 12.3403 9.8877H22.8242C23.3001 9.8877 23.6681 10.0067 23.9282 10.2446C24.1938 10.4771 24.3433 10.8146 24.3765 11.2573H10.7798ZM16.4409 30.0835C16.2528 30.0835 16.0812 30.042 15.9263 29.959C15.7769 29.876 15.6357 29.7487 15.5029 29.5771L12.9131 26.4561C12.7305 26.2292 12.6392 25.9995 12.6392 25.7671C12.6392 25.5125 12.7277 25.2995 12.9048 25.1279C13.0819 24.9508 13.2949 24.8623 13.5439 24.8623C13.6934 24.8623 13.8317 24.8927 13.959 24.9536C14.0863 25.0145 14.208 25.1196 14.3242 25.269L16.4077 27.8506L20.7075 20.9858C20.9233 20.6427 21.1917 20.4712 21.5127 20.4712C21.7562 20.4712 21.972 20.5514 22.1602 20.7119C22.3538 20.8724 22.4507 21.0799 22.4507 21.3345C22.4507 21.4451 22.4258 21.5586 22.376 21.6748C22.3317 21.791 22.2764 21.9017 22.21 22.0068L17.3457 29.5688C17.1188 29.9119 16.8172 30.0835 16.4409 30.0835Z" fill="#06B2B6"/>
</svg>
