<svg width="610" height="611" viewBox="0 0 610 611" fill="none" xmlns="http://www.w3.org/2000/svg">
<g clip-path="url(#clip0_191_103)">
<mask id="mask0_191_103" style="mask-type:luminance" maskUnits="userSpaceOnUse" x="0" y="0" width="610" height="611">
<path d="M609.539 0H0V610.627H609.539V0Z" fill="white"/>
</mask>
<g mask="url(#mask0_191_103)">
<path d="M476.857 0.000976562H132.682C59.4039 0.000976562 0 59.5125 0 132.924V477.704C0 551.115 59.4039 610.627 132.682 610.627H476.857C550.136 610.627 609.539 551.115 609.539 477.704V132.924C609.539 59.5125 550.136 0.000976562 476.857 0.000976562Z" fill="#FEFEFE"/>
<path d="M70.6777 210.238H75.6769L83.1716 199.327C83.1716 199.327 83.1882 199.311 83.1965 199.303C83.8266 196.127 83.3043 194.32 82.7322 193.367C82.4835 193.06 82.2016 192.745 81.87 192.421C82.3509 190.506 84.7883 187.447 88.1294 183.965C95.906 173.991 109.759 157.883 122.908 151.134H129.143C129.143 151.134 186.273 85.0917 280.628 70.3593C280.628 70.3593 285.752 65.4181 296.48 63.9258V63.8181C298.08 63.644 299.597 63.5528 301.048 63.5196V63.5113C301.28 63.5113 301.529 63.5113 301.761 63.5196C302.001 63.5196 302.242 63.5113 302.474 63.5113C304.348 63.503 306.337 63.5859 308.468 63.8181V63.9258C319.196 65.4264 324.32 70.3593 324.32 70.3593C418.675 85.0917 475.805 151.134 475.805 151.134H480.613H482.039C501.754 161.265 523.078 192.413 523.078 192.413C518.584 196.857 521.776 199.319 521.776 199.319L529.271 210.23H534.27V213.123H70.6943V210.23L70.6777 210.238ZM70.6777 222.682H534.253V225.567H70.6777V222.682ZM70.6777 216.464H534.253V219.358H70.6777V216.464ZM82.9727 210.246H93.0125L99.703 197.951C99.703 197.951 102.165 191.352 97.962 187.82C97.962 187.82 114.344 170.941 114.784 160.503C114.784 160.503 114.411 160.793 113.747 161.332C114.402 160.801 114.784 160.503 114.784 160.503C103.741 169.863 99.2553 179.745 99.2553 179.745L82.9727 210.246ZM100.317 210.246H126.208L140.733 182.912L139.572 179.538C139.572 179.538 155.814 159.898 142.764 152.22C124.666 159.334 116.334 179.173 116.334 179.173L100.317 210.254V210.246ZM138.279 210.246H197.267L204.446 189.047L202.896 182.498C202.896 182.498 217.976 150.579 190.908 146.077C190.908 146.077 188.139 146.881 183.944 148.548C167.288 156.042 157.555 172.284 157.555 172.284L138.279 210.246ZM213.549 210.246H293.769V167.641C293.769 167.641 289.126 146.906 259.736 141.99C236.912 143.267 224.799 168.553 224.799 168.553L213.541 210.246H213.549ZM311.171 210.246H389.973L378.714 168.553C378.714 168.553 366.941 143.996 344.747 142.073C315.78 147.122 311.179 167.641 311.179 167.641V210.246H311.171ZM407.673 210.246H465.234L445.959 172.284C445.959 172.284 436.226 156.042 419.57 148.548C416.469 147.312 414.14 146.558 413.145 146.243C387.295 151.292 402.044 182.498 402.044 182.498L400.493 189.047L407.673 210.246ZM478.723 210.246H503.189L487.171 179.165C487.171 179.165 479.096 159.98 461.611 152.577C449.632 160.486 465.359 179.53 465.359 179.53L464.198 182.904L478.723 210.238V210.246ZM511.927 210.246H520.541L504.258 179.745C504.258 179.745 500.196 170.816 490.305 161.887C491.98 172.358 506.977 187.82 506.977 187.82C502.774 191.352 505.236 197.951 505.236 197.951L511.927 210.246Z" fill="#06B2B6"/>
<mask id="mask1_191_103" style="mask-type:luminance" maskUnits="userSpaceOnUse" x="70" y="63" width="465" height="163">
<path d="M70.6777 210.238H75.6769L83.1716 199.327C83.1716 199.327 83.1882 199.311 83.1965 199.303C83.8266 196.127 83.3043 194.32 82.7322 193.367C82.4835 193.06 82.2016 192.745 81.87 192.421C82.3509 190.506 84.7883 187.447 88.1294 183.965C95.906 173.991 109.759 157.883 122.908 151.134H129.143C129.143 151.134 186.273 85.0917 280.628 70.3593C280.628 70.3593 285.752 65.4181 296.48 63.9258V63.8181C298.08 63.644 299.597 63.5528 301.048 63.5196V63.5113C301.28 63.5113 301.529 63.5113 301.761 63.5196C302.001 63.5196 302.242 63.5113 302.474 63.5113C304.348 63.503 306.337 63.5859 308.468 63.8181V63.9258C319.196 65.4264 324.32 70.3593 324.32 70.3593C418.675 85.0917 475.805 151.134 475.805 151.134H480.613H482.039C501.754 161.265 523.078 192.413 523.078 192.413C518.584 196.857 521.776 199.319 521.776 199.319L529.271 210.23H534.27V213.123H70.6943V210.23L70.6777 210.238ZM70.6777 222.682H534.253V225.567H70.6777V222.682ZM70.6777 216.464H534.253V219.358H70.6777V216.464ZM82.9727 210.246H93.0125L99.703 197.951C99.703 197.951 102.165 191.352 97.962 187.82C97.962 187.82 114.344 170.941 114.784 160.503C114.784 160.503 114.411 160.793 113.747 161.332C114.402 160.801 114.784 160.503 114.784 160.503C103.741 169.863 99.2553 179.745 99.2553 179.745L82.9727 210.246ZM100.317 210.246H126.208L140.733 182.912L139.572 179.538C139.572 179.538 155.814 159.898 142.764 152.22C124.666 159.334 116.334 179.173 116.334 179.173L100.317 210.254V210.246ZM138.279 210.246H197.267L204.446 189.047L202.896 182.498C202.896 182.498 217.976 150.579 190.908 146.077C190.908 146.077 188.139 146.881 183.944 148.548C167.288 156.042 157.555 172.284 157.555 172.284L138.279 210.246ZM213.549 210.246H293.769V167.641C293.769 167.641 289.126 146.906 259.736 141.99C236.912 143.267 224.799 168.553 224.799 168.553L213.541 210.246H213.549ZM311.171 210.246H389.973L378.714 168.553C378.714 168.553 366.941 143.996 344.747 142.073C315.78 147.122 311.179 167.641 311.179 167.641V210.246H311.171ZM407.673 210.246H465.234L445.959 172.284C445.959 172.284 436.226 156.042 419.57 148.548C416.469 147.312 414.14 146.558 413.145 146.243C387.295 151.292 402.044 182.498 402.044 182.498L400.493 189.047L407.673 210.246ZM478.723 210.246H503.189L487.171 179.165C487.171 179.165 479.096 159.98 461.611 152.577C449.632 160.486 465.359 179.53 465.359 179.53L464.198 182.904L478.723 210.238V210.246ZM511.927 210.246H520.541L504.258 179.745C504.258 179.745 500.196 170.816 490.305 161.887C491.98 172.358 506.977 187.82 506.977 187.82C502.774 191.352 505.236 197.951 505.236 197.951L511.927 210.246Z" fill="white"/>
</mask>
<g mask="url(#mask1_191_103)">
<path d="M160.987 148.382C160.763 148.63 160.456 148.746 160.158 148.746C159.868 148.746 159.569 148.63 159.345 148.39C158.889 147.917 158.881 147.138 159.329 146.657C159.445 146.533 171.251 133.915 192.217 118.527C211.559 104.334 242.906 84.7847 282.402 72.2659C283.016 72.0752 283.662 72.44 283.845 73.0867C284.027 73.7333 283.679 74.4215 283.065 74.6121C208.044 98.39 161.443 147.876 160.979 148.365L160.987 148.382ZM303.618 147.519C303.618 148.199 303.096 148.746 302.457 148.746C301.81 148.746 301.296 148.199 301.296 147.519V73.4515C301.296 72.7716 301.81 72.2245 302.457 72.2245C303.096 72.2245 303.618 72.7716 303.618 73.4515V147.519ZM443.828 148.398C443.646 148.589 443.413 148.68 443.173 148.713C442.933 148.68 442.692 148.581 442.51 148.382C442.054 147.884 395.453 98.406 320.423 74.6287C319.809 74.438 319.461 73.7499 319.644 73.1033C319.776 72.6307 320.158 72.3074 320.589 72.241C320.647 72.2493 320.705 72.2576 320.763 72.2825C360.259 84.8013 391.606 104.35 410.948 118.544C431.923 133.931 443.72 146.549 443.836 146.674C444.284 147.155 444.276 147.934 443.82 148.407L443.828 148.398ZM307.73 72.9209C307.904 72.5395 308.236 72.2991 308.6 72.241C308.717 72.2576 308.841 72.2908 308.957 72.3488C338.496 87.4459 358.186 106.912 369.503 120.575C381.79 135.407 387.004 146.516 387.22 146.981C387.502 147.586 387.261 148.324 386.689 148.622C386.582 148.68 386.474 148.713 386.358 148.73C385.985 148.68 385.636 148.448 385.462 148.067C385.413 147.959 380.132 136.725 368.019 122.117C356.852 108.645 337.418 89.4606 308.269 74.5624C307.688 74.2639 307.448 73.5344 307.73 72.9209ZM295.228 74.5624C266.078 89.4606 246.645 108.645 235.478 122.117C223.365 136.725 218.092 147.951 218.034 148.067C217.835 148.498 217.421 148.755 216.99 148.755C216.816 148.755 216.641 148.713 216.476 148.63C215.904 148.332 215.663 147.594 215.945 146.989C216.161 146.525 221.375 135.415 233.662 120.583C244.979 106.912 264.669 87.4542 294.208 72.3571C294.78 72.0586 295.476 72.3157 295.758 72.9292C296.032 73.5427 295.792 74.2722 295.219 74.5707L295.228 74.5624Z" fill="#FEFEFE"/>
</g>
<path fill-rule="evenodd" clip-rule="evenodd" d="M239.772 401.128H306.312H328.008H402.507C404.704 401.128 406.885 400.854 408.692 402.23C408.883 402.38 408.932 402.438 409.107 402.587C409.281 402.736 409.322 402.711 409.48 402.919C409.621 403.109 409.703 403.159 409.836 403.325C410.408 404.096 410.765 404.9 410.93 405.87C411.163 407.213 410.789 408.249 410.45 409.526C409.637 412.569 408.684 415.553 407.855 418.621C407.656 419.359 407.424 420.13 407.2 420.901L401.371 441.321C400.484 444.33 399.68 447.422 398.776 450.407C397.856 453.441 397.093 456.476 396.182 459.493L394.242 466.3C393.421 469.326 392.5 472.369 391.647 475.387L389.052 484.473C388.297 487.026 388.09 488.685 385.943 490.111C384.392 491.139 382.792 490.964 380.927 490.964H240.692C239.092 490.964 237.914 491.246 236.729 492.117C236.29 492.44 235.974 492.772 235.651 493.211C235.402 493.543 235.295 493.725 235.096 494.123C234.184 495.931 234.416 498.011 235.452 499.678C235.709 500.084 236.024 500.407 236.364 500.706C237.608 501.825 239.009 502.19 240.692 502.19H378.407C379.526 502.19 383.008 502.074 384.119 502.289C385.138 502.488 385.926 502.978 386.697 503.583C386.821 503.682 387.087 503.956 387.195 504.088C387.476 504.462 387.767 504.835 387.982 505.241C388.04 505.349 388.057 505.44 388.123 505.572C388.48 506.335 388.571 507.231 388.571 508.118C388.571 510.746 386.183 513.133 383.688 513.399C382.137 513.565 375.654 513.465 373.59 513.465V513.523C374.162 513.523 374.808 513.672 375.331 513.78C376.848 514.112 378.208 514.659 379.584 515.339C379.716 515.405 379.791 515.447 379.924 515.529C380.711 516.027 381.524 516.483 382.237 517.088L383 517.735C383.563 518.307 384.16 518.862 384.674 519.467L385.512 520.57C386.407 521.839 387.145 523.24 387.65 524.715C388.38 526.846 388.571 528.438 388.571 530.784C388.571 533.122 387.767 535.866 386.987 537.417C386.233 538.925 385.404 540.169 384.326 541.454C384.011 541.835 383.165 542.673 382.776 542.963L382.237 543.427C380.587 544.837 378.581 545.724 376.533 546.42C373.855 547.332 370.365 547.307 367.62 546.627C367.04 546.478 366.592 546.321 366.045 546.147C365.266 545.89 364.594 545.566 363.873 545.201L362.58 544.439C362.348 544.289 362.207 544.182 361.991 544.024L360.549 542.888C360.424 542.797 360.383 542.756 360.267 542.64L358.302 540.492C357.365 539.315 356.619 537.955 356.063 536.563C355.185 534.374 354.845 532.26 354.845 529.789C354.845 526.871 355.815 523.911 357.324 521.465L358.302 520.031L360.955 517.279C361.079 517.188 361.088 517.154 361.204 517.055C362.306 516.118 363.848 515.231 365.191 514.7C366.543 514.162 368.4 513.515 369.826 513.515H253.194C254.239 513.515 255.441 513.855 256.419 514.17C257.804 514.617 259.155 515.239 260.374 516.035L260.971 516.433C261.534 516.806 262.869 517.917 263.342 518.406C263.458 518.531 263.449 518.556 263.549 518.672C263.706 518.862 263.881 518.97 264.038 519.177L265.298 520.794C265.986 521.772 266.534 522.875 266.981 523.986C267.081 524.235 267.155 524.409 267.238 524.666C268.316 527.924 268.515 531.19 267.644 534.54C267.048 536.836 265.978 538.793 264.594 540.65C263.242 542.457 261.062 544.24 259.031 545.251C258.094 545.724 257.14 546.089 256.137 546.412C253.41 547.307 249.961 547.299 247.183 546.603C246.611 546.462 246.122 546.288 245.616 546.113L244.157 545.516C243.95 545.425 243.643 545.276 243.453 545.16C242.59 544.654 241.77 544.14 240.965 543.535C240.385 543.096 239.863 542.606 239.349 542.092C239.175 541.918 238.967 541.744 238.818 541.562L236.497 538.246C233.96 533.412 233.703 527.742 236.182 522.8C236.911 521.349 237.848 519.89 238.992 518.746C239.332 518.406 239.639 518.075 239.987 517.743C240.659 517.105 241.446 516.541 242.217 516.035C244.008 514.866 247.374 513.498 249.43 513.498V513.44C247.067 513.44 240.319 513.606 238.495 513.332C238.37 513.316 238.279 513.324 238.163 513.316L236.455 513.026C234.126 512.561 231.937 511.5 230.088 510.116C229.549 509.718 229.085 509.245 228.612 508.889C228.248 508.615 227.941 508.192 227.634 507.869L227.162 507.338C226.606 506.683 226.109 505.987 225.661 505.257C225.006 504.188 224.401 502.886 223.995 501.576C222.817 497.788 223.041 493.833 224.484 490.185L225.222 488.627C225.719 487.681 226.366 486.595 227.104 485.816C227.211 485.7 227.195 485.692 227.286 485.584L227.841 484.962C228.09 484.697 228.372 484.39 228.654 484.183C228.828 484.058 228.886 483.959 229.052 483.818C229.881 483.08 230.818 482.4 231.804 481.878C232.227 481.654 232.874 481.173 233.355 481.132C233.355 480.435 232.899 478.918 232.758 478.205C232.667 477.766 232.526 477.21 232.434 476.771L230.859 469.658C230.627 468.679 230.428 467.767 230.213 466.781L227.054 452.563C226.938 452.057 226.847 451.576 226.739 451.12C226.623 450.647 226.523 450.2 226.432 449.727L225.155 444.015C224.956 443.037 224.741 442.158 224.533 441.171L222.95 434.066C221.847 429.316 220.886 424.54 219.775 419.798C219.659 419.301 219.584 418.895 219.468 418.397L218.208 412.726C218.117 412.254 217.992 411.79 217.884 411.292L208.947 370.585C208.897 370.337 208.823 370.129 208.815 369.897H179.69C178.852 369.897 177.891 369.673 177.319 369.392C176.382 368.927 175.569 368.305 174.989 367.435C174.367 366.49 173.994 365.495 173.994 364.202C173.994 361.258 176.581 358.622 179.342 358.622H213.64C214.892 358.622 216.301 359.252 217.147 360.106C218.631 361.598 218.73 362.701 219.252 364.931L219.965 368.148C220.231 369.242 220.43 370.312 220.695 371.414C220.819 371.937 220.927 372.484 221.06 373.048C221.25 373.86 227.037 400.763 227.203 401.103H239.821L239.772 401.128Z" fill="#06B2B6"/>
<path fill-rule="evenodd" clip-rule="evenodd" d="M354.363 371.738L396.82 385.948C399.24 386.761 400.559 389.405 399.746 391.826L377.403 458.565C376.591 460.986 373.946 462.304 371.525 461.492L329.069 447.282C326.648 446.469 325.33 443.825 326.142 441.404L348.485 374.665C349.298 372.244 351.943 370.926 354.363 371.738Z" fill="#604CC3"/>
<path fill-rule="evenodd" clip-rule="evenodd" d="M353.974 377.16L393.868 390.516C394.606 390.765 395.004 391.569 394.763 392.307L390.427 405.257C390.179 405.994 389.375 406.401 388.637 406.152L348.742 392.796C348.005 392.547 347.607 391.743 347.847 391.005L352.183 378.055C352.432 377.317 353.236 376.919 353.974 377.16ZM365.373 441.926L376.027 445.491C376.491 445.648 376.74 446.154 376.59 446.618L373.871 454.743C373.714 455.207 373.208 455.456 372.744 455.307L362.09 451.742C361.626 451.584 361.377 451.079 361.527 450.614L364.246 442.49C364.403 442.025 364.909 441.777 365.373 441.926ZM369.427 429.805L380.081 433.37C380.545 433.528 380.794 434.033 380.645 434.498L377.925 442.622C377.768 443.087 377.262 443.335 376.798 443.186L366.144 439.621C365.68 439.464 365.431 438.958 365.581 438.494L368.3 430.369C368.457 429.905 368.963 429.656 369.427 429.805ZM373.481 417.684L384.135 421.249C384.599 421.407 384.848 421.912 384.699 422.377L381.979 430.501C381.822 430.966 381.316 431.214 380.852 431.065L370.198 427.5C369.734 427.343 369.485 426.837 369.635 426.373L372.354 418.248C372.512 417.784 373.017 417.535 373.481 417.684ZM350.243 436.86L360.896 440.425C361.361 440.583 361.609 441.089 361.46 441.553L358.741 449.678C358.583 450.142 358.078 450.391 357.613 450.241L346.96 446.676C346.496 446.519 346.247 446.013 346.396 445.549L349.116 437.424C349.273 436.96 349.779 436.711 350.243 436.86ZM354.297 424.739L364.951 428.304C365.415 428.462 365.664 428.968 365.514 429.432L362.795 437.557C362.637 438.021 362.132 438.27 361.667 438.12L351.014 434.556C350.55 434.398 350.301 433.892 350.45 433.428L353.17 425.303C353.327 424.839 353.833 424.59 354.297 424.739ZM358.351 412.619L369.005 416.184C369.469 416.341 369.718 416.847 369.568 417.311L366.849 425.436C366.692 425.9 366.186 426.149 365.722 426L355.068 422.435C354.604 422.277 354.355 421.771 354.504 421.307L357.224 413.182C357.381 412.718 357.887 412.469 358.351 412.619ZM335.113 431.803L345.766 435.368C346.23 435.526 346.479 436.031 346.33 436.496L343.611 444.62C343.453 445.085 342.947 445.333 342.483 445.184L331.83 441.619C331.365 441.462 331.117 440.956 331.266 440.492L333.985 432.367C334.143 431.903 334.648 431.654 335.113 431.803ZM339.167 419.682L349.82 423.247C350.284 423.405 350.533 423.91 350.384 424.375L347.665 432.499C347.507 432.964 347.001 433.212 346.537 433.063L335.884 429.498C335.419 429.341 335.171 428.835 335.32 428.371L338.039 420.246C338.197 419.782 338.703 419.533 339.167 419.682ZM343.221 407.561L353.874 411.126C354.339 411.284 354.587 411.79 354.438 412.254L351.719 420.379C351.561 420.843 351.056 421.092 350.591 420.942L339.938 417.377C339.474 417.22 339.225 416.714 339.374 416.25L342.093 408.125C342.251 407.661 342.757 407.412 343.221 407.561ZM377.527 405.563L388.181 409.128C388.645 409.286 388.894 409.792 388.744 410.256L386.025 418.381C385.868 418.845 385.362 419.094 384.898 418.944L374.244 415.379C373.78 415.222 373.531 414.716 373.68 414.252L376.4 406.127C376.557 405.663 377.063 405.414 377.527 405.563ZM362.405 400.498L373.059 404.063C373.523 404.22 373.772 404.726 373.622 405.19L370.903 413.315C370.746 413.779 370.24 414.028 369.776 413.871L359.122 410.306C358.658 410.148 358.409 409.642 358.558 409.178L361.278 401.053C361.435 400.589 361.941 400.34 362.405 400.49V400.498ZM347.283 395.432L357.937 398.997C358.401 399.155 358.65 399.66 358.5 400.125L355.781 408.25C355.624 408.714 355.118 408.963 354.654 408.813L344 405.248C343.536 405.091 343.287 404.585 343.436 404.121L346.156 395.996C346.313 395.532 346.819 395.283 347.283 395.432Z" fill="#FEFEFE"/>
<path fill-rule="evenodd" clip-rule="evenodd" d="M296.935 379.979L296.628 380.004L296.454 380.078L296.164 380.111L296.007 380.186L295.683 380.194L295.518 380.269L295.261 380.277L295.07 380.385L294.746 380.393L294.564 380.468L294.274 380.493L294.108 380.567L293.818 380.592L293.652 380.667L293.345 380.692L293.18 380.766L292.848 380.775L292.69 380.849L292.392 380.874L292.226 380.949L291.911 380.965L291.737 381.04L291.439 381.065L291.289 381.148L290.983 381.164L290.825 381.247L290.51 381.264L290.344 381.338L290.029 381.355L289.872 381.43L289.565 381.454L289.399 381.529L289.092 381.554L288.943 381.629L288.628 381.645L288.462 381.72L288.164 381.745L287.998 381.819L287.683 381.836L287.517 381.91L287.219 381.935L287.069 382.018L286.754 382.035L286.572 382.101L286.274 382.126L286.108 382.201L285.809 382.226L285.652 382.308L285.32 382.325L285.154 382.4L284.881 382.425L284.698 382.499L284.375 382.516L284.209 382.59L283.902 382.615L283.753 382.69L283.405 382.698L283.239 382.814L282.941 382.806L282.791 382.88L282.476 382.897L282.319 382.972L281.987 382.98L281.83 383.096H281.564C281.564 383.262 281.598 383.196 281.399 383.171L281.067 383.179L280.893 383.287L280.155 383.378L279.989 383.453L279.674 383.469L279.508 383.544L278.729 383.66L278.555 383.726L277.801 383.85C277.801 384.016 277.834 383.95 277.643 383.933L277.328 383.95L277.154 384.025L276.864 384.049L276.69 384.124L276.366 384.141L276.209 384.215L275.919 384.24L275.753 384.315L274.949 384.423L274.774 384.53H274.509L274.335 384.605L274.02 384.622L273.863 384.696L273.539 384.713L273.39 384.787L272.992 384.812L272.818 384.887L272.528 384.912L272.379 384.995L272.138 385.003L271.972 385.077L271.599 385.111L271.442 385.185L271.102 385.194L270.928 385.268H270.671L270.497 385.376H270.148L269.991 385.459L269.692 385.484L269.535 385.558H269.278L269.087 385.666L268.797 385.658L268.615 385.766H268.283L268.134 385.84L267.819 385.857L267.661 385.931L267.363 385.956L267.189 386.031L266.865 386.047L266.708 386.122L266.401 386.147L266.244 386.222L265.937 386.246L265.771 386.321L265.448 386.338L265.282 386.412L264.983 386.437L264.809 386.512L264.494 386.528L264.32 386.603L264.013 386.628L263.881 386.711L263.574 386.736L263.4 386.802L263.077 386.819L262.911 386.893L262.67 386.901L262.48 387.009L262.123 386.993L261.974 387.076L261.692 387.109L261.518 387.175L261.186 387.183L261.029 387.266L260.722 387.283L260.564 387.357L260.249 387.374L260.1 387.457L259.785 387.482L259.619 387.556L259.313 387.573L259.138 387.648L258.84 387.672L258.674 387.747L258.359 387.764L258.193 387.838L257.414 387.954L257.257 388.029L256.933 388.046L256.784 388.12L256.485 388.145L256.32 388.22L255.996 388.236L255.839 388.311L255.524 388.327L255.358 388.402L255.068 388.427L254.91 388.51L254.554 388.501L254.355 388.609L254.065 388.593L253.891 388.709L253.551 388.717L253.401 388.792L253.078 388.808L252.912 388.883L252.606 388.899L252.431 388.974L252.15 388.999L251.992 389.074L251.685 389.098L251.511 389.165L251.188 389.181L251.014 389.264H250.765L250.583 389.364L250.259 389.38L250.085 389.455L249.778 389.48L249.621 389.554L249.306 389.571L249.14 389.646L248.833 389.662L248.684 389.745L248.361 389.762L248.195 389.836L247.946 389.845L247.747 389.944L247.424 389.952L247.275 390.035L246.727 390.143L246.636 390.234L246.553 390.243L246.462 390.35L246.172 390.64L246.073 390.74L245.981 391.038L245.898 391.171L245.907 391.743C246.056 391.743 246.006 391.71 245.99 391.901L246.023 392.332L246.097 392.498L246.106 392.771L246.213 392.962L246.222 393.244L246.296 393.426L246.33 393.741L246.404 393.924L246.421 394.28L246.529 394.471L246.628 395.283L246.703 395.457L246.736 395.764L246.81 395.938L246.819 396.311L246.935 396.51L246.943 396.792L247.026 396.95L247.051 397.289L247.125 397.48L247.134 397.837L247.242 398.036L247.25 398.318L247.324 398.492L247.358 398.79L247.432 398.981L247.465 399.296L247.54 399.47L247.565 399.802L247.639 399.976L247.673 400.291L247.747 400.473L247.772 400.813L247.847 400.995L247.872 401.327L247.946 401.509L247.979 401.833L248.054 402.015L248.079 402.338L248.153 402.521L248.178 402.852L248.253 403.035L248.278 403.366L248.352 403.541L248.386 403.864L248.46 404.038L248.485 404.386L248.568 404.56L248.593 404.875L248.667 405.066L248.692 405.381L248.767 405.572L248.792 405.887L248.866 406.061V406.351L248.983 406.525L248.999 406.898L249.074 407.072L249.082 407.346L249.19 407.537L249.206 407.91L249.281 408.076L249.389 408.863L249.497 409.062L249.521 409.402L249.596 409.584V409.899L249.704 410.082L249.696 410.405L249.803 410.596L249.82 410.952L249.895 411.118L249.903 411.392L250.011 411.591L250.019 411.972L250.093 412.154L250.127 412.47L250.201 412.644L250.234 412.975L250.309 413.149L250.342 413.473L250.417 413.647L250.433 414.003L250.516 414.186L250.525 414.451L250.632 414.633L250.649 414.982L250.724 415.156L250.732 415.454L250.84 415.645L250.856 416.01L250.931 416.184L250.956 416.524L251.039 416.689L251.063 417.013L251.138 417.195V417.485L251.246 417.668L251.262 418.024L251.337 418.207L251.354 418.447L251.428 418.613L251.461 419.036L251.544 419.21L251.577 419.525L251.652 419.699L251.876 420.959L251.951 421.133L251.975 421.49L252.058 421.639L252.075 422.004L252.183 422.186L252.191 422.476L252.266 422.642L252.407 423.562L252.481 423.736L252.506 424.076L252.581 424.242L252.614 424.565L252.688 424.74L252.713 425.079L252.788 425.245L252.78 425.552L252.896 425.726L253.003 426.53L253.078 426.696L253.095 427.053L253.202 427.235L253.219 427.6L253.294 427.782L253.302 428.064L253.418 428.238V428.537L253.493 428.711L253.517 429.042L253.592 429.225L253.609 429.581L253.725 429.755V430.054L253.799 430.236L253.824 430.568L253.899 430.734L253.915 431.098L254.031 431.281V431.579L254.106 431.753L254.139 432.052L254.214 432.234L254.23 432.591L254.338 432.781V433.088L254.413 433.254L254.438 433.594L254.512 433.768L254.546 434.075L254.62 434.257L254.645 434.589L254.72 434.755L254.744 435.086L254.819 435.269L254.844 435.6L254.919 435.791L254.952 436.106L255.026 436.288L255.051 436.628L255.126 436.794L255.159 437.117L255.234 437.292L255.259 437.623L255.333 437.806L255.366 438.129L255.441 438.303L255.466 438.635L255.54 438.809L255.565 439.14L255.64 439.331L255.673 439.646L255.739 439.837L255.773 440.152L255.847 440.318L255.963 441.196L256.079 441.379L256.063 441.71L256.17 441.893L256.179 442.166L256.245 442.357L256.27 442.689L256.345 442.855L256.469 443.717L256.577 443.899L256.585 444.173C256.734 444.173 256.676 444.148 256.668 444.339L256.792 445.209L256.867 445.375L256.883 445.74L256.991 445.93L257 446.204L257.074 446.386L257.099 446.726L257.174 446.9L257.215 447.307L257.29 447.481V447.771L257.406 447.945L257.514 448.741L257.596 448.898L257.621 449.247L257.696 449.429L257.721 449.777L257.795 449.935L257.82 450.283L257.928 450.482V450.772L258.003 450.938L258.036 451.245L258.11 451.427L258.135 451.783L258.243 451.982V452.289L258.318 452.455L258.343 452.787L258.417 452.961L258.442 453.301L258.517 453.458L258.55 453.773L258.624 453.964L258.633 454.254L258.741 454.445L258.749 454.81L258.823 454.992L258.857 455.299L258.931 455.489L258.948 455.755L259.047 455.962L259.064 456.302L259.138 456.484L259.155 456.849L259.238 457.006L259.263 457.355L259.371 457.537V457.836L259.445 458.018L259.478 458.308L259.553 458.507L259.578 458.847L259.652 459.021L259.677 459.353L259.752 459.535L259.777 459.858L259.851 460.041L259.885 460.356L259.959 460.547L259.992 460.87L260.067 461.036L260.092 461.367L260.175 461.525L260.2 461.856L260.274 462.039L260.283 462.321L260.39 462.52L260.399 462.893L260.473 463.059L260.498 463.399L260.573 463.589L260.606 463.896L260.681 464.07L260.697 464.327L260.78 464.46C260.929 464.858 261.02 464.949 261.369 465.148L261.468 465.247L262.529 465.372L262.703 465.264L263.043 465.256L263.209 465.173L263.508 465.148L263.665 465.073L263.939 465.082L264.113 464.974H264.386L264.544 464.899L264.851 464.874L265.016 464.8L265.323 464.775L265.472 464.7L265.779 464.675L265.962 464.601L266.252 464.576L266.409 464.501H266.683L266.849 464.385H267.205L267.354 464.302L267.669 464.286L267.835 464.211H268.092L268.25 464.095L268.979 463.995L269.137 463.921L269.469 463.913L269.659 463.805H269.916L270.074 463.73L270.397 463.714L270.571 463.639L270.845 463.606L271.019 463.531L271.35 463.523L271.525 463.44L271.806 463.415L271.989 463.34L272.271 463.316L272.453 463.241L272.727 463.216L272.884 463.142L273.216 463.133L273.398 463.059L273.68 463.025L273.829 462.943L274.567 462.843L274.741 462.735H274.998C274.998 462.569 274.965 462.636 275.164 462.661L275.463 462.644L275.637 462.569L275.96 462.553L276.118 462.478L276.424 462.453L276.574 462.371L276.889 462.354L277.054 462.279L277.353 462.254L277.519 462.18L277.834 462.163L277.975 462.08L278.29 462.064L278.447 461.989L278.746 461.964L278.903 461.89L279.235 461.873L279.392 461.798L280.114 461.699L280.296 461.591L280.594 461.608L280.769 461.5H281.017L281.183 461.425L281.523 461.417L281.697 461.309H281.954L282.12 461.235L282.41 461.202L282.584 461.127L282.916 461.119L283.082 461.044L283.372 461.011L283.521 460.936L283.828 460.911L283.985 460.837L284.3 460.82L284.466 460.746L284.748 460.754L284.93 460.646L285.221 460.663L285.386 460.547L285.635 460.538L285.809 460.464L286.108 460.439L286.29 460.372L286.597 460.348L286.746 460.273L287.053 460.248L287.227 460.173L287.517 460.14L287.675 460.066H287.948L288.122 459.958L288.454 459.95L288.628 459.875L288.935 459.858L289.109 459.784L289.399 459.759L289.557 459.684H289.822L289.988 459.568L290.261 459.577L290.419 459.502L290.734 459.477L290.883 459.402L291.182 459.378L291.356 459.303L291.654 459.278L291.82 459.203L292.135 459.187L292.309 459.112L292.981 458.996L293.146 458.922L293.486 458.913L293.669 458.806H293.942L294.108 458.731L294.407 458.706L294.564 458.631L294.863 458.607L295.028 458.532L295.352 458.515L295.509 458.432L295.816 458.416L295.973 458.341L296.313 458.333L296.463 458.258L296.736 458.225L296.91 458.151L297.234 458.134L297.399 458.051H297.656L297.831 457.935H298.088L298.253 457.86L298.552 457.836L298.718 457.761L299.024 457.736L299.199 457.661L299.522 457.653L299.704 457.545H299.953L300.135 457.471L300.898 457.355L301.064 457.28L301.387 457.263L301.545 457.189L301.843 457.164L302.009 457.089L302.341 457.073L302.506 456.998L302.805 456.973L302.971 456.899L303.277 456.874L303.443 456.799L303.742 456.774L303.908 456.7L304.214 456.675L304.38 456.6L304.596 456.584C304.596 456.418 304.563 456.476 304.753 456.501L305.052 456.484L305.234 456.41L305.533 456.385L305.698 456.31L306.005 456.285L306.163 456.211L306.478 456.194L306.652 456.119L306.975 456.111L307.141 456.028L307.431 456.003L307.605 455.929L307.887 455.904L308.061 455.829H308.318L308.501 455.721L309.214 455.622L309.388 455.547L309.678 455.522L309.852 455.448L310.167 455.431L310.324 455.357L311.112 455.241L311.27 455.166L311.585 455.149L311.734 455.067L312.049 455.05L312.231 454.975L312.538 454.959L312.704 454.884L312.845 454.868L312.944 454.776L313.035 454.768L313.127 454.669C313.45 454.494 313.608 454.279 313.69 453.889C313.674 453.699 313.624 453.732 313.765 453.732L313.773 453.151L313.666 452.961L313.657 452.596L313.583 452.414L313.55 452.098L313.475 451.908L313.45 451.593L313.375 451.41L313.342 451.087L313.268 450.905L313.243 450.565L313.168 450.382L313.135 450.067L313.06 449.885L313.027 449.562L312.953 449.379L312.919 449.064L312.845 448.882L312.82 448.542L312.745 448.368L312.72 448.036L312.646 447.87L312.621 447.53L312.546 447.365L312.521 447.033L312.447 446.842L312.422 446.502L312.323 446.295L312.314 446.005L312.24 445.831L312.215 445.499L312.14 445.325L312.107 445.018L312.032 444.836L311.999 444.521L311.925 444.339L311.9 444.015L311.825 443.833L311.792 443.501L311.717 443.327L311.692 442.987L311.618 442.805L311.593 442.481L311.518 442.316L311.493 441.984L311.419 441.793L311.394 441.453L311.319 441.288L311.286 440.956L311.212 440.782L311.187 440.434L311.112 440.26L311.079 439.936L311.004 439.762L310.971 439.43L310.897 439.256L310.872 438.941L310.797 438.751L310.78 438.386L310.673 438.195V437.897L310.598 437.723L310.557 437.316L310.482 437.126L310.457 436.91L310.383 436.728L310.242 435.808L310.167 435.633L310.159 435.343L310.043 435.177L310.051 434.854L309.943 434.663V434.348L309.835 434.149L309.313 431.256L309.238 431.074V430.792L309.131 430.609L309.106 430.269L309.031 430.095L309.023 429.813L308.915 429.623L308.932 429.291L308.824 429.109L308.816 428.843L308.741 428.661L308.724 428.296L308.617 428.114L308.6 427.757L308.525 427.592L308.517 427.301L308.409 427.094L308.393 426.746L308.318 426.564L308.31 426.265L308.21 426.058L308.186 425.71L308.111 425.544L308.086 425.196L308.011 425.005L307.978 424.706L307.904 424.524L307.879 424.184L307.804 424.002L307.779 423.678L307.705 423.504L307.68 423.181L307.605 422.982L307.58 422.675L307.506 422.485L307.473 422.186L307.398 422.012L307.365 421.68L307.29 421.506L307.257 421.183L307.182 421.009L307.157 420.661L307.083 420.478L307.058 420.138L306.983 419.956L306.959 419.633L306.884 419.45L306.867 419.11L306.784 418.92L306.751 418.621L306.677 418.447L306.652 418.107L306.577 417.916L306.544 417.601L306.469 417.411L306.436 417.087L306.362 416.905L306.337 416.573L306.262 416.399L306.229 416.076L306.154 415.918L306.129 415.579L306.055 415.404L306.03 415.064L305.955 414.882L305.922 414.559L305.848 414.368L305.814 414.07L305.74 413.871L305.707 413.547L305.632 413.357L305.607 413.025L305.533 412.843L305.516 412.486L305.408 412.295V411.989L305.3 411.798L305.292 411.508L305.217 411.334L305.193 411.002L305.118 410.82L305.093 410.472L304.985 410.289L304.977 410.007L304.902 409.817L304.878 409.46L304.778 409.261L304.77 408.987L304.695 408.805L304.67 408.465L304.596 408.283L304.563 407.959L304.488 407.777L304.463 407.437L304.364 407.23L304.355 406.965L304.281 406.766L304.148 405.945L304.073 405.754L303.941 404.909L303.866 404.743L303.85 404.353L303.742 404.162V403.856L303.634 403.665V403.284L303.551 403.118L303.526 402.786L303.443 402.62L303.418 402.289L303.344 402.098L303.319 401.783L303.236 401.617L303.203 401.31L303.128 401.128L303.004 400.274L302.929 400.1L302.921 399.826L302.813 399.644L302.805 399.271L302.73 399.097V398.815L302.614 398.633L302.623 398.309L302.515 398.119L302.523 397.804L302.407 397.621L302.415 397.306L302.308 397.115L302.299 396.825L302.225 396.668L302.2 396.319L302.092 396.121L302.1 395.797L301.992 395.615L301.984 395.35L301.91 395.159L301.885 394.819L301.802 394.661L301.777 394.321L301.702 394.139L301.669 393.807L301.595 393.633L301.561 393.302L301.487 393.119L301.454 392.796L301.379 392.614L301.255 391.76L301.172 391.602L301.163 391.32L301.056 391.13L301.039 390.765L300.964 390.582L300.94 390.251L300.865 390.085L300.823 389.778L300.749 389.604V389.289L300.649 389.09L300.624 388.75L300.55 388.56L300.517 388.244L300.442 388.062L300.417 387.722L300.343 387.565L300.309 387.241L300.243 387.051L300.218 386.711L300.144 386.545L300.119 386.205L300.044 386.031L300.036 385.749L299.928 385.558L299.912 385.21L299.837 385.019L299.812 384.671L299.729 384.522L299.696 384.199L299.621 384.016L299.596 383.676L299.522 383.502L299.505 383.229L299.398 383.046L299.389 382.69L299.315 382.516L299.29 382.184L299.215 381.993L299.182 381.67L299.107 381.504L299.082 381.173L299.008 380.99L298.991 380.733L298.9 380.601L298.51 380.111L298.419 380.004L297.905 379.821L297.408 379.788L297.01 379.805L296.852 379.879L296.935 379.979Z" fill="#FF6600"/>
<path fill-rule="evenodd" clip-rule="evenodd" d="M296.405 391.387V391.495L296.305 391.594L296.222 391.81L296.123 391.901L296.032 392.1L295.924 392.199L295.766 392.523L295.659 392.614L294.904 393.393L294.821 393.509L294.357 393.799L294.274 393.899L293.992 393.998L293.901 394.098H293.802L293.694 394.189L293.528 394.197L293.404 394.288L293.246 394.297L293.105 394.38L292.84 394.388L292.575 394.504L291.911 394.496L291.629 394.38H291.356L291.223 394.297L291.057 394.28L290.958 394.181H290.858L290.759 394.089L290.684 394.081L290.585 393.973H290.485L290.386 393.874L290.195 393.774L290.104 393.667L289.805 393.484L289.714 393.368L289.524 393.269L289.424 393.161L288.968 393.061L288.852 393.153L288.661 393.236L288.578 393.36L287.849 394.156L287.749 394.255L287.642 394.355L287.094 394.952L287.012 395.068L286.348 395.449C286.348 395.598 286.381 395.557 286.232 395.54L286.075 395.557L285.95 395.64L285.727 395.656L285.528 395.723L285.055 395.739L284.765 395.623H284.591L284.458 395.532L283.994 395.325L283.903 395.217C283.554 394.993 283.339 394.786 283.132 394.405L283.04 394.305L282.924 394.297C282.933 394.438 282.966 394.405 282.833 394.405L282.568 394.802L282.46 394.894L282.352 394.993L281.714 395.69L281.631 395.814L281.266 396.104L281.183 396.212L280.984 396.303L280.893 396.411L280.702 396.502L280.611 396.602L280.52 396.61L280.429 396.701L280.321 396.693L280.23 396.792L280.147 396.8C280.147 396.941 280.18 396.9 280.039 396.892H279.865L279.741 396.983L279.575 396.991C279.575 397.14 279.608 397.099 279.442 397.074L278.074 397.066L277.908 396.991L277.685 396.966L277.577 396.875L277.104 396.668L277.013 396.56L276.715 396.369L276.615 396.262L276.524 396.154C276.126 395.822 275.969 395.399 275.488 395.35L275.388 395.449C274.824 395.781 274.07 396.883 273.423 397.431L273.34 397.547L273.05 397.729L272.959 397.837L272.777 397.936L272.685 398.036H272.586L272.495 398.127H272.395L272.304 398.218L272.147 398.235L272.014 398.318H271.749C271.508 398.5 271.467 398.467 271.218 398.326L271.002 398.309L270.87 398.218C270.397 398.086 270.016 397.663 269.825 397.19L269.734 397.091L269.726 396.991H269.626L269.452 397.099L269.369 397.215L268.971 397.489L268.88 397.613L268.507 397.895L268.424 398.019L268.043 398.301L267.952 398.409L267.753 398.492L267.661 398.6L267.479 398.691L267.388 398.79L267.297 398.799L267.214 398.898H267.122L267.015 398.989L266.932 398.997L266.824 399.089L266.658 399.097L266.534 399.188L266.393 399.205L266.244 399.288C265.34 399.354 265.315 399.329 264.486 399.072L264.387 398.973H264.287L264.188 398.873L263.997 398.774L263.906 398.666L263.425 398.367L263.334 398.26L262.679 397.945L262.554 397.853L261.825 397.837L261.709 397.928L261.626 397.936L261.543 398.044L260.905 398.74L260.788 398.832L260.44 399.321L260.316 399.42L259.777 400.034L259.694 400.142L259.487 400.225L259.396 400.324L259.321 400.332L259.23 400.432L259.114 400.423L258.998 400.506L258.774 400.531L258.625 400.606L257.713 400.498C257.572 400.506 257.605 400.54 257.605 400.399L257.224 400.191L257.132 400.075L256.469 399.362L256.37 399.263L256.278 399.163L256.088 399.172L255.988 399.279L255.723 399.57L255.623 399.669L255.516 399.76L255.259 400.158L255.151 400.249L255.06 400.44L254.96 400.54C254.703 401.12 254.438 401.112 253.841 401.045L253.741 400.946C253.219 400.564 253.277 400.216 253.435 399.636L253.526 399.536L253.609 399.321L253.708 399.23L253.8 399.039L253.899 398.948L254.073 398.641L254.173 398.55L254.272 398.45L254.372 398.351L254.728 397.953L254.811 397.829L255.101 397.646L255.192 397.538L255.723 397.323L255.856 397.24L256.569 397.256L256.718 397.339L256.983 397.447L257.083 397.555L258.218 398.682L258.616 398.575L258.708 398.459L259.081 398.069L259.197 397.978L259.362 397.654L259.47 397.563L259.736 397.165L259.835 397.066L259.943 396.966L260.017 396.875L260.109 396.759L260.2 396.66L261.029 396.154L261.128 396.063L261.294 396.046L261.427 395.963L261.742 395.947C261.941 395.855 262.364 395.748 262.521 395.996C262.952 395.98 263.01 396.054 263.408 396.179L263.516 396.27L263.989 396.477L264.08 396.585L264.569 396.883L264.66 396.991L264.859 397.091L264.95 397.198L265.033 397.207L265.133 397.306H265.24L265.34 397.397C265.937 397.431 266.028 397.373 266.55 397.116L266.65 397.008L266.841 396.925C266.841 396.776 266.799 396.809 266.932 396.817L267.23 396.635L267.321 396.51L267.695 396.228L267.777 396.121L267.86 396.013L268.15 395.83L268.233 395.714L268.532 395.54L268.623 395.433L268.814 395.341L268.905 395.242L268.996 395.234L269.087 395.134H269.187L269.286 395.043L269.46 395.035C269.46 394.894 269.427 394.935 269.576 394.943L270.306 394.96L270.414 395.051H270.513L270.604 395.159C271.069 395.457 271.16 395.963 271.458 396.469C271.848 396.394 272.022 396.245 272.321 395.98L272.412 395.864L272.511 395.772L272.611 395.673L272.702 395.557L272.967 395.267L273.075 395.167L273.166 395.059L273.274 394.968L273.921 394.272L274.004 394.148L274.385 393.874L274.476 393.758L274.65 393.667L274.75 393.567H274.833C274.833 393.426 274.8 393.459 274.94 393.476L275.115 393.468L275.239 393.385L275.935 393.401L276.068 393.484L276.242 393.493C276.383 393.484 276.35 393.451 276.35 393.584L276.549 393.675L276.64 393.791L276.93 393.982L277.021 394.098L277.113 394.206L277.212 394.305L277.303 394.413L277.875 394.91L277.975 395.018H278.074L278.174 395.118L278.34 395.134L278.489 395.217L278.912 395.234L279.102 395.126L279.575 395.035L279.674 394.943L279.766 394.935L279.857 394.836L280.329 394.537L280.412 394.421L281.332 393.426L281.449 393.335L281.706 392.92L281.805 392.829L281.979 392.531L282.087 392.44L282.452 392.042L282.535 391.942H282.634L282.734 391.851C283.206 391.843 283.488 391.81 283.778 392.257L283.869 392.357L283.878 392.456L283.977 392.556L284.068 392.771L284.168 392.871L284.35 393.178L284.45 393.277L284.558 393.376L284.649 393.459L284.74 393.575L284.848 393.675L285.577 393.774L285.693 393.692H285.801L285.892 393.584L286.622 392.788L286.721 392.688L286.813 392.589L287.459 391.892L287.55 391.776L288.023 391.486L288.114 391.387H288.222L288.321 391.296L289.3 391.113L289.474 391.188L289.698 391.213L289.805 391.304H289.913L290.004 391.403L290.096 391.412L290.187 391.511L290.378 391.602L290.477 391.718L290.676 391.81L290.767 391.926L291.256 392.216L291.348 392.315L291.43 392.324L291.538 392.415L291.712 392.423C291.878 392.415 291.845 392.365 291.853 392.514C292.575 392.556 292.599 392.481 293.229 392.332L293.321 392.232L293.71 392.042L293.802 391.934L293.893 391.826L294.448 391.246L294.556 391.146L294.639 390.931L294.738 390.84L294.83 390.641L294.929 390.549L295.012 390.342L295.12 390.251L295.203 390.16L295.294 390.035L295.592 389.952L295.659 389.812L295.932 389.911C296.496 390.077 296.678 390.433 296.629 391.039L296.537 391.155V391.254L296.446 391.345L296.405 391.387ZM283.422 452.505L283.314 452.604L283.223 452.696L282.402 453.102L282.294 453.193H282.104L281.996 453.284L281.83 453.292L281.689 453.375L281.465 453.392L281.308 453.467H279.716L279.55 453.35L278.489 453.044L278.381 452.944L278.016 452.828L277.908 452.737L277.544 452.621L277.428 452.53L277.154 452.521L276.706 452.497L275.919 452.903L275.836 453.019L275.28 453.491L275.189 453.607L275.098 453.715L274.816 453.906L274.733 454.022L274.252 454.304L274.161 454.403L274.07 454.412L273.979 454.511H273.871L273.78 454.611L273.34 454.727L273.208 454.81L272.901 454.801C272.743 455.009 272.379 454.942 272.196 454.793L271.939 454.785L271.765 454.702L271.525 454.685L271.392 454.594L271.027 454.486L270.936 454.387L270.853 454.379L270.754 454.279L270.663 454.271L270.563 454.171H270.472L270.372 454.072H270.281L270.182 453.972H270.082L269.966 453.873L269.436 453.864L269.311 453.947L269.145 453.956L269.038 454.047L268.756 454.146L268.656 454.246L268.573 454.254L268.482 454.354L267.993 454.636L267.91 454.752L267.628 454.942L267.537 455.05L267.454 455.166L266.327 456.244L266.235 456.352H266.144L266.02 456.435H265.696L265.572 456.343L265.199 456.028L265.1 455.929V455.838L265.008 455.713L265.166 454.926L265.274 454.834L265.373 454.735L265.464 454.636L265.564 454.544L265.672 454.445L265.746 454.345L265.837 454.238L265.929 454.138L266.012 454.022L266.501 453.657L266.592 453.533L266.957 453.251L267.04 453.135L267.239 453.044L267.33 452.936L267.504 452.836L267.595 452.729L268.25 452.43L268.358 452.339L268.723 452.24L268.839 452.148H269.038L269.195 452.032L270.19 452.065L270.339 452.148L270.721 452.248L270.82 452.356C271.707 452.87 271.914 453.06 272.976 452.977L273.092 452.886L273.365 452.787L273.456 452.679L273.664 452.596L273.747 452.48L274.219 452.099L274.31 451.983L274.393 451.866L274.858 451.485L274.949 451.369L275.148 451.286L275.239 451.178L275.886 450.88L275.993 450.789L277.287 450.706L277.453 450.78L277.751 450.822L277.9 450.905L278.058 450.921L278.174 451.013L278.331 451.029L278.456 451.12L278.82 451.236L278.945 451.328L279.111 451.336L279.235 451.427L279.393 451.444L279.533 451.527L279.749 451.551L279.915 451.634L280.188 451.643L280.636 451.659L281.067 451.651L281.216 451.568L281.648 451.452L281.764 451.361L282.228 451.162L282.327 451.071L282.949 450.979C283.09 450.971 283.057 450.93 283.065 451.071C283.347 451.236 283.314 451.178 283.455 451.477L283.546 451.576L283.554 452.173L283.471 452.281L283.397 452.488L283.422 452.505ZM305.798 439.207L305.707 439.298L305.624 439.489L305.516 439.588L305.441 439.804L305.334 439.895C305.102 440.243 304.845 440.575 304.505 440.79L304.413 440.915L304.123 441.089L304.032 441.197L303.941 441.205L303.85 441.304L303.394 441.512L303.294 441.603L302.83 441.702L302.697 441.785L302.374 441.81L302.216 441.885H301.296L301.039 441.76L300.252 441.57L300.152 441.47L300.053 441.462L299.961 441.362L299.87 441.354L299.779 441.255L299.298 440.956L299.215 440.84L298.909 440.658L298.809 440.558L298.718 440.45L298.055 440.641L297.963 440.749L297.872 440.848L297.408 441.238C297.408 441.387 297.449 441.354 297.317 441.346L297.217 441.445L297.134 441.561L296.479 442.15L296.388 442.249L296.289 442.349C295.932 442.598 295.7 442.83 295.277 442.954L295.161 443.045L293.868 443.128L293.735 443.045L293.072 442.739L292.981 442.631L292.599 442.341L292.508 442.225L292.417 442.125L292.318 442.026L292.226 441.918L292.143 441.91L292.036 441.918L291.828 442.001L291.737 442.125L290.618 443.203L290.535 443.327L290.162 443.609L290.079 443.717L289.88 443.808L289.789 443.908L289.706 443.916L289.606 444.015H289.515L289.416 444.106L289.333 444.115C289.333 444.256 289.366 444.214 289.233 444.206L289.059 444.214L288.935 444.297L288.703 444.314L288.537 444.388L287.468 444.38L287.293 444.305L286.978 444.281L286.829 444.198L286.589 444.181L286.456 444.09L286.282 444.082L286.166 443.99L285.337 443.667L285.229 443.576L284.657 443.369L284.027 444.256L283.911 444.347L283.19 445.151L283.107 445.267L282.087 445.856L281.971 445.939L281.813 445.947L281.681 446.03L281.374 446.055L281.2 446.129L280.644 446.138L280.379 446.022L279.716 445.922L279.6 445.831L279.442 445.823C279.293 445.831 279.326 445.872 279.326 445.731H279.227L279.135 445.632L279.053 445.624L278.953 445.524H278.854L278.754 445.425H278.663L278.563 445.325L278.182 445.118L278.091 445.01L277.892 444.919L277.801 444.811L277.137 444.496L276.997 444.413L276.225 444.405L276.093 444.488H275.902L275.786 444.579L275.338 444.786L275.247 444.894L275.057 444.985L274.974 445.093L274.692 445.284L274.601 445.392L274.509 445.491L274.037 445.872L273.954 445.988L273.863 446.105L273.473 446.378L273.382 446.494L272.387 447.099L272.271 447.182H272.171C272.171 447.323 272.205 447.282 272.064 447.273L271.45 447.39L271.268 447.456L270.671 447.464L270.464 447.365L270.215 447.356L270.066 447.265L269.892 447.257L269.775 447.166L269.419 447.05L269.319 446.95L268.739 446.643L268.648 446.544L268.167 446.345L267.786 446.337H267.612L267.496 446.428L267.04 446.635L266.957 446.743L266.758 446.834L266.666 446.934L266.575 447.041C266.119 447.373 265.614 448.069 265.373 448.65L265.282 448.749C265.158 449.056 265.1 449.197 264.826 449.346L264.718 449.437C264.237 449.437 264.055 449.462 263.773 449.023L263.682 448.915L263.756 447.92L263.848 447.821V447.721L263.939 447.622L264.121 447.207L264.221 447.116L264.395 446.826L264.503 446.726C264.76 446.229 265.166 445.839 265.605 445.516L265.696 445.4L265.978 445.226L266.07 445.118L266.89 444.712L267.006 444.62L267.487 444.529L267.678 444.43L268.3 444.455L268.449 444.538L268.615 444.546L268.731 444.637L269.585 445.052L269.676 445.159C270.207 445.441 270.347 445.582 270.969 445.665L271.193 445.574L271.649 445.466L271.74 445.375L272.138 445.184L272.221 445.077L272.495 444.894L272.578 444.77L273.141 444.297L273.233 444.189L273.324 444.073L273.697 443.791L273.78 443.675L274.07 443.501L274.153 443.385L274.543 443.195L274.642 443.095L274.899 442.979L274.999 442.888H275.098L275.206 442.797L275.38 442.788L275.496 442.697L276.275 442.581C276.524 442.473 276.748 442.424 276.988 442.622H277.254L277.411 442.705L277.859 442.821C277.991 442.813 277.958 442.78 277.967 442.913L278.713 443.327L278.812 443.435L279.202 443.642L279.293 443.75L279.484 443.841L279.583 443.941L279.674 443.949L279.774 444.048L279.857 444.057L279.956 444.156L280.462 444.247L280.653 444.355L280.993 444.347L281.142 444.264L281.565 444.148L281.664 444.048L281.863 443.957L281.946 443.849L282.593 443.153L282.692 443.054L282.792 442.954L282.966 442.672L283.074 442.573L283.637 441.976L283.72 441.868L283.985 441.76L284.102 441.669L284.342 441.652L284.549 441.578L284.831 441.561L285.047 441.661L285.295 441.677L285.411 441.769L285.801 441.876L285.901 441.968L286.265 442.084L286.373 442.175L286.738 442.291L286.854 442.382L287.036 442.39L287.161 442.482H287.434L287.608 442.598L288.23 442.581L288.371 442.498L288.537 442.49C288.537 442.349 288.504 442.39 288.645 442.399L288.927 442.299L289.018 442.191L289.499 441.901L289.582 441.793L289.673 441.694L289.764 441.586L290.809 440.616L290.9 440.492C291.173 440.285 291.298 440.168 291.629 440.102L291.77 440.019L292.475 440.028L292.608 440.119L292.881 440.226L292.972 440.334L293.163 440.425L293.254 440.55L293.942 441.13L294.034 441.238L294.108 441.255L294.224 441.346L294.979 441.163L295.07 441.056L295.161 440.948L295.733 440.475L295.824 440.359L295.907 440.243L295.99 440.152L296.098 440.044L296.77 439.48L296.852 439.364L297.043 439.273L297.134 439.165L297.317 439.074L297.408 438.975H297.507L297.599 438.875L297.682 438.867L297.781 438.776H297.963L298.088 438.684L299.083 438.693C299.232 438.684 299.199 438.643 299.199 438.784L299.481 438.892L299.572 439L300.152 439.397L300.243 439.522L300.724 439.82L300.824 439.92L301.329 440.003L302.075 440.036C302.59 440.019 302.755 439.845 303.186 439.638L303.269 439.53L303.651 439.248L303.75 439.14L304.297 438.336L304.397 438.245L304.48 438.038L304.571 437.938L304.654 437.822C305.085 437.598 305.433 437.557 305.79 437.971C306.188 438.444 305.989 438.801 305.831 439.265L305.798 439.207ZM304.032 430.104L303.933 430.203L303.767 430.51L303.651 430.601L303.004 431.289L302.913 431.405C302.565 431.621 302.374 431.812 301.968 431.894L301.86 431.986L300.882 432.077L300.716 431.994L300.301 431.87L300.194 431.778L299.796 431.579L299.704 431.472L299.423 431.273L299.331 431.148L298.942 430.858L298.85 430.75H298.734L298.461 430.717L297.789 431.032L297.706 431.14L297.516 431.231L297.425 431.347L297.151 431.53L297.06 431.646L296.761 431.828L296.67 431.953L296.297 432.234L296.206 432.35L295.65 432.74L295.559 432.848L295.368 432.939L295.277 433.039L294.622 433.337L294.515 433.428L293.992 433.544L293.851 433.627L292.848 433.611L292.707 433.528C292.135 433.403 291.878 433.097 291.397 432.798L291.306 432.682L291.016 432.491L290.925 432.375L290.717 432.284L290.618 432.185L290.004 432.093L289.855 432.176L289.689 432.185L289.582 432.276L288.636 432.765L288.554 432.873L288.355 432.964L288.263 433.08L287.899 433.362L287.807 433.478L287.418 433.76L287.327 433.884L286.954 434.166L286.862 434.282L285.843 434.97L285.751 435.07L285.66 435.078L285.569 435.178L285.204 435.277C285.204 435.418 285.237 435.377 285.096 435.368L284.856 435.377L284.682 435.451L284.118 435.443L283.919 435.377C283.413 435.302 283.082 435.086 282.634 434.846L282.543 434.738L282.162 434.531L282.062 434.423L281.606 434.208L281.482 434.116L281.142 434.125L281.009 434.208C280.603 434.307 280.437 434.489 280.081 434.705L279.998 434.813L279.708 434.995L279.625 435.111L279.442 435.211L279.351 435.318L279.053 435.493L278.97 435.6L278.878 435.609L278.787 435.708L278.414 435.907L278.315 436.007H278.215L278.124 436.098L277.776 436.214C277.776 436.355 277.809 436.313 277.651 436.305L276.275 436.487L276.035 436.396L275.703 436.38L275.562 436.297L275.38 436.288L275.264 436.197L275.115 436.181L274.999 436.09L274.824 436.081L274.717 435.99L274.36 435.874L274.244 435.783H274.045L273.871 435.667L273.44 435.692L273.282 435.766L273.141 435.783L273.017 435.874L272.934 435.882L272.843 435.982L272.652 436.073L272.561 436.172L272.47 436.28L271.251 437.466L271.16 437.565L271.069 437.665L270.878 437.764L270.787 437.872L270.14 438.17L270.024 438.262L269.792 438.278L269.502 438.345L269.104 438.353L268.888 438.245L268.64 438.237L268.524 438.146L268.341 438.137L268.233 438.046H268.134L268.034 437.947L267.28 437.524L267.189 437.416C266.55 437.084 266.584 437.002 265.862 437.209L265.763 437.3H265.655L265.572 437.399L265.489 437.408L265.398 437.507L265.199 437.598L265.108 437.714L264.096 438.809L263.997 438.908L263.897 439.008L263.359 439.804L263.251 439.903C262.894 440.591 262.098 440.616 261.742 439.903L261.651 439.787L261.717 439.091L261.816 438.991L262.09 438.494L262.198 438.394L262.546 437.905L262.662 437.806C262.994 437.275 263.557 436.678 264.047 436.313L264.13 436.189L264.411 436.007L264.503 435.899L264.892 435.708L264.983 435.609L265.083 435.6L265.174 435.509L265.937 435.31L266.144 435.211L266.965 435.31L267.089 435.401L267.247 435.418L267.355 435.517L267.446 435.526L267.545 435.625L267.636 435.634L267.728 435.733L268.598 436.239L268.698 436.338L269.154 436.454L269.46 436.446L270.016 436.247L270.107 436.148L270.207 436.048L271.525 434.771L271.616 434.647L271.898 434.465L271.989 434.365L272.089 434.373L272.188 434.266L272.445 434.158L272.544 434.058L272.71 434.05L272.818 433.959L273.1 433.967L273.299 433.868L274.029 433.876L274.227 433.984L274.999 434.191L275.115 434.282L275.28 434.29C275.43 434.282 275.396 434.232 275.405 434.382L275.562 434.39C275.72 434.373 275.687 434.332 275.687 434.481L275.844 434.498L276.002 434.572L276.988 434.597L277.113 434.514L277.27 434.498L277.37 434.407L277.643 434.307L277.734 434.208H277.834L277.925 434.108L278.124 434.017L278.207 433.909L278.406 433.826L278.497 433.71L278.771 433.528L278.862 433.42L279.053 433.329L279.144 433.221L279.326 433.13L279.417 433.03C279.907 432.79 280.238 432.541 280.794 432.425L280.968 432.35H281.755L281.896 432.433L282.045 432.45L282.153 432.541L282.825 432.856L282.908 432.964L283.115 433.055L283.206 433.163L283.853 433.478L283.977 433.569H284.715L284.831 433.478L285.188 433.362L285.287 433.262L285.494 433.18L285.577 433.063L285.859 432.881L285.95 432.765L286.406 432.384L286.498 432.259L286.978 431.886L287.061 431.77L287.343 431.579L287.426 431.463L288.197 430.983L288.28 430.883L288.371 430.875L288.462 430.784H288.57L288.661 430.692L289.018 430.585L289.126 430.493L289.3 430.485L289.416 430.394L290.717 430.303L290.875 430.377L291.588 430.709L291.679 430.817L291.878 430.908L291.969 431.024L292.268 431.215L292.359 431.331L292.641 431.521L292.732 431.637L293.022 431.737L293.122 431.828C293.661 431.845 293.669 431.762 294.141 431.637L294.241 431.546L294.631 431.356L294.722 431.248L294.912 431.148L295.004 431.032L295.385 430.767L295.468 430.651L295.742 430.452L295.841 430.352L295.932 430.245L296.214 430.054L296.297 429.938L296.579 429.755L296.67 429.639L296.869 429.548L296.952 429.44L297.325 429.25L297.425 429.15L297.773 429.034L297.889 428.943C298.958 428.81 298.627 428.786 299.605 429.159L299.696 429.266L299.895 429.358L299.995 429.482C300.268 429.747 300.591 430.046 300.948 430.187L301.097 430.278L301.611 430.195L301.702 430.095L301.893 430.004L301.984 429.896L302.092 429.797L302.175 429.714C302.175 429.565 302.142 429.606 302.274 429.606C302.706 428.951 302.83 428.57 303.667 428.611L303.775 428.703L303.858 428.711L303.949 428.827L304.04 428.918L304.148 429.009C304.339 429.606 304.281 429.615 304.065 430.12L304.032 430.104ZM301.52 420.304L301.412 420.404L301.246 420.702L301.139 420.793L300.691 421.39L300.583 421.506L299.937 422.087L299.845 422.203L299.663 422.294C299.663 422.443 299.704 422.41 299.572 422.402L298.734 422.8L298.593 422.883L298.378 422.908L298.229 422.99L297.856 422.982C297.665 423.231 297.143 423.106 296.927 422.982L296.579 422.974L296.438 422.891L296.272 422.883L296.148 422.791L295.302 422.377C295.169 422.377 295.211 422.41 295.203 422.261L294.921 422.07L294.821 421.962L294.722 421.863C294.108 421.515 294.158 421.639 293.586 421.954L293.495 422.062L293.205 422.244L293.122 422.36L292.649 422.75L292.558 422.858L292.467 422.957L292.376 423.073L291.895 423.438L291.812 423.554L291.348 423.853L291.256 423.952C290.61 424.275 290.336 424.375 289.59 424.325L289.441 424.242C289.034 424.176 288.935 424.06 288.603 423.828L288.504 423.72L288.404 423.621L288.031 423.214L287.924 423.115L287.824 422.999L287.642 423.09L287.559 423.214L286.431 424.284L286.34 424.4L286.249 424.516L285.959 424.698L285.867 424.814L285.677 424.897L285.586 425.005C285.188 425.245 284.831 425.453 284.367 425.494L284.176 425.594C283.248 425.577 283.074 425.527 282.203 425.37C282.037 425.386 282.062 425.436 282.062 425.279L281.714 425.163L281.606 425.071H281.507L281.407 424.972L281.332 424.964L281.233 424.864L281.15 424.856L281.051 424.756L280.669 424.657L280.537 424.566C280.139 424.615 279.973 424.93 279.732 425.262L279.616 425.353L279.177 425.958L279.069 426.05L278.978 426.157L278.505 426.539L278.422 426.655L278.232 426.738L278.141 426.846L278.058 426.854L277.958 426.953H277.867L277.776 427.053C277.096 427.243 276.897 427.335 276.151 427.318L275.944 427.252L275.612 427.235C275.454 427.243 275.479 427.293 275.479 427.144L275.338 427.127L275.206 427.036L274.551 426.721L274.451 426.622L274.078 426.414L273.987 426.315L273.78 426.215L273.689 426.108L273.498 426.008L273.407 425.9L272.768 425.585L272.611 425.502L271.898 425.494L271.757 425.577L271.541 425.602L271.409 425.685L270.563 426.075L270.472 426.191L270.19 426.373L270.099 426.472L270.008 426.58L269.535 426.962L269.452 427.078L269.361 427.185L268.988 427.459L268.897 427.575L268.698 427.666L268.606 427.766L267.769 428.164L267.653 428.255L267.487 428.263L267.355 428.354H267.172L267.015 428.47L265.705 428.437L265.564 428.354L265.323 428.33C265.174 428.346 265.199 428.388 265.199 428.238L264.528 427.932L264.436 427.824L263.674 427.409L263.541 427.326C263.102 427.326 262.828 427.484 262.455 427.699L262.372 427.807L262.09 427.99C262.09 428.139 262.132 428.106 261.991 428.097L261.899 428.197L261.816 428.305L261.709 428.404L261.535 428.703L261.435 428.794L261.261 429.217L261.17 429.316V429.416L261.079 429.515V429.623L260.987 429.722L260.896 429.905L260.797 430.021L260.614 430.112L260.498 430.203H260.067L259.943 430.112H259.843L259.752 429.996C259.495 429.731 259.537 429.814 259.47 429.474C259.222 429.3 259.387 429.183 259.454 429.084L259.462 428.91L259.545 428.794L259.827 428.106L259.918 428.006L260.001 427.791L260.1 427.691L260.183 427.492L260.274 427.393L260.374 427.293L261.103 426.497L261.186 426.381L261.667 426.091L261.75 425.992L262.223 425.793L262.322 425.701L262.762 425.594L262.903 425.511L263.881 425.527L264.03 425.61L264.196 425.619L264.304 425.71H264.403L264.494 425.809L264.586 425.818L264.685 425.917L265.348 426.323L265.456 426.423H265.556L265.663 426.514L265.829 426.53L265.962 426.613L266.716 426.622L266.882 426.539L267.048 426.53L267.156 426.439L267.612 426.232L267.703 426.124L268.01 425.958L268.092 425.842L268.466 425.56L268.557 425.453L268.648 425.345L269.12 424.972L269.203 424.856L269.668 424.557L269.759 424.458L269.941 424.367C269.941 424.226 269.908 424.251 270.041 424.259L270.149 424.267L270.24 424.176L270.779 423.969C270.779 423.828 270.745 423.869 270.895 423.878L271.06 423.869L271.193 423.786L271.392 423.761L271.574 423.687L272.826 423.703L272.984 423.786L273.432 423.902L273.539 423.994L273.813 424.101L273.904 424.201L273.995 424.209L274.087 424.309L274.277 424.4L274.368 424.508L274.584 424.599L274.675 424.707L274.874 424.806L274.965 424.914L275.338 425.129L275.438 425.229H275.537L275.637 425.328L276.143 425.428L276.648 425.461L276.847 425.444L276.972 425.362L277.428 425.154L277.519 425.046L278.257 424.251L278.348 424.151L278.447 424.052C278.754 423.596 279.069 423.189 279.575 422.966L279.666 422.866L280.76 422.775L280.885 422.874H281.059C281.208 422.866 281.175 422.825 281.175 422.966L282.286 423.496L282.394 423.587L282.85 423.703L282.991 423.786H283.878L284.044 423.712L284.184 423.695L284.301 423.604L284.757 423.397L284.839 423.289L285.138 423.115L285.221 422.999L286.605 421.606L286.696 421.49L286.895 421.399L286.987 421.299H287.086L287.186 421.2L287.335 421.183L287.468 421.1L288.073 421.108L288.214 421.2L288.487 421.307L288.578 421.423L289.142 422.029C289.283 422.029 289.25 421.996 289.25 422.145L289.747 422.427L290.013 422.435H290.195L290.286 422.335L290.775 422.054L290.858 421.937L291.339 421.556L291.43 421.448L291.522 421.332L292.085 420.851L292.168 420.727L292.45 420.545L292.541 420.437L292.923 420.238L293.014 420.138L293.097 420.13L293.196 420.039H293.296L293.395 419.948L293.851 419.848L294.05 419.74L294.481 419.765L294.614 419.848L294.796 419.857L294.888 419.956L294.979 419.964L295.078 420.064L295.659 420.462L295.75 420.578L296.032 420.777L296.123 420.885L296.595 421.092L296.728 421.175L297.043 421.2L297.607 421.175C298.179 421.15 298.303 420.968 298.784 420.711L298.867 420.594L299.688 419.707L299.804 419.608L299.97 419.293L300.086 419.202L300.26 419.003L300.351 418.895H300.434L300.558 418.804L300.998 418.812L301.106 418.903L301.387 419.11L301.503 419.21C301.702 419.782 301.653 419.823 301.429 420.321L301.52 420.304ZM299.655 410.795L299.389 411.301L299.282 411.392L298.933 411.898L298.826 411.989L298.734 412.088L298.652 412.204L298.361 412.387L298.27 412.495L298.088 412.586C298.088 412.727 298.121 412.694 297.988 412.685H297.897L297.798 412.776L297.358 412.884L297.217 412.967L296.421 412.959L296.264 412.876L295.833 412.752L295.733 412.652L295.352 412.453L295.261 412.345L294.954 412.155L294.871 412.039L294.78 411.931L294.473 411.748L294.382 411.641L294.291 411.632L294.175 411.541L294.125 411.549C294.125 411.707 294.158 411.649 293.984 411.632L293.437 411.84L293.346 411.939L293.147 412.022L293.064 412.13L292.873 412.229L292.79 412.345L292.4 412.619L292.309 412.727L292.226 412.843L291.853 413.125L291.77 413.241L291.372 413.506L291.289 413.622L291.09 413.713L291.008 413.821L290.179 414.227L290.046 414.31L289.797 414.327L289.665 414.41H288.686L288.529 414.327L288.297 414.302L288.156 414.219L287.99 414.211L287.882 414.111L287.426 413.896L287.318 413.788H287.227L287.128 413.68L286.456 413.274L286.357 413.166C285.809 412.851 285.801 412.926 285.229 413.058L285.13 413.15L284.665 413.357L284.574 413.456L284.375 413.547L284.292 413.655L284.019 413.838L283.927 413.962L283.538 414.236L283.455 414.36L282.991 414.741L282.899 414.866L282.609 415.048L282.518 415.156L281.573 415.744L281.482 415.844L281.134 415.96L281.017 416.043H280.835L280.702 416.134L280.479 416.151L280.313 416.225L279.417 416.217L279.26 416.134L279.036 416.109L278.912 416.018L278.53 415.91L278.439 415.811L278.348 415.802L278.248 415.703L278.049 415.612L277.958 415.504L277.577 415.297L277.486 415.189C276.731 414.799 276.657 414.915 275.968 415.272L275.886 415.388L275.612 415.579L275.521 415.703L275.131 415.977L275.04 416.084L274.957 416.192L274.758 416.275L274.667 416.391C274.302 416.673 273.888 416.971 273.456 417.071L273.34 417.162L273.191 417.179L273.075 417.27L272.81 417.278L272.586 417.369L271.89 417.361L271.682 417.262H271.392L271.243 417.179L270.522 416.955L270.414 416.864L269.792 416.632L269.659 416.54L269.46 416.549L269.278 416.433L268.532 416.532L268.432 416.632L268.159 416.731L268.068 416.847L266.575 418.323L266.484 418.439L266.293 418.53L266.21 418.63L265.746 418.829L265.63 418.92L265.489 418.936L265.34 419.019L264.428 419.011L264.271 418.936L264.055 418.903L263.939 418.812L263.259 418.505L263.168 418.397L262.786 418.19L262.687 418.091L262.405 417.983L262.297 417.892L261.659 417.883L261.51 417.966L261.162 418.074L261.07 418.182L260.598 418.472L260.507 418.58L260.424 418.696L259.785 419.392L259.669 419.483L259.404 419.881L259.296 419.973L259.13 420.296L259.023 420.387L258.931 420.578L258.832 420.669L258.666 420.976L258.567 421.092L257.854 421.266L257.713 421.183H257.63L257.539 421.067C257.132 420.686 257.124 420.487 257.24 419.973L257.323 419.873V419.765L257.422 419.666L257.58 419.351L257.688 419.26L257.779 419.069L257.887 418.978L258.135 418.563L258.252 418.472L258.782 417.759L258.882 417.643L259.545 417.063L259.636 416.963L259.727 416.864L259.91 416.764L259.993 416.656L260.183 416.565L260.274 416.466H260.366L260.457 416.366H260.556L260.656 416.267H260.755L260.855 416.176L261.021 416.159L261.137 416.068L261.286 416.051L261.427 415.968L262.745 416.076L262.853 416.167L263.317 416.383L263.408 416.482L263.79 416.69L263.881 416.789L264.353 417.005L264.469 417.096L264.644 417.104H265.025L265.597 416.814L265.688 416.706L265.779 416.607L265.871 416.507L265.962 416.408L266.061 416.308L266.426 415.919L266.517 415.811L266.617 415.711L266.708 415.604L266.998 415.421L267.081 415.313L267.255 415.214C267.255 415.073 267.222 415.106 267.355 415.114H267.446L267.537 415.015L267.628 415.007L267.728 414.907L267.835 414.915L267.935 414.824L268.109 414.816L268.25 414.733L268.532 414.7L268.731 414.634L269.361 414.65L269.552 414.716L269.775 414.733L269.908 414.824L270.663 415.04L270.779 415.131L270.936 415.148L271.044 415.239L271.226 415.247L271.334 415.338L271.516 415.347L271.641 415.438H272.611L272.743 415.355L273.415 415.065L273.506 414.957L273.68 414.857L273.771 414.741L274.244 414.368L274.327 414.252L274.982 413.763L275.073 413.655L275.454 413.465L275.546 413.365L276.192 413.166L276.342 413.083L277.237 413.091C277.386 413.075 277.353 413.033 277.353 413.183L278.224 413.597L278.315 413.697L278.505 413.796L278.597 413.904L278.688 413.912L278.787 414.02L279.252 414.227C279.409 414.219 279.376 414.169 279.384 414.318H279.567L280.031 414.335H280.288L280.421 414.252L280.595 414.244L280.694 414.153H280.794L280.877 414.053H280.976L281.075 413.954L281.241 413.854L281.332 413.746L281.531 413.655L281.623 413.556L281.714 413.448L282.095 413.166L282.186 413.058L282.278 412.951L282.734 412.569L282.825 412.445L283.115 412.271L283.206 412.155L283.397 412.063L283.48 411.956L283.845 411.757L283.936 411.657L284.234 411.566L284.325 411.467H284.417L284.524 411.375L284.665 411.359L284.798 411.276L284.964 411.268L285.113 411.193L285.453 411.185C285.718 410.986 285.785 410.994 286.066 411.168L286.365 411.201L286.481 411.292L286.962 411.5L287.053 411.607L287.235 411.707L287.335 411.815L287.534 411.906L287.633 412.005L288.396 412.42L288.512 412.511L288.661 412.536L288.802 412.627H289.308L289.432 412.544L289.606 412.536L289.723 412.445L289.822 412.453L289.913 412.354L290.751 411.765L290.833 411.657L290.916 411.541L291.389 411.168L291.472 411.044L291.845 410.77L291.936 410.654L292.143 410.571L292.226 410.463L292.409 410.364L292.5 410.256H292.591L292.691 410.157L293.138 409.949C293.138 409.808 293.105 409.85 293.246 409.858L293.404 409.85L293.553 409.767L294.465 409.775L294.589 409.866L294.954 409.983L295.045 410.09L295.244 410.181L295.335 410.298L295.824 410.687L295.916 410.803L296.214 410.986L296.314 411.093L296.852 411.193L296.969 411.102H297.06L297.151 410.994C297.532 410.745 297.748 410.497 297.972 410.09L298.079 409.991C298.477 409.477 298.477 409.369 299.182 409.41L299.29 409.51L299.389 409.502L299.481 409.609L299.563 409.709L299.68 409.808C299.845 410.206 299.829 410.322 299.688 410.712L299.597 410.812L299.655 410.795ZM297.507 400.996C297.516 401.136 297.549 401.095 297.416 401.095L297.333 401.302L297.234 401.402L297.143 401.601L297.043 401.692L296.877 402.007L296.77 402.098L295.924 402.985L295.841 403.101L295.659 403.201L295.567 403.309L294.912 403.607L294.805 403.698L294.647 403.707C294.647 403.847 294.68 403.806 294.531 403.798L294.282 403.814L294.141 403.897L293.652 403.914C293.404 404.046 293.37 404.055 293.097 403.897L292.691 403.872L292.525 403.789L292.268 403.773L292.135 403.682L291.978 403.665C291.837 403.673 291.87 403.715 291.87 403.574L291.207 403.259L291.115 403.151C290.626 402.869 290.51 402.546 289.913 402.546L289.764 402.629L289.399 402.737L289.316 402.836L288.844 403.126L288.753 403.242L288.363 403.516L288.28 403.64L287.807 404.005L287.716 404.138L287.351 404.42L287.26 404.536L287.061 404.618L286.97 404.735L286.779 404.826L286.688 404.925L286.406 405.025L286.299 405.116L285.876 405.232L285.718 405.307L285.204 405.298L285.055 405.215L284.325 404.892L284.234 404.776L283.355 403.98L283.256 403.881H283.181L283.074 403.972L282.883 404.063L282.8 404.179L282.709 404.279L282.609 404.37L282.518 404.469L282.435 404.585L281.689 405.273L281.606 405.381L281.515 405.489L281.316 405.58L281.233 405.688L281.042 405.779L280.951 405.879L280.487 406.078L280.387 406.169L279.923 406.268L279.782 406.351L279.459 406.36C279.185 406.525 278.961 406.517 278.68 406.351L278.29 406.36L278.124 406.243H277.85C277.701 406.252 277.734 406.293 277.734 406.152L277.361 406.044L277.262 405.945L277.179 405.937L277.079 405.837H276.972C276.839 405.846 276.872 405.879 276.872 405.738L276.599 405.63L276.499 405.53L276.408 405.522L276.308 405.431L275.828 405.323L275.363 405.92L275.256 406.011L274.999 406.434L274.899 406.534L274.8 406.633L274.053 407.421L273.962 407.537L273.78 407.628L273.697 407.736C273.307 407.935 273.034 408.101 272.586 408.125L272.379 408.225L271.434 408.208L271.226 408.101L270.903 408.084L270.762 408.001L270.588 407.993L270.48 407.902L270.099 407.794L269.999 407.694L269.916 407.686L269.817 407.587L269.535 407.479L269.444 407.371L268.955 407.081L268.863 406.965L268.664 406.874L268.573 406.766L268.374 406.666L268.283 406.567L268.209 406.55L268.109 406.451H268.01L267.885 406.36L267.089 406.343C267.089 406.492 267.122 406.442 266.957 406.426L266.791 406.434L266.683 406.525L266.608 406.534L266.517 406.633L266.409 406.625L266.318 406.733L266.136 406.832L266.045 406.923L265.953 407.031L265.141 407.935L265.033 408.034L264.934 408.125L264.843 408.225L264.751 408.324L264.66 408.424L264.569 408.532L264.271 408.714L264.188 408.822L263.483 409.137L263.317 409.211L262.521 409.203L262.372 409.12L262.214 409.104L262.115 409.004L262.032 408.996L261.924 408.896L261.825 408.905L261.734 408.805L261.361 408.598L261.269 408.49L261.07 408.399L260.971 408.291H260.88L260.772 408.192L260.606 408.183L260.473 408.092L259.951 408.084L259.81 408.167L259.653 408.175L259.545 408.266L258.517 408.855L258.426 408.963L258.343 409.079L257.887 409.568L257.779 409.659L257.688 409.759L257.522 410.065L257.414 410.157L257.34 410.38L257.24 410.48L257.157 410.679L257.058 410.787C256.668 411.027 256.676 410.977 256.212 410.952C256.079 410.961 256.113 410.994 256.104 410.853L255.715 410.455C255.582 410.455 255.615 410.488 255.623 410.339C255.599 409.684 255.632 409.784 255.889 409.245L255.98 409.153L256.063 408.938C256.055 408.789 256.021 408.83 256.162 408.83L256.519 408.341L256.627 408.258L256.726 408.159L256.809 408.059L256.9 407.96L256.983 407.852L257.074 407.736L257.547 407.363L257.63 407.247L257.82 407.155L257.903 407.048L258.276 406.849C258.276 406.708 258.243 406.741 258.376 406.749H258.467L258.567 406.658H258.666L258.757 406.558C259.711 406.31 259.702 406.21 260.797 406.277C260.971 406.26 260.938 406.21 260.938 406.36L261.103 406.368C261.244 406.36 261.211 406.318 261.211 406.467H261.302L261.402 406.567L261.477 406.575L261.576 406.675H261.667L261.767 406.774L262.165 406.973L262.264 407.073L262.339 407.081L262.447 407.18L263.11 407.288L263.201 407.189C263.773 406.832 264.179 405.995 264.793 405.597L264.884 405.481L265.149 405.282L265.232 405.174L265.63 405L265.73 404.9C266.7 404.486 267.048 404.444 268.142 404.519L268.275 404.61L268.416 404.627L268.54 404.726L269.212 405.033L269.311 405.133L269.684 405.34L269.775 405.448C270.323 405.779 270.629 406.144 271.284 406.268L271.45 406.343L272.155 406.368L272.329 406.252L272.826 406.078L272.909 405.97L273.639 405.174L273.747 405.083L273.912 404.768L274.012 404.668L274.111 404.577L274.758 403.881L274.841 403.773L275.314 403.574L275.43 403.483L276.648 403.59L276.748 403.682L277.685 404.113L277.784 404.212L278.165 404.32L278.298 404.411L278.447 404.428L278.597 404.511H279.467L279.591 404.428L279.973 404.328L280.064 404.237L280.139 404.221L280.23 404.121L280.421 404.03L280.503 403.914C281.241 403.391 281.946 402.148 282.825 402.032L282.999 401.957L283.38 401.966L283.538 402.04L283.695 402.057L283.803 402.156H283.903L284.002 402.256L284.193 402.355L284.284 402.48L285.163 403.275L285.254 403.375C285.851 403.433 285.826 403.292 286.29 402.994L286.373 402.877L286.846 402.496L286.929 402.38L287.02 402.264L287.409 401.99L287.492 401.874L287.774 401.692L287.865 401.576L288.338 401.286L288.438 401.186L288.52 401.178L288.612 401.078H288.703L288.802 400.979L289.573 400.797L289.781 400.705H290.386L290.535 400.788L291.256 401.12L291.348 401.228L291.563 401.319L291.654 401.418L291.853 401.51L291.944 401.617L292.4 401.833L292.508 401.924L292.666 401.932L292.823 402.015L294.199 401.941L294.307 401.849L294.564 401.742L294.664 401.634L294.946 401.451L295.029 401.319L295.211 401.136L295.31 401.037C295.302 400.896 295.269 400.929 295.41 400.929L295.584 400.622L295.692 400.531L295.783 400.332L295.882 400.241L296.048 399.918L296.148 399.818L296.239 399.71L296.521 399.619C296.645 399.52 296.736 399.362 296.886 399.636C297.226 399.702 297.118 399.652 297.383 399.934L297.483 400.034L297.491 400.133L297.574 400.258L297.499 400.954L297.507 400.996Z" fill="#FEFEFE"/>
<path fill-rule="evenodd" clip-rule="evenodd" d="M93.0028 210.188L99.6933 197.893C99.6933 197.893 100.1 196.815 100.298 195.29H90.9136L82.9629 210.188H93.0028ZM100.34 192.405C100.141 190.763 99.4943 189.055 97.9605 187.762C97.9605 187.762 104.137 181.395 109.012 174.066H102.545C100.274 177.432 99.2539 179.687 99.2539 179.687L92.4639 192.405H100.348H100.34ZM110.819 171.181C113.016 167.442 114.649 163.645 114.782 160.453C110.405 164.167 107.055 167.956 104.61 171.181H110.819ZM506.976 187.77C505.434 189.064 504.787 190.772 504.588 192.413H511.047L504.257 179.695C504.257 179.695 503.237 177.449 500.965 174.074H495.925C500.791 181.403 506.968 187.77 506.968 187.77H506.976ZM504.63 195.298C504.829 196.815 505.235 197.901 505.235 197.901L511.925 210.196H520.539L512.589 195.298H504.63ZM498.901 171.181C496.754 168.354 493.918 165.096 490.304 161.829C490.76 164.714 492.235 167.964 494.117 171.181H498.901ZM460.482 153.373C455.085 157.966 457.108 165.411 460.018 171.181H469.544L460.482 153.373ZM461.618 174.066C463.542 177.274 465.357 179.471 465.357 179.471L464.197 182.846L469.27 192.397H480.347L471.011 174.058H461.61L461.618 174.066ZM470.804 195.29L478.722 210.188H489.4L481.814 195.29H470.804ZM492.509 210.188H503.187L495.51 195.29H484.931L492.517 210.188H492.509ZM494.018 192.405L487.17 179.115C487.17 179.115 486.308 177.076 484.55 174.074H474.129L483.464 192.413H494.026L494.018 192.405ZM482.743 171.181C478.946 165.436 472.645 157.924 463.641 153.464L472.653 171.181H482.743ZM411.767 146.492C397.557 149.974 396.786 161.987 398.502 171.181H420.754L411.759 146.492H411.767ZM399.14 174.066C400.367 178.924 402.026 182.44 402.026 182.44L400.475 188.989L401.628 192.405H428.481L421.807 174.066H399.14ZM402.614 195.29L407.663 210.188H434.964L429.542 195.29H402.623H402.614ZM437.916 210.188H465.216L457.655 195.29H432.493L437.916 210.188ZM456.188 192.405L446.878 174.066H424.758L431.432 192.405H456.18H456.188ZM445.278 171.181C442.815 167.475 433.671 154.84 419.56 148.49C417.637 147.727 416.004 147.138 414.81 146.732L423.714 171.173H445.278V171.181ZM311.153 167.583V171.181H345.824L343.353 142.272C315.613 147.719 311.153 167.583 311.153 167.583ZM311.153 174.066V192.405H347.639L346.073 174.066H311.153ZM311.153 195.29V210.188H349.157L347.88 195.29H311.144H311.153ZM351.942 210.188H389.946L385.925 195.29H350.665L351.942 210.188ZM385.146 192.405L380.197 174.066H348.858L350.425 192.405H385.146ZM379.417 171.181L378.696 168.495C378.696 168.495 367.412 144.983 346.131 142.172L348.609 171.181H379.417ZM224.79 168.495L224.068 171.181H255.73L258.325 142.048C236.413 144.253 224.79 168.495 224.79 168.495ZM223.281 174.074L218.331 192.413H253.832L255.465 174.074H223.281ZM217.552 195.298L213.531 210.196H252.248L253.575 195.298H217.552ZM255.034 210.196H293.751V195.298H256.36L255.034 210.196ZM293.751 192.413V174.074H258.25L256.617 192.413H293.751ZM293.751 171.189V167.591C293.751 167.591 289.257 147.503 261.094 142.181L258.507 171.181H293.751V171.189ZM156.6 174.074L147.289 192.413H172.692L179.299 174.074H156.6ZM145.822 195.298L138.261 210.196H166.275L171.647 195.298H145.822ZM180.344 171.181L189.223 146.55C187.996 146.956 186.164 147.603 183.925 148.49C169.815 154.84 160.67 167.475 158.208 171.181H180.344ZM169.235 210.188H197.248L202.289 195.29H174.599L169.226 210.188H169.235ZM203.276 192.405L204.428 188.989L202.878 182.44C202.878 182.44 204.536 178.924 205.763 174.066H182.251L175.643 192.405H203.267H203.276ZM206.41 171.181C208.167 161.804 207.33 149.484 192.274 146.284L183.295 171.181H206.401H206.41ZM126.198 210.188L134.116 195.29H122.385L114.815 210.188H126.207H126.198ZM135.649 192.405L140.723 182.854L139.563 179.48C139.563 179.48 141.378 177.283 143.31 174.074H133.171L123.852 192.413H135.649V192.405ZM144.91 171.181C147.92 165.228 149.984 157.477 143.915 152.933L134.638 171.181H144.902H144.91ZM140.765 153.016C131.264 157.41 124.664 165.237 120.743 171.181H131.529L140.765 153.016ZM118.944 174.066C117.186 177.067 116.324 179.107 116.324 179.107L109.476 192.397H120.743L130.062 174.058H118.944V174.066ZM107.984 195.29L100.307 210.188H111.698L119.276 195.29H107.992H107.984Z" fill="#65FDF1"/>
<path d="M96.248 248.4H117.496C124.749 248.4 130.04 250.107 133.368 253.52C136.696 256.848 138.36 262.011 138.36 269.008V272.592C138.36 277.2 137.592 280.955 136.056 283.856C134.605 286.757 132.344 288.848 129.272 290.128V290.384C136.269 292.773 139.768 299.003 139.768 309.072V316.752C139.768 323.664 137.933 328.955 134.264 332.624C130.68 336.208 125.389 338 118.392 338H96.248V248.4ZM115.832 284.88C118.648 284.88 120.739 284.155 122.104 282.704C123.555 281.253 124.28 278.821 124.28 275.408V270.416C124.28 267.173 123.683 264.827 122.488 263.376C121.379 261.925 119.587 261.2 117.112 261.2H110.328V284.88H115.832ZM118.392 325.2C120.867 325.2 122.701 324.56 123.896 323.28C125.091 321.915 125.688 319.611 125.688 316.368V308.56C125.688 304.464 124.963 301.648 123.512 300.112C122.147 298.491 119.843 297.68 116.6 297.68H110.328V325.2H118.392ZM168.35 339.28C161.438 339.28 156.147 337.317 152.478 333.392C148.809 329.467 146.974 323.92 146.974 316.752V269.648C146.974 262.48 148.809 256.933 152.478 253.008C156.147 249.083 161.438 247.12 168.35 247.12C175.262 247.12 180.553 249.083 184.222 253.008C187.891 256.933 189.726 262.48 189.726 269.648V316.752C189.726 323.92 187.891 329.467 184.222 333.392C180.553 337.317 175.262 339.28 168.35 339.28ZM168.35 326.48C173.214 326.48 175.646 323.536 175.646 317.648V268.752C175.646 262.864 173.214 259.92 168.35 259.92C163.486 259.92 161.054 262.864 161.054 268.752V317.648C161.054 323.536 163.486 326.48 168.35 326.48ZM196.432 325.456L222.544 261.2H197.712V248.4H237.648V260.944L211.536 325.2H237.648V338H196.432V325.456ZM265.975 339.28C259.063 339.28 253.772 337.317 250.103 333.392C246.434 329.467 244.599 323.92 244.599 316.752V269.648C244.599 262.48 246.434 256.933 250.103 253.008C253.772 249.083 259.063 247.12 265.975 247.12C272.887 247.12 278.178 249.083 281.847 253.008C285.516 256.933 287.351 262.48 287.351 269.648V316.752C287.351 323.92 285.516 329.467 281.847 333.392C278.178 337.317 272.887 339.28 265.975 339.28ZM265.975 326.48C270.839 326.48 273.271 323.536 273.271 317.648V268.752C273.271 262.864 270.839 259.92 265.975 259.92C261.111 259.92 258.679 262.864 258.679 268.752V317.648C258.679 323.536 261.111 326.48 265.975 326.48ZM296.873 248.4H317.737C324.99 248.4 330.281 250.107 333.609 253.52C336.937 256.848 338.601 262.011 338.601 269.008V274.512C338.601 283.813 335.529 289.701 329.385 292.176V292.432C332.798 293.456 335.188 295.547 336.553 298.704C338.004 301.861 338.729 306.085 338.729 311.376V327.12C338.729 329.68 338.814 331.771 338.985 333.392C339.156 334.928 339.582 336.464 340.265 338H325.929C325.417 336.549 325.076 335.184 324.905 333.904C324.734 332.624 324.649 330.32 324.649 326.992V310.608C324.649 306.512 323.966 303.653 322.601 302.032C321.321 300.411 319.06 299.6 315.817 299.6H310.953V338H296.873V248.4ZM316.073 286.8C318.889 286.8 320.98 286.075 322.345 284.624C323.796 283.173 324.521 280.741 324.521 277.328V270.416C324.521 267.173 323.924 264.827 322.729 263.376C321.62 261.925 319.828 261.2 317.353 261.2H310.953V286.8H316.073Z" fill="black"/>
<path d="M383.128 248.4H402.2L416.792 338H402.712L400.152 320.208V320.464H384.152L381.592 338H368.536L383.128 248.4ZM398.488 308.304L392.216 264.016H391.96L385.816 308.304H398.488ZM423.623 248.4H444.359C451.356 248.4 456.604 250.277 460.103 254.032C463.602 257.787 465.351 263.291 465.351 270.544V279.376C465.351 286.629 463.602 292.133 460.103 295.888C456.604 299.643 451.356 301.52 444.359 301.52H437.703V338H423.623V248.4ZM444.359 288.72C446.663 288.72 448.37 288.08 449.479 286.8C450.674 285.52 451.271 283.344 451.271 280.272V269.648C451.271 266.576 450.674 264.4 449.479 263.12C448.37 261.84 446.663 261.2 444.359 261.2H437.703V288.72H444.359ZM472.998 248.4H493.734C500.731 248.4 505.979 250.277 509.478 254.032C512.977 257.787 514.726 263.291 514.726 270.544V279.376C514.726 286.629 512.977 292.133 509.478 295.888C505.979 299.643 500.731 301.52 493.734 301.52H487.078V338H472.998V248.4ZM493.734 288.72C496.038 288.72 497.745 288.08 498.854 286.8C500.049 285.52 500.646 283.344 500.646 280.272V269.648C500.646 266.576 500.049 264.4 498.854 263.12C497.745 261.84 496.038 261.2 493.734 261.2H487.078V288.72H493.734Z" fill="#06B2B6"/>
</g>
</g>
<defs>
<clipPath id="clip0_191_103">
<rect width="610" height="611" fill="white"/>
</clipPath>
</defs>
</svg>
