<svg width="610" height="611" viewBox="0 0 610 611" fill="none" xmlns="http://www.w3.org/2000/svg">
<g clip-path="url(#clip0_1978_43541)">
<path d="M476.857 0.000976562H132.682C59.4039 0.000976562 0 59.5125 0 132.924V477.704C0 551.115 59.4039 610.627 132.682 610.627H476.857C550.136 610.627 609.539 551.115 609.539 477.704V132.924C609.539 59.5125 550.136 0.000976562 476.857 0.000976562Z" fill="#FEFEFE"/>
<path d="M70.6777 214.238H75.6769L83.1716 203.327C83.1716 203.327 83.1882 203.311 83.1965 203.303C83.8266 200.127 83.3043 198.32 82.7322 197.367C82.4835 197.06 82.2016 196.745 81.87 196.421C82.3509 194.506 84.7883 191.447 88.1294 187.965C95.906 177.991 109.759 161.883 122.908 155.134H129.143C129.143 155.134 186.273 89.0917 280.628 74.3593C280.628 74.3593 285.752 69.4181 296.48 67.9258V67.8181C298.08 67.644 299.597 67.5528 301.048 67.5196V67.5113C301.28 67.5113 301.529 67.5113 301.761 67.5196C302.001 67.5196 302.242 67.5113 302.474 67.5113C304.348 67.503 306.337 67.5859 308.468 67.8181V67.9258C319.196 69.4264 324.32 74.3593 324.32 74.3593C418.675 89.0917 475.805 155.134 475.805 155.134H480.613H482.039C501.754 165.265 523.078 196.413 523.078 196.413C518.584 200.857 521.776 203.319 521.776 203.319L529.271 214.23H534.27V217.123H70.6943V214.23L70.6777 214.238ZM70.6777 226.682H534.253V229.567H70.6777V226.682ZM70.6777 220.464H534.253V223.358H70.6777V220.464ZM82.9727 214.246H93.0125L99.703 201.951C99.703 201.951 102.165 195.352 97.962 191.82C97.962 191.82 114.344 174.941 114.784 164.503C114.784 164.503 114.411 164.793 113.747 165.332C114.402 164.801 114.784 164.503 114.784 164.503C103.741 173.863 99.2553 183.745 99.2553 183.745L82.9727 214.246ZM100.317 214.246H126.208L140.733 186.912L139.572 183.538C139.572 183.538 155.814 163.898 142.764 156.22C124.666 163.334 116.334 183.173 116.334 183.173L100.317 214.254V214.246ZM138.279 214.246H197.267L204.446 193.047L202.896 186.498C202.896 186.498 217.976 154.579 190.908 150.077C190.908 150.077 188.139 150.881 183.944 152.548C167.288 160.042 157.555 176.284 157.555 176.284L138.279 214.246ZM213.549 214.246H293.769V171.641C293.769 171.641 289.126 150.906 259.736 145.99C236.912 147.267 224.799 172.553 224.799 172.553L213.541 214.246H213.549ZM311.171 214.246H389.973L378.714 172.553C378.714 172.553 366.941 147.996 344.747 146.073C315.78 151.122 311.179 171.641 311.179 171.641V214.246H311.171ZM407.673 214.246H465.234L445.959 176.284C445.959 176.284 436.226 160.042 419.57 152.548C416.469 151.312 414.14 150.558 413.145 150.243C387.295 155.292 402.044 186.498 402.044 186.498L400.493 193.047L407.673 214.246ZM478.723 214.246H503.189L487.171 183.165C487.171 183.165 479.096 163.98 461.611 156.577C449.632 164.486 465.359 183.53 465.359 183.53L464.198 186.904L478.723 214.238V214.246ZM511.927 214.246H520.541L504.258 183.745C504.258 183.745 500.196 174.816 490.305 165.887C491.98 176.358 506.977 191.82 506.977 191.82C502.774 195.352 505.236 201.951 505.236 201.951L511.927 214.246Z" fill="#06B2B6"/>
<mask id="mask0_1978_43541" style="mask-type:luminance" maskUnits="userSpaceOnUse" x="70" y="67" width="465" height="163">
<path d="M70.6777 214.238H75.6769L83.1716 203.327C83.1716 203.327 83.1882 203.311 83.1965 203.303C83.8266 200.127 83.3043 198.32 82.7322 197.367C82.4835 197.06 82.2016 196.745 81.87 196.421C82.3509 194.506 84.7883 191.447 88.1294 187.965C95.906 177.991 109.759 161.883 122.908 155.134H129.143C129.143 155.134 186.273 89.0917 280.628 74.3593C280.628 74.3593 285.752 69.4181 296.48 67.9258V67.8181C298.08 67.644 299.597 67.5528 301.048 67.5196V67.5113C301.28 67.5113 301.529 67.5113 301.761 67.5196C302.001 67.5196 302.242 67.5113 302.474 67.5113C304.348 67.503 306.337 67.5859 308.468 67.8181V67.9258C319.196 69.4264 324.32 74.3593 324.32 74.3593C418.675 89.0917 475.805 155.134 475.805 155.134H480.613H482.039C501.754 165.265 523.078 196.413 523.078 196.413C518.584 200.857 521.776 203.319 521.776 203.319L529.271 214.23H534.27V217.123H70.6943V214.23L70.6777 214.238ZM70.6777 226.682H534.253V229.567H70.6777V226.682ZM70.6777 220.464H534.253V223.358H70.6777V220.464ZM82.9727 214.246H93.0125L99.703 201.951C99.703 201.951 102.165 195.352 97.962 191.82C97.962 191.82 114.344 174.941 114.784 164.503C114.784 164.503 114.411 164.793 113.747 165.332C114.402 164.801 114.784 164.503 114.784 164.503C103.741 173.863 99.2553 183.745 99.2553 183.745L82.9727 214.246ZM100.317 214.246H126.208L140.733 186.912L139.572 183.538C139.572 183.538 155.814 163.898 142.764 156.22C124.666 163.334 116.334 183.173 116.334 183.173L100.317 214.254V214.246ZM138.279 214.246H197.267L204.446 193.047L202.896 186.498C202.896 186.498 217.976 154.579 190.908 150.077C190.908 150.077 188.139 150.881 183.944 152.548C167.288 160.042 157.555 176.284 157.555 176.284L138.279 214.246ZM213.549 214.246H293.769V171.641C293.769 171.641 289.126 150.906 259.736 145.99C236.912 147.267 224.799 172.553 224.799 172.553L213.541 214.246H213.549ZM311.171 214.246H389.973L378.714 172.553C378.714 172.553 366.941 147.996 344.747 146.073C315.78 151.122 311.179 171.641 311.179 171.641V214.246H311.171ZM407.673 214.246H465.234L445.959 176.284C445.959 176.284 436.226 160.042 419.57 152.548C416.469 151.312 414.14 150.558 413.145 150.243C387.295 155.292 402.044 186.498 402.044 186.498L400.493 193.047L407.673 214.246ZM478.723 214.246H503.189L487.171 183.165C487.171 183.165 479.096 163.98 461.611 156.577C449.632 164.486 465.359 183.53 465.359 183.53L464.198 186.904L478.723 214.238V214.246ZM511.927 214.246H520.541L504.258 183.745C504.258 183.745 500.196 174.816 490.305 165.887C491.98 176.358 506.977 191.82 506.977 191.82C502.774 195.352 505.236 201.951 505.236 201.951L511.927 214.246Z" fill="white"/>
</mask>
<g mask="url(#mask0_1978_43541)">
<path d="M160.987 152.382C160.763 152.63 160.456 152.746 160.158 152.746C159.868 152.746 159.569 152.63 159.345 152.39C158.889 151.917 158.881 151.138 159.329 150.657C159.445 150.533 171.251 137.915 192.217 122.527C211.559 108.334 242.906 88.7847 282.402 76.2659C283.016 76.0752 283.662 76.44 283.845 77.0867C284.027 77.7333 283.679 78.4215 283.065 78.6121C208.044 102.39 161.443 151.876 160.979 152.365L160.987 152.382ZM303.618 151.519C303.618 152.199 303.096 152.746 302.457 152.746C301.81 152.746 301.296 152.199 301.296 151.519V77.4515C301.296 76.7716 301.81 76.2245 302.457 76.2245C303.096 76.2245 303.618 76.7716 303.618 77.4515V151.519ZM443.828 152.398C443.646 152.589 443.413 152.68 443.173 152.713C442.933 152.68 442.692 152.581 442.51 152.382C442.054 151.884 395.453 102.406 320.423 78.6287C319.809 78.438 319.461 77.7499 319.644 77.1033C319.776 76.6307 320.158 76.3074 320.589 76.241C320.647 76.2493 320.705 76.2576 320.763 76.2825C360.259 88.8013 391.606 108.35 410.948 122.544C431.923 137.931 443.72 150.549 443.836 150.674C444.284 151.155 444.276 151.934 443.82 152.407L443.828 152.398ZM307.73 76.9209C307.904 76.5395 308.236 76.2991 308.6 76.241C308.717 76.2576 308.841 76.2908 308.957 76.3488C338.496 91.4459 358.186 110.912 369.503 124.575C381.79 139.407 387.004 150.516 387.22 150.981C387.502 151.586 387.261 152.324 386.689 152.622C386.582 152.68 386.474 152.713 386.358 152.73C385.985 152.68 385.636 152.448 385.462 152.067C385.413 151.959 380.132 140.725 368.019 126.117C356.852 112.645 337.418 93.4606 308.269 78.5624C307.688 78.2639 307.448 77.5344 307.73 76.9209ZM295.228 78.5624C266.078 93.4606 246.645 112.645 235.478 126.117C223.365 140.725 218.092 151.951 218.034 152.067C217.835 152.498 217.421 152.755 216.99 152.755C216.816 152.755 216.641 152.713 216.476 152.63C215.904 152.332 215.663 151.594 215.945 150.989C216.161 150.525 221.375 139.415 233.662 124.583C244.979 110.912 264.669 91.4542 294.208 76.3571C294.78 76.0586 295.476 76.3157 295.758 76.9292C296.032 77.5427 295.792 78.2722 295.219 78.5707L295.228 78.5624Z" fill="#FEFEFE"/>
</g>
<path fill-rule="evenodd" clip-rule="evenodd" d="M239.772 397.128H306.312H328.008H402.507C404.704 397.128 406.885 396.854 408.692 398.23C408.883 398.38 408.932 398.438 409.107 398.587C409.281 398.736 409.322 398.711 409.48 398.919C409.621 399.109 409.703 399.159 409.836 399.325C410.408 400.096 410.765 400.9 410.93 401.87C411.163 403.213 410.789 404.249 410.45 405.526C409.637 408.569 408.684 411.553 407.855 414.621C407.656 415.359 407.424 416.13 407.2 416.901L401.371 437.321C400.484 440.33 399.68 443.422 398.776 446.407C397.856 449.441 397.093 452.476 396.182 455.493L394.242 462.3C393.421 465.326 392.5 468.369 391.647 471.387L389.052 480.473C388.297 483.026 388.09 484.685 385.943 486.111C384.392 487.139 382.792 486.964 380.927 486.964H240.692C239.092 486.964 237.914 487.246 236.729 488.117C236.29 488.44 235.974 488.772 235.651 489.211C235.402 489.543 235.295 489.725 235.096 490.123C234.184 491.931 234.416 494.011 235.452 495.678C235.709 496.084 236.024 496.407 236.364 496.706C237.608 497.825 239.009 498.19 240.692 498.19H378.407C379.526 498.19 383.008 498.074 384.119 498.289C385.138 498.488 385.926 498.978 386.697 499.583C386.821 499.682 387.087 499.956 387.195 500.088C387.476 500.462 387.767 500.835 387.982 501.241C388.04 501.349 388.057 501.44 388.123 501.572C388.48 502.335 388.571 503.231 388.571 504.118C388.571 506.746 386.183 509.133 383.688 509.399C382.137 509.565 375.654 509.465 373.59 509.465V509.523C374.162 509.523 374.808 509.672 375.331 509.78C376.848 510.112 378.208 510.659 379.584 511.339C379.716 511.405 379.791 511.447 379.924 511.529C380.711 512.027 381.524 512.483 382.237 513.088L383 513.735C383.563 514.307 384.16 514.862 384.674 515.467L385.512 516.57C386.407 517.839 387.145 519.24 387.65 520.715C388.38 522.846 388.571 524.438 388.571 526.784C388.571 529.122 387.767 531.866 386.987 533.417C386.233 534.925 385.404 536.169 384.326 537.454C384.011 537.835 383.165 538.673 382.776 538.963L382.237 539.427C380.587 540.837 378.581 541.724 376.533 542.42C373.855 543.332 370.365 543.307 367.62 542.627C367.04 542.478 366.592 542.321 366.045 542.147C365.266 541.89 364.594 541.566 363.873 541.201L362.58 540.439C362.348 540.289 362.207 540.182 361.991 540.024L360.549 538.888C360.424 538.797 360.383 538.756 360.267 538.64L358.302 536.492C357.365 535.315 356.619 533.955 356.063 532.563C355.185 530.374 354.845 528.26 354.845 525.789C354.845 522.871 355.815 519.911 357.324 517.465L358.302 516.031L360.955 513.279C361.079 513.188 361.088 513.154 361.204 513.055C362.306 512.118 363.848 511.231 365.191 510.7C366.543 510.162 368.4 509.515 369.826 509.515H253.194C254.239 509.515 255.441 509.855 256.419 510.17C257.804 510.617 259.155 511.239 260.374 512.035L260.971 512.433C261.534 512.806 262.869 513.917 263.342 514.406C263.458 514.531 263.449 514.556 263.549 514.672C263.706 514.862 263.881 514.97 264.038 515.177L265.298 516.794C265.986 517.772 266.534 518.875 266.981 519.986C267.081 520.235 267.155 520.409 267.238 520.666C268.316 523.924 268.515 527.19 267.644 530.54C267.048 532.836 265.978 534.793 264.594 536.65C263.242 538.457 261.062 540.24 259.031 541.251C258.094 541.724 257.14 542.089 256.137 542.412C253.41 543.307 249.961 543.299 247.183 542.603C246.611 542.462 246.122 542.288 245.616 542.113L244.157 541.516C243.95 541.425 243.643 541.276 243.453 541.16C242.59 540.654 241.77 540.14 240.965 539.535C240.385 539.096 239.863 538.606 239.349 538.092C239.175 537.918 238.967 537.744 238.818 537.562L236.497 534.246C233.96 529.412 233.703 523.742 236.182 518.8C236.911 517.349 237.848 515.89 238.992 514.746C239.332 514.406 239.639 514.075 239.987 513.743C240.659 513.105 241.446 512.541 242.217 512.035C244.008 510.866 247.374 509.498 249.43 509.498V509.44C247.067 509.44 240.319 509.606 238.495 509.332C238.37 509.316 238.279 509.324 238.163 509.316L236.455 509.026C234.126 508.561 231.937 507.5 230.088 506.116C229.549 505.718 229.085 505.245 228.612 504.889C228.248 504.615 227.941 504.192 227.634 503.869L227.162 503.338C226.606 502.683 226.109 501.987 225.661 501.257C225.006 500.188 224.401 498.886 223.995 497.576C222.817 493.788 223.041 489.833 224.484 486.185L225.222 484.627C225.719 483.681 226.366 482.595 227.104 481.816C227.211 481.7 227.195 481.692 227.286 481.584L227.841 480.962C228.09 480.697 228.372 480.39 228.654 480.183C228.828 480.058 228.886 479.959 229.052 479.818C229.881 479.08 230.818 478.4 231.804 477.878C232.227 477.654 232.874 477.173 233.355 477.132C233.355 476.435 232.899 474.918 232.758 474.205C232.667 473.766 232.526 473.21 232.434 472.771L230.859 465.658C230.627 464.679 230.428 463.767 230.213 462.781L227.054 448.563C226.938 448.057 226.847 447.576 226.739 447.12C226.623 446.647 226.523 446.2 226.432 445.727L225.155 440.015C224.956 439.037 224.741 438.158 224.533 437.171L222.95 430.066C221.847 425.316 220.886 420.54 219.775 415.798C219.659 415.301 219.584 414.895 219.468 414.397L218.208 408.726C218.117 408.254 217.992 407.79 217.884 407.292L208.947 366.585C208.897 366.337 208.823 366.129 208.815 365.897H179.69C178.852 365.897 177.891 365.673 177.319 365.392C176.382 364.927 175.569 364.305 174.989 363.435C174.367 362.49 173.994 361.495 173.994 360.202C173.994 357.258 176.581 354.622 179.342 354.622H213.64C214.892 354.622 216.301 355.252 217.147 356.106C218.631 357.598 218.73 358.701 219.252 360.931L219.965 364.148C220.231 365.242 220.43 366.312 220.695 367.414C220.819 367.937 220.927 368.484 221.06 369.048C221.25 369.86 227.037 396.763 227.203 397.103H239.821L239.772 397.128Z" fill="#06B2B6"/>
<path d="M329.464 257.034H315.762V245.119H356.273V257.034H342.571V328.525H329.464V257.034Z" fill="black"/>
<path d="M275.932 245.119H311.677V257.034H289.038V279.077H307.03V290.992H289.038V316.61H311.677V328.525H275.932V245.119Z" fill="black"/>
<path d="M226.594 245.119H239.701V280.269L256.382 245.119H269.489L253.88 275.741L269.727 328.525H256.024L244.943 291.35L239.701 301.954V328.525H226.594V245.119Z" fill="black"/>
<path d="M178.537 245.119H197.959C204.711 245.119 209.636 246.707 212.734 249.885C215.832 252.983 217.381 257.789 217.381 264.302V269.426C217.381 278.084 214.521 283.565 208.802 285.869V286.107C211.979 287.06 214.203 289.006 215.474 291.946C216.825 294.885 217.5 298.817 217.5 303.742V318.397C217.5 320.78 217.579 322.727 217.738 324.236C217.897 325.666 218.294 327.095 218.93 328.525H205.585C205.108 327.175 204.79 325.904 204.631 324.712C204.473 323.521 204.393 321.376 204.393 318.278V303.027C204.393 299.214 203.758 296.553 202.487 295.043C201.295 293.534 199.19 292.78 196.172 292.78H191.644V328.525H178.537V245.119ZM196.41 280.864C199.031 280.864 200.977 280.189 202.248 278.839C203.599 277.488 204.274 275.224 204.274 272.047V265.613C204.274 262.594 203.718 260.41 202.606 259.059C201.573 257.709 199.905 257.034 197.601 257.034H191.644V280.864H196.41Z" fill="black"/>
<path d="M140.843 245.119H158.597L172.18 328.525H159.073L156.69 311.963V312.201H141.796L139.413 328.525H127.26L140.843 245.119ZM155.141 300.882L149.303 259.655H149.065L143.345 300.882H155.141Z" fill="black"/>
<path d="M66.5996 245.119H85.3065L93.6472 304.814H93.8855L102.226 245.119H120.933V328.525H108.541V265.375H108.303L98.7707 328.525H87.8087L78.2765 265.375H78.0382V328.525H66.5996V245.119Z" fill="black"/>
<path d="M495.152 245.119H514.455C520.969 245.119 525.854 246.866 529.111 250.361C532.368 253.856 533.996 258.98 533.996 265.732V273.954C533.996 280.705 532.368 285.829 529.111 289.324C525.854 292.819 520.969 294.567 514.455 294.567H508.259V328.525H495.152V245.119ZM514.455 282.652C516.6 282.652 518.188 282.056 519.221 280.864C520.333 279.673 520.889 277.647 520.889 274.788V264.898C520.889 262.038 520.333 260.013 519.221 258.821C518.188 257.63 516.6 257.034 514.455 257.034H508.259V282.652H514.455Z" fill="#06B2B6"/>
<path d="M449.189 245.119H468.492C475.006 245.119 479.891 246.866 483.148 250.361C486.405 253.856 488.033 258.98 488.033 265.732V273.954C488.033 280.705 486.405 285.829 483.148 289.324C479.891 292.819 475.006 294.567 468.492 294.567H462.296V328.525H449.189V245.119ZM468.492 282.652C470.637 282.652 472.226 282.056 473.258 280.864C474.37 279.673 474.926 277.647 474.926 274.788V264.898C474.926 262.038 474.37 260.013 473.258 258.821C472.226 257.63 470.637 257.034 468.492 257.034H462.296V282.652H468.492Z" fill="#06B2B6"/>
<path d="M411.494 245.119H429.247L442.831 328.525H429.724L427.341 311.963V312.201H412.447L410.064 328.525H397.91L411.494 245.119ZM425.792 300.882L419.953 259.655H419.715L413.996 300.882H425.792Z" fill="#06B2B6"/>
<path fill-rule="evenodd" clip-rule="evenodd" d="M354.363 367.738L396.82 381.948C399.24 382.761 400.559 385.405 399.746 387.826L377.403 454.565C376.591 456.986 373.946 458.304 371.525 457.492L329.069 443.282C326.648 442.469 325.33 439.825 326.142 437.404L348.485 370.665C349.298 368.244 351.943 366.926 354.363 367.738Z" fill="#604CC3"/>
<path fill-rule="evenodd" clip-rule="evenodd" d="M353.974 373.16L393.868 386.516C394.606 386.765 395.004 387.569 394.763 388.307L390.427 401.257C390.179 401.994 389.375 402.401 388.637 402.152L348.742 388.796C348.005 388.547 347.607 387.743 347.847 387.005L352.183 374.055C352.432 373.317 353.236 372.919 353.974 373.16ZM365.373 437.926L376.027 441.491C376.491 441.648 376.74 442.154 376.59 442.618L373.871 450.743C373.714 451.207 373.208 451.456 372.744 451.307L362.09 447.742C361.626 447.584 361.377 447.079 361.527 446.614L364.246 438.49C364.403 438.025 364.909 437.777 365.373 437.926ZM369.427 425.805L380.081 429.37C380.545 429.528 380.794 430.033 380.645 430.498L377.925 438.622C377.768 439.087 377.262 439.335 376.798 439.186L366.144 435.621C365.68 435.464 365.431 434.958 365.581 434.494L368.3 426.369C368.457 425.905 368.963 425.656 369.427 425.805ZM373.481 413.684L384.135 417.249C384.599 417.407 384.848 417.912 384.699 418.377L381.979 426.501C381.822 426.966 381.316 427.214 380.852 427.065L370.198 423.5C369.734 423.343 369.485 422.837 369.635 422.373L372.354 414.248C372.512 413.784 373.017 413.535 373.481 413.684ZM350.243 432.86L360.896 436.425C361.361 436.583 361.609 437.089 361.46 437.553L358.741 445.678C358.583 446.142 358.078 446.391 357.613 446.241L346.96 442.676C346.496 442.519 346.247 442.013 346.396 441.549L349.116 433.424C349.273 432.96 349.779 432.711 350.243 432.86ZM354.297 420.739L364.951 424.304C365.415 424.462 365.664 424.968 365.514 425.432L362.795 433.557C362.637 434.021 362.132 434.27 361.667 434.12L351.014 430.556C350.55 430.398 350.301 429.892 350.45 429.428L353.17 421.303C353.327 420.839 353.833 420.59 354.297 420.739ZM358.351 408.619L369.005 412.184C369.469 412.341 369.718 412.847 369.568 413.311L366.849 421.436C366.692 421.9 366.186 422.149 365.722 422L355.068 418.435C354.604 418.277 354.355 417.771 354.504 417.307L357.224 409.182C357.381 408.718 357.887 408.469 358.351 408.619ZM335.113 427.803L345.766 431.368C346.23 431.526 346.479 432.031 346.33 432.496L343.611 440.62C343.453 441.085 342.947 441.333 342.483 441.184L331.83 437.619C331.365 437.462 331.117 436.956 331.266 436.492L333.985 428.367C334.143 427.903 334.648 427.654 335.113 427.803ZM339.167 415.682L349.82 419.247C350.284 419.405 350.533 419.91 350.384 420.375L347.665 428.499C347.507 428.964 347.001 429.212 346.537 429.063L335.884 425.498C335.419 425.341 335.171 424.835 335.32 424.371L338.039 416.246C338.197 415.782 338.703 415.533 339.167 415.682ZM343.221 403.561L353.874 407.126C354.339 407.284 354.587 407.79 354.438 408.254L351.719 416.379C351.561 416.843 351.056 417.092 350.591 416.942L339.938 413.377C339.474 413.22 339.225 412.714 339.374 412.25L342.093 404.125C342.251 403.661 342.757 403.412 343.221 403.561ZM377.527 401.563L388.181 405.128C388.645 405.286 388.894 405.792 388.744 406.256L386.025 414.381C385.868 414.845 385.362 415.094 384.898 414.944L374.244 411.379C373.78 411.222 373.531 410.716 373.68 410.252L376.4 402.127C376.557 401.663 377.063 401.414 377.527 401.563ZM362.405 396.498L373.059 400.063C373.523 400.22 373.772 400.726 373.622 401.19L370.903 409.315C370.746 409.779 370.24 410.028 369.776 409.871L359.122 406.306C358.658 406.148 358.409 405.642 358.558 405.178L361.278 397.053C361.435 396.589 361.941 396.34 362.405 396.49V396.498ZM347.283 391.432L357.937 394.997C358.401 395.155 358.65 395.66 358.5 396.125L355.781 404.25C355.624 404.714 355.118 404.963 354.654 404.813L344 401.248C343.536 401.091 343.287 400.585 343.436 400.121L346.156 391.996C346.313 391.532 346.819 391.283 347.283 391.432Z" fill="#FEFEFE"/>
<path fill-rule="evenodd" clip-rule="evenodd" d="M296.935 375.979L296.628 376.004L296.454 376.078L296.164 376.111L296.007 376.186L295.683 376.194L295.518 376.269L295.261 376.277L295.07 376.385L294.746 376.393L294.564 376.468L294.274 376.493L294.108 376.567L293.818 376.592L293.652 376.667L293.345 376.692L293.18 376.766L292.848 376.775L292.69 376.849L292.392 376.874L292.226 376.949L291.911 376.965L291.737 377.04L291.439 377.065L291.289 377.148L290.983 377.164L290.825 377.247L290.51 377.264L290.344 377.338L290.029 377.355L289.872 377.43L289.565 377.454L289.399 377.529L289.092 377.554L288.943 377.629L288.628 377.645L288.462 377.72L288.164 377.745L287.998 377.819L287.683 377.836L287.517 377.91L287.219 377.935L287.069 378.018L286.754 378.035L286.572 378.101L286.274 378.126L286.108 378.201L285.809 378.226L285.652 378.308L285.32 378.325L285.154 378.4L284.881 378.425L284.698 378.499L284.375 378.516L284.209 378.59L283.902 378.615L283.753 378.69L283.405 378.698L283.239 378.814L282.941 378.806L282.791 378.88L282.476 378.897L282.319 378.972L281.987 378.98L281.83 379.096H281.564C281.564 379.262 281.598 379.196 281.399 379.171L281.067 379.179L280.893 379.287L280.155 379.378L279.989 379.453L279.674 379.469L279.508 379.544L278.729 379.66L278.555 379.726L277.801 379.85C277.801 380.016 277.834 379.95 277.643 379.933L277.328 379.95L277.154 380.025L276.864 380.049L276.69 380.124L276.366 380.141L276.209 380.215L275.919 380.24L275.753 380.315L274.949 380.423L274.774 380.53H274.509L274.335 380.605L274.02 380.622L273.863 380.696L273.539 380.713L273.39 380.787L272.992 380.812L272.818 380.887L272.528 380.912L272.379 380.995L272.138 381.003L271.972 381.077L271.599 381.111L271.442 381.185L271.102 381.194L270.928 381.268H270.671L270.497 381.376H270.148L269.991 381.459L269.692 381.484L269.535 381.558H269.278L269.087 381.666L268.797 381.658L268.615 381.766H268.283L268.134 381.84L267.819 381.857L267.661 381.931L267.363 381.956L267.189 382.031L266.865 382.047L266.708 382.122L266.401 382.147L266.244 382.222L265.937 382.246L265.771 382.321L265.448 382.338L265.282 382.412L264.983 382.437L264.809 382.512L264.494 382.528L264.32 382.603L264.013 382.628L263.881 382.711L263.574 382.736L263.4 382.802L263.077 382.819L262.911 382.893L262.67 382.901L262.48 383.009L262.123 382.993L261.974 383.076L261.692 383.109L261.518 383.175L261.186 383.183L261.029 383.266L260.722 383.283L260.564 383.357L260.249 383.374L260.1 383.457L259.785 383.482L259.619 383.556L259.313 383.573L259.138 383.648L258.84 383.672L258.674 383.747L258.359 383.764L258.193 383.838L257.414 383.954L257.257 384.029L256.933 384.046L256.784 384.12L256.485 384.145L256.32 384.22L255.996 384.236L255.839 384.311L255.524 384.327L255.358 384.402L255.068 384.427L254.91 384.51L254.554 384.501L254.355 384.609L254.065 384.593L253.891 384.709L253.551 384.717L253.401 384.792L253.078 384.808L252.912 384.883L252.606 384.899L252.431 384.974L252.15 384.999L251.992 385.074L251.685 385.098L251.511 385.165L251.188 385.181L251.014 385.264H250.765L250.583 385.364L250.259 385.38L250.085 385.455L249.778 385.48L249.621 385.554L249.306 385.571L249.14 385.646L248.833 385.662L248.684 385.745L248.361 385.762L248.195 385.836L247.946 385.845L247.747 385.944L247.424 385.952L247.275 386.035L246.727 386.143L246.636 386.234L246.553 386.243L246.462 386.35L246.172 386.64L246.073 386.74L245.981 387.038L245.898 387.171L245.907 387.743C246.056 387.743 246.006 387.71 245.99 387.901L246.023 388.332L246.097 388.498L246.106 388.771L246.213 388.962L246.222 389.244L246.296 389.426L246.33 389.741L246.404 389.924L246.421 390.28L246.529 390.471L246.628 391.283L246.703 391.457L246.736 391.764L246.81 391.938L246.819 392.311L246.935 392.51L246.943 392.792L247.026 392.95L247.051 393.289L247.125 393.48L247.134 393.837L247.242 394.036L247.25 394.318L247.324 394.492L247.358 394.79L247.432 394.981L247.465 395.296L247.54 395.47L247.565 395.802L247.639 395.976L247.673 396.291L247.747 396.473L247.772 396.813L247.847 396.995L247.872 397.327L247.946 397.509L247.979 397.833L248.054 398.015L248.079 398.338L248.153 398.521L248.178 398.852L248.253 399.035L248.278 399.366L248.352 399.541L248.386 399.864L248.46 400.038L248.485 400.386L248.568 400.56L248.593 400.875L248.667 401.066L248.692 401.381L248.767 401.572L248.792 401.887L248.866 402.061V402.351L248.983 402.525L248.999 402.898L249.074 403.072L249.082 403.346L249.19 403.537L249.206 403.91L249.281 404.076L249.389 404.863L249.497 405.062L249.521 405.402L249.596 405.584V405.899L249.704 406.082L249.696 406.405L249.803 406.596L249.82 406.952L249.895 407.118L249.903 407.392L250.011 407.591L250.019 407.972L250.093 408.154L250.127 408.47L250.201 408.644L250.234 408.975L250.309 409.149L250.342 409.473L250.417 409.647L250.433 410.003L250.516 410.186L250.525 410.451L250.632 410.633L250.649 410.982L250.724 411.156L250.732 411.454L250.84 411.645L250.856 412.01L250.931 412.184L250.956 412.524L251.039 412.689L251.063 413.013L251.138 413.195V413.485L251.246 413.668L251.262 414.024L251.337 414.207L251.354 414.447L251.428 414.613L251.461 415.036L251.544 415.21L251.577 415.525L251.652 415.699L251.876 416.959L251.951 417.133L251.975 417.49L252.058 417.639L252.075 418.004L252.183 418.186L252.191 418.476L252.266 418.642L252.407 419.562L252.481 419.736L252.506 420.076L252.581 420.242L252.614 420.565L252.688 420.74L252.713 421.079L252.788 421.245L252.78 421.552L252.896 421.726L253.003 422.53L253.078 422.696L253.095 423.053L253.202 423.235L253.219 423.6L253.294 423.782L253.302 424.064L253.418 424.238V424.537L253.493 424.711L253.517 425.042L253.592 425.225L253.609 425.581L253.725 425.755V426.054L253.799 426.236L253.824 426.568L253.899 426.734L253.915 427.098L254.031 427.281V427.579L254.106 427.753L254.139 428.052L254.214 428.234L254.23 428.591L254.338 428.781V429.088L254.413 429.254L254.438 429.594L254.512 429.768L254.546 430.075L254.62 430.257L254.645 430.589L254.72 430.755L254.744 431.086L254.819 431.269L254.844 431.6L254.919 431.791L254.952 432.106L255.026 432.288L255.051 432.628L255.126 432.794L255.159 433.117L255.234 433.292L255.259 433.623L255.333 433.806L255.366 434.129L255.441 434.303L255.466 434.635L255.54 434.809L255.565 435.14L255.64 435.331L255.673 435.646L255.739 435.837L255.773 436.152L255.847 436.318L255.963 437.196L256.079 437.379L256.063 437.71L256.17 437.893L256.179 438.166L256.245 438.357L256.27 438.689L256.345 438.855L256.469 439.717L256.577 439.899L256.585 440.173C256.734 440.173 256.676 440.148 256.668 440.339L256.792 441.209L256.867 441.375L256.883 441.74L256.991 441.93L257 442.204L257.074 442.386L257.099 442.726L257.174 442.9L257.215 443.307L257.29 443.481V443.771L257.406 443.945L257.514 444.741L257.596 444.898L257.621 445.247L257.696 445.429L257.721 445.777L257.795 445.935L257.82 446.283L257.928 446.482V446.772L258.003 446.938L258.036 447.245L258.11 447.427L258.135 447.783L258.243 447.982V448.289L258.318 448.455L258.343 448.787L258.417 448.961L258.442 449.301L258.517 449.458L258.55 449.773L258.624 449.964L258.633 450.254L258.741 450.445L258.749 450.81L258.823 450.992L258.857 451.299L258.931 451.489L258.948 451.755L259.047 451.962L259.064 452.302L259.138 452.484L259.155 452.849L259.238 453.006L259.263 453.355L259.371 453.537V453.836L259.445 454.018L259.478 454.308L259.553 454.507L259.578 454.847L259.652 455.021L259.677 455.353L259.752 455.535L259.777 455.858L259.851 456.041L259.885 456.356L259.959 456.547L259.992 456.87L260.067 457.036L260.092 457.367L260.175 457.525L260.2 457.856L260.274 458.039L260.283 458.321L260.39 458.52L260.399 458.893L260.473 459.059L260.498 459.399L260.573 459.589L260.606 459.896L260.681 460.07L260.697 460.327L260.78 460.46C260.929 460.858 261.02 460.949 261.369 461.148L261.468 461.247L262.529 461.372L262.703 461.264L263.043 461.256L263.209 461.173L263.508 461.148L263.665 461.073L263.939 461.082L264.113 460.974H264.386L264.544 460.899L264.851 460.874L265.016 460.8L265.323 460.775L265.472 460.7L265.779 460.675L265.962 460.601L266.252 460.576L266.409 460.501H266.683L266.849 460.385H267.205L267.354 460.302L267.669 460.286L267.835 460.211H268.092L268.25 460.095L268.979 459.995L269.137 459.921L269.469 459.913L269.659 459.805H269.916L270.074 459.73L270.397 459.714L270.571 459.639L270.845 459.606L271.019 459.531L271.35 459.523L271.525 459.44L271.806 459.415L271.989 459.34L272.271 459.316L272.453 459.241L272.727 459.216L272.884 459.142L273.216 459.133L273.398 459.059L273.68 459.025L273.829 458.943L274.567 458.843L274.741 458.735H274.998C274.998 458.569 274.965 458.636 275.164 458.661L275.463 458.644L275.637 458.569L275.96 458.553L276.118 458.478L276.424 458.453L276.574 458.371L276.889 458.354L277.054 458.279L277.353 458.254L277.519 458.18L277.834 458.163L277.975 458.08L278.29 458.064L278.447 457.989L278.746 457.964L278.903 457.89L279.235 457.873L279.392 457.798L280.114 457.699L280.296 457.591L280.594 457.608L280.769 457.5H281.017L281.183 457.425L281.523 457.417L281.697 457.309H281.954L282.12 457.235L282.41 457.202L282.584 457.127L282.916 457.119L283.082 457.044L283.372 457.011L283.521 456.936L283.828 456.911L283.985 456.837L284.3 456.82L284.466 456.746L284.748 456.754L284.93 456.646L285.221 456.663L285.386 456.547L285.635 456.538L285.809 456.464L286.108 456.439L286.29 456.372L286.597 456.348L286.746 456.273L287.053 456.248L287.227 456.173L287.517 456.14L287.675 456.066H287.948L288.122 455.958L288.454 455.95L288.628 455.875L288.935 455.858L289.109 455.784L289.399 455.759L289.557 455.684H289.822L289.988 455.568L290.261 455.577L290.419 455.502L290.734 455.477L290.883 455.402L291.182 455.378L291.356 455.303L291.654 455.278L291.82 455.203L292.135 455.187L292.309 455.112L292.981 454.996L293.146 454.922L293.486 454.913L293.669 454.806H293.942L294.108 454.731L294.407 454.706L294.564 454.631L294.863 454.607L295.028 454.532L295.352 454.515L295.509 454.432L295.816 454.416L295.973 454.341L296.313 454.333L296.463 454.258L296.736 454.225L296.91 454.151L297.234 454.134L297.399 454.051H297.656L297.831 453.935H298.088L298.253 453.86L298.552 453.836L298.718 453.761L299.024 453.736L299.199 453.661L299.522 453.653L299.704 453.545H299.953L300.135 453.471L300.898 453.355L301.064 453.28L301.387 453.263L301.545 453.189L301.843 453.164L302.009 453.089L302.341 453.073L302.506 452.998L302.805 452.973L302.971 452.899L303.277 452.874L303.443 452.799L303.742 452.774L303.908 452.7L304.214 452.675L304.38 452.6L304.596 452.584C304.596 452.418 304.563 452.476 304.753 452.501L305.052 452.484L305.234 452.41L305.533 452.385L305.698 452.31L306.005 452.285L306.163 452.211L306.478 452.194L306.652 452.119L306.975 452.111L307.141 452.028L307.431 452.003L307.605 451.929L307.887 451.904L308.061 451.829H308.318L308.501 451.721L309.214 451.622L309.388 451.547L309.678 451.522L309.852 451.448L310.167 451.431L310.324 451.357L311.112 451.241L311.27 451.166L311.585 451.149L311.734 451.067L312.049 451.05L312.231 450.975L312.538 450.959L312.704 450.884L312.845 450.868L312.944 450.776L313.035 450.768L313.127 450.669C313.45 450.494 313.608 450.279 313.69 449.889C313.674 449.699 313.624 449.732 313.765 449.732L313.773 449.151L313.666 448.961L313.657 448.596L313.583 448.414L313.55 448.098L313.475 447.908L313.45 447.593L313.375 447.41L313.342 447.087L313.268 446.905L313.243 446.565L313.168 446.382L313.135 446.067L313.06 445.885L313.027 445.562L312.953 445.379L312.919 445.064L312.845 444.882L312.82 444.542L312.745 444.368L312.72 444.036L312.646 443.87L312.621 443.53L312.546 443.365L312.521 443.033L312.447 442.842L312.422 442.502L312.323 442.295L312.314 442.005L312.24 441.831L312.215 441.499L312.14 441.325L312.107 441.018L312.032 440.836L311.999 440.521L311.925 440.339L311.9 440.015L311.825 439.833L311.792 439.501L311.717 439.327L311.692 438.987L311.618 438.805L311.593 438.481L311.518 438.316L311.493 437.984L311.419 437.793L311.394 437.453L311.319 437.288L311.286 436.956L311.212 436.782L311.187 436.434L311.112 436.26L311.079 435.936L311.004 435.762L310.971 435.43L310.897 435.256L310.872 434.941L310.797 434.751L310.78 434.386L310.673 434.195V433.897L310.598 433.723L310.557 433.316L310.482 433.126L310.457 432.91L310.383 432.728L310.242 431.808L310.167 431.633L310.159 431.343L310.043 431.177L310.051 430.854L309.943 430.663V430.348L309.835 430.149L309.313 427.256L309.238 427.074V426.792L309.131 426.609L309.106 426.269L309.031 426.095L309.023 425.813L308.915 425.623L308.932 425.291L308.824 425.109L308.816 424.843L308.741 424.661L308.724 424.296L308.617 424.114L308.6 423.757L308.525 423.592L308.517 423.301L308.409 423.094L308.393 422.746L308.318 422.564L308.31 422.265L308.21 422.058L308.186 421.71L308.111 421.544L308.086 421.196L308.011 421.005L307.978 420.706L307.904 420.524L307.879 420.184L307.804 420.002L307.779 419.678L307.705 419.504L307.68 419.181L307.605 418.982L307.58 418.675L307.506 418.485L307.473 418.186L307.398 418.012L307.365 417.68L307.29 417.506L307.257 417.183L307.182 417.009L307.157 416.661L307.083 416.478L307.058 416.138L306.983 415.956L306.959 415.633L306.884 415.45L306.867 415.11L306.784 414.92L306.751 414.621L306.677 414.447L306.652 414.107L306.577 413.916L306.544 413.601L306.469 413.411L306.436 413.087L306.362 412.905L306.337 412.573L306.262 412.399L306.229 412.076L306.154 411.918L306.129 411.579L306.055 411.404L306.03 411.064L305.955 410.882L305.922 410.559L305.848 410.368L305.814 410.07L305.74 409.871L305.707 409.547L305.632 409.357L305.607 409.025L305.533 408.843L305.516 408.486L305.408 408.295V407.989L305.3 407.798L305.292 407.508L305.217 407.334L305.193 407.002L305.118 406.82L305.093 406.472L304.985 406.289L304.977 406.007L304.902 405.817L304.878 405.46L304.778 405.261L304.77 404.987L304.695 404.805L304.67 404.465L304.596 404.283L304.563 403.959L304.488 403.777L304.463 403.437L304.364 403.23L304.355 402.965L304.281 402.766L304.148 401.945L304.073 401.754L303.941 400.909L303.866 400.743L303.85 400.353L303.742 400.162V399.856L303.634 399.665V399.284L303.551 399.118L303.526 398.786L303.443 398.62L303.418 398.289L303.344 398.098L303.319 397.783L303.236 397.617L303.203 397.31L303.128 397.128L303.004 396.274L302.929 396.1L302.921 395.826L302.813 395.644L302.805 395.271L302.73 395.097V394.815L302.614 394.633L302.623 394.309L302.515 394.119L302.523 393.804L302.407 393.621L302.415 393.306L302.308 393.115L302.299 392.825L302.225 392.668L302.2 392.319L302.092 392.121L302.1 391.797L301.992 391.615L301.984 391.35L301.91 391.159L301.885 390.819L301.802 390.661L301.777 390.321L301.702 390.139L301.669 389.807L301.595 389.633L301.561 389.302L301.487 389.119L301.454 388.796L301.379 388.614L301.255 387.76L301.172 387.602L301.163 387.32L301.056 387.13L301.039 386.765L300.964 386.582L300.94 386.251L300.865 386.085L300.823 385.778L300.749 385.604V385.289L300.649 385.09L300.624 384.75L300.55 384.56L300.517 384.244L300.442 384.062L300.417 383.722L300.343 383.565L300.309 383.241L300.243 383.051L300.218 382.711L300.144 382.545L300.119 382.205L300.044 382.031L300.036 381.749L299.928 381.558L299.912 381.21L299.837 381.019L299.812 380.671L299.729 380.522L299.696 380.199L299.621 380.016L299.596 379.676L299.522 379.502L299.505 379.229L299.398 379.046L299.389 378.69L299.315 378.516L299.29 378.184L299.215 377.993L299.182 377.67L299.107 377.504L299.082 377.173L299.008 376.99L298.991 376.733L298.9 376.601L298.51 376.111L298.419 376.004L297.905 375.821L297.408 375.788L297.01 375.805L296.852 375.879L296.935 375.979Z" fill="#FF6600"/>
<path fill-rule="evenodd" clip-rule="evenodd" d="M296.405 387.387V387.495L296.305 387.594L296.222 387.81L296.123 387.901L296.032 388.1L295.924 388.199L295.766 388.523L295.659 388.614L294.904 389.393L294.821 389.509L294.357 389.799L294.274 389.899L293.992 389.998L293.901 390.098H293.802L293.694 390.189L293.528 390.197L293.404 390.288L293.246 390.297L293.105 390.38L292.84 390.388L292.575 390.504L291.911 390.496L291.629 390.38H291.356L291.223 390.297L291.057 390.28L290.958 390.181H290.858L290.759 390.089L290.684 390.081L290.585 389.973H290.485L290.386 389.874L290.195 389.774L290.104 389.667L289.805 389.484L289.714 389.368L289.524 389.269L289.424 389.161L288.968 389.061L288.852 389.153L288.661 389.236L288.578 389.36L287.849 390.156L287.749 390.255L287.642 390.355L287.094 390.952L287.012 391.068L286.348 391.449C286.348 391.598 286.381 391.557 286.232 391.54L286.075 391.557L285.95 391.64L285.727 391.656L285.528 391.723L285.055 391.739L284.765 391.623H284.591L284.458 391.532L283.994 391.325L283.903 391.217C283.554 390.993 283.339 390.786 283.132 390.405L283.04 390.305L282.924 390.297C282.933 390.438 282.966 390.405 282.833 390.405L282.568 390.802L282.46 390.894L282.352 390.993L281.714 391.69L281.631 391.814L281.266 392.104L281.183 392.212L280.984 392.303L280.893 392.411L280.702 392.502L280.611 392.602L280.52 392.61L280.429 392.701L280.321 392.693L280.23 392.792L280.147 392.8C280.147 392.941 280.18 392.9 280.039 392.892H279.865L279.741 392.983L279.575 392.991C279.575 393.14 279.608 393.099 279.442 393.074L278.074 393.066L277.908 392.991L277.685 392.966L277.577 392.875L277.104 392.668L277.013 392.56L276.715 392.369L276.615 392.262L276.524 392.154C276.126 391.822 275.969 391.399 275.488 391.35L275.388 391.449C274.824 391.781 274.07 392.883 273.423 393.431L273.34 393.547L273.05 393.729L272.959 393.837L272.777 393.936L272.685 394.036H272.586L272.495 394.127H272.395L272.304 394.218L272.147 394.235L272.014 394.318H271.749C271.508 394.5 271.467 394.467 271.218 394.326L271.002 394.309L270.87 394.218C270.397 394.086 270.016 393.663 269.825 393.19L269.734 393.091L269.726 392.991H269.626L269.452 393.099L269.369 393.215L268.971 393.489L268.88 393.613L268.507 393.895L268.424 394.019L268.043 394.301L267.952 394.409L267.753 394.492L267.661 394.6L267.479 394.691L267.388 394.79L267.297 394.799L267.214 394.898H267.122L267.015 394.989L266.932 394.997L266.824 395.089L266.658 395.097L266.534 395.188L266.393 395.205L266.244 395.288C265.34 395.354 265.315 395.329 264.486 395.072L264.387 394.973H264.287L264.188 394.873L263.997 394.774L263.906 394.666L263.425 394.367L263.334 394.26L262.679 393.945L262.554 393.853L261.825 393.837L261.709 393.928L261.626 393.936L261.543 394.044L260.905 394.74L260.788 394.832L260.44 395.321L260.316 395.42L259.777 396.034L259.694 396.142L259.487 396.225L259.396 396.324L259.321 396.332L259.23 396.432L259.114 396.423L258.998 396.506L258.774 396.531L258.625 396.606L257.713 396.498C257.572 396.506 257.605 396.54 257.605 396.399L257.224 396.191L257.132 396.075L256.469 395.362L256.37 395.263L256.278 395.163L256.088 395.172L255.988 395.279L255.723 395.57L255.623 395.669L255.516 395.76L255.259 396.158L255.151 396.249L255.06 396.44L254.96 396.54C254.703 397.12 254.438 397.112 253.841 397.045L253.741 396.946C253.219 396.564 253.277 396.216 253.435 395.636L253.526 395.536L253.609 395.321L253.708 395.23L253.8 395.039L253.899 394.948L254.073 394.641L254.173 394.55L254.272 394.45L254.372 394.351L254.728 393.953L254.811 393.829L255.101 393.646L255.192 393.538L255.723 393.323L255.856 393.24L256.569 393.256L256.718 393.339L256.983 393.447L257.083 393.555L258.218 394.682L258.616 394.575L258.708 394.459L259.081 394.069L259.197 393.978L259.362 393.654L259.47 393.563L259.736 393.165L259.835 393.066L259.943 392.966L260.017 392.875L260.109 392.759L260.2 392.66L261.029 392.154L261.128 392.063L261.294 392.046L261.427 391.963L261.742 391.947C261.941 391.855 262.364 391.748 262.521 391.996C262.952 391.98 263.01 392.054 263.408 392.179L263.516 392.27L263.989 392.477L264.08 392.585L264.569 392.883L264.66 392.991L264.859 393.091L264.95 393.198L265.033 393.207L265.133 393.306H265.24L265.34 393.397C265.937 393.431 266.028 393.373 266.55 393.116L266.65 393.008L266.841 392.925C266.841 392.776 266.799 392.809 266.932 392.817L267.23 392.635L267.321 392.51L267.695 392.228L267.777 392.121L267.86 392.013L268.15 391.83L268.233 391.714L268.532 391.54L268.623 391.433L268.814 391.341L268.905 391.242L268.996 391.234L269.087 391.134H269.187L269.286 391.043L269.46 391.035C269.46 390.894 269.427 390.935 269.576 390.943L270.306 390.96L270.414 391.051H270.513L270.604 391.159C271.069 391.457 271.16 391.963 271.458 392.469C271.848 392.394 272.022 392.245 272.321 391.98L272.412 391.864L272.511 391.772L272.611 391.673L272.702 391.557L272.967 391.267L273.075 391.167L273.166 391.059L273.274 390.968L273.921 390.272L274.004 390.148L274.385 389.874L274.476 389.758L274.65 389.667L274.75 389.567H274.833C274.833 389.426 274.8 389.459 274.94 389.476L275.115 389.468L275.239 389.385L275.935 389.401L276.068 389.484L276.242 389.493C276.383 389.484 276.35 389.451 276.35 389.584L276.549 389.675L276.64 389.791L276.93 389.982L277.021 390.098L277.113 390.206L277.212 390.305L277.303 390.413L277.875 390.91L277.975 391.018H278.074L278.174 391.118L278.34 391.134L278.489 391.217L278.912 391.234L279.102 391.126L279.575 391.035L279.674 390.943L279.766 390.935L279.857 390.836L280.329 390.537L280.412 390.421L281.332 389.426L281.449 389.335L281.706 388.92L281.805 388.829L281.979 388.531L282.087 388.44L282.452 388.042L282.535 387.942H282.634L282.734 387.851C283.206 387.843 283.488 387.81 283.778 388.257L283.869 388.357L283.878 388.456L283.977 388.556L284.068 388.771L284.168 388.871L284.35 389.178L284.45 389.277L284.558 389.376L284.649 389.459L284.74 389.575L284.848 389.675L285.577 389.774L285.693 389.692H285.801L285.892 389.584L286.622 388.788L286.721 388.688L286.813 388.589L287.459 387.892L287.55 387.776L288.023 387.486L288.114 387.387H288.222L288.321 387.296L289.3 387.113L289.474 387.188L289.698 387.213L289.805 387.304H289.913L290.004 387.403L290.096 387.412L290.187 387.511L290.378 387.602L290.477 387.718L290.676 387.81L290.767 387.926L291.256 388.216L291.348 388.315L291.43 388.324L291.538 388.415L291.712 388.423C291.878 388.415 291.845 388.365 291.853 388.514C292.575 388.556 292.599 388.481 293.229 388.332L293.321 388.232L293.71 388.042L293.802 387.934L293.893 387.826L294.448 387.246L294.556 387.146L294.639 386.931L294.738 386.84L294.83 386.641L294.929 386.549L295.012 386.342L295.12 386.251L295.203 386.16L295.294 386.035L295.592 385.952L295.659 385.812L295.932 385.911C296.496 386.077 296.678 386.433 296.629 387.039L296.537 387.155V387.254L296.446 387.345L296.405 387.387ZM283.422 448.505L283.314 448.604L283.223 448.696L282.402 449.102L282.294 449.193H282.104L281.996 449.284L281.83 449.292L281.689 449.375L281.465 449.392L281.308 449.467H279.716L279.55 449.35L278.489 449.044L278.381 448.944L278.016 448.828L277.908 448.737L277.544 448.621L277.428 448.53L277.154 448.521L276.706 448.497L275.919 448.903L275.836 449.019L275.28 449.491L275.189 449.607L275.098 449.715L274.816 449.906L274.733 450.022L274.252 450.304L274.161 450.403L274.07 450.412L273.979 450.511H273.871L273.78 450.611L273.34 450.727L273.208 450.81L272.901 450.801C272.743 451.009 272.379 450.942 272.196 450.793L271.939 450.785L271.765 450.702L271.525 450.685L271.392 450.594L271.027 450.486L270.936 450.387L270.853 450.379L270.754 450.279L270.663 450.271L270.563 450.171H270.472L270.372 450.072H270.281L270.182 449.972H270.082L269.966 449.873L269.436 449.864L269.311 449.947L269.145 449.956L269.038 450.047L268.756 450.146L268.656 450.246L268.573 450.254L268.482 450.354L267.993 450.636L267.91 450.752L267.628 450.942L267.537 451.05L267.454 451.166L266.327 452.244L266.235 452.352H266.144L266.02 452.435H265.696L265.572 452.343L265.199 452.028L265.1 451.929V451.838L265.008 451.713L265.166 450.926L265.274 450.834L265.373 450.735L265.464 450.636L265.564 450.544L265.672 450.445L265.746 450.345L265.837 450.238L265.929 450.138L266.012 450.022L266.501 449.657L266.592 449.533L266.957 449.251L267.04 449.135L267.239 449.044L267.33 448.936L267.504 448.836L267.595 448.729L268.25 448.43L268.358 448.339L268.723 448.24L268.839 448.148H269.038L269.195 448.032L270.19 448.065L270.339 448.148L270.721 448.248L270.82 448.356C271.707 448.87 271.914 449.06 272.976 448.977L273.092 448.886L273.365 448.787L273.456 448.679L273.664 448.596L273.747 448.48L274.219 448.099L274.31 447.983L274.393 447.866L274.858 447.485L274.949 447.369L275.148 447.286L275.239 447.178L275.886 446.88L275.993 446.789L277.287 446.706L277.453 446.78L277.751 446.822L277.9 446.905L278.058 446.921L278.174 447.013L278.331 447.029L278.456 447.12L278.82 447.236L278.945 447.328L279.111 447.336L279.235 447.427L279.393 447.444L279.533 447.527L279.749 447.551L279.915 447.634L280.188 447.643L280.636 447.659L281.067 447.651L281.216 447.568L281.648 447.452L281.764 447.361L282.228 447.162L282.327 447.071L282.949 446.979C283.09 446.971 283.057 446.93 283.065 447.071C283.347 447.236 283.314 447.178 283.455 447.477L283.546 447.576L283.554 448.173L283.471 448.281L283.397 448.488L283.422 448.505ZM305.798 435.207L305.707 435.298L305.624 435.489L305.516 435.588L305.441 435.804L305.334 435.895C305.102 436.243 304.845 436.575 304.505 436.79L304.413 436.915L304.123 437.089L304.032 437.197L303.941 437.205L303.85 437.304L303.394 437.512L303.294 437.603L302.83 437.702L302.697 437.785L302.374 437.81L302.216 437.885H301.296L301.039 437.76L300.252 437.57L300.152 437.47L300.053 437.462L299.961 437.362L299.87 437.354L299.779 437.255L299.298 436.956L299.215 436.84L298.909 436.658L298.809 436.558L298.718 436.45L298.055 436.641L297.963 436.749L297.872 436.848L297.408 437.238C297.408 437.387 297.449 437.354 297.317 437.346L297.217 437.445L297.134 437.561L296.479 438.15L296.388 438.249L296.289 438.349C295.932 438.598 295.7 438.83 295.277 438.954L295.161 439.045L293.868 439.128L293.735 439.045L293.072 438.739L292.981 438.631L292.599 438.341L292.508 438.225L292.417 438.125L292.318 438.026L292.226 437.918L292.143 437.91L292.036 437.918L291.828 438.001L291.737 438.125L290.618 439.203L290.535 439.327L290.162 439.609L290.079 439.717L289.88 439.808L289.789 439.908L289.706 439.916L289.606 440.015H289.515L289.416 440.106L289.333 440.115C289.333 440.256 289.366 440.214 289.233 440.206L289.059 440.214L288.935 440.297L288.703 440.314L288.537 440.388L287.468 440.38L287.293 440.305L286.978 440.281L286.829 440.198L286.589 440.181L286.456 440.09L286.282 440.082L286.166 439.99L285.337 439.667L285.229 439.576L284.657 439.369L284.027 440.256L283.911 440.347L283.19 441.151L283.107 441.267L282.087 441.856L281.971 441.939L281.813 441.947L281.681 442.03L281.374 442.055L281.2 442.129L280.644 442.138L280.379 442.022L279.716 441.922L279.6 441.831L279.442 441.823C279.293 441.831 279.326 441.872 279.326 441.731H279.227L279.135 441.632L279.053 441.624L278.953 441.524H278.854L278.754 441.425H278.663L278.563 441.325L278.182 441.118L278.091 441.01L277.892 440.919L277.801 440.811L277.137 440.496L276.997 440.413L276.225 440.405L276.093 440.488H275.902L275.786 440.579L275.338 440.786L275.247 440.894L275.057 440.985L274.974 441.093L274.692 441.284L274.601 441.392L274.509 441.491L274.037 441.872L273.954 441.988L273.863 442.105L273.473 442.378L273.382 442.494L272.387 443.099L272.271 443.182H272.171C272.171 443.323 272.205 443.282 272.064 443.273L271.45 443.39L271.268 443.456L270.671 443.464L270.464 443.365L270.215 443.356L270.066 443.265L269.892 443.257L269.775 443.166L269.419 443.05L269.319 442.95L268.739 442.643L268.648 442.544L268.167 442.345L267.786 442.337H267.612L267.496 442.428L267.04 442.635L266.957 442.743L266.758 442.834L266.666 442.934L266.575 443.041C266.119 443.373 265.614 444.069 265.373 444.65L265.282 444.749C265.158 445.056 265.1 445.197 264.826 445.346L264.718 445.437C264.237 445.437 264.055 445.462 263.773 445.023L263.682 444.915L263.756 443.92L263.848 443.821V443.721L263.939 443.622L264.121 443.207L264.221 443.116L264.395 442.826L264.503 442.726C264.76 442.229 265.166 441.839 265.605 441.516L265.696 441.4L265.978 441.226L266.07 441.118L266.89 440.712L267.006 440.62L267.487 440.529L267.678 440.43L268.3 440.455L268.449 440.538L268.615 440.546L268.731 440.637L269.585 441.052L269.676 441.159C270.207 441.441 270.347 441.582 270.969 441.665L271.193 441.574L271.649 441.466L271.74 441.375L272.138 441.184L272.221 441.077L272.495 440.894L272.578 440.77L273.141 440.297L273.233 440.189L273.324 440.073L273.697 439.791L273.78 439.675L274.07 439.501L274.153 439.385L274.543 439.195L274.642 439.095L274.899 438.979L274.999 438.888H275.098L275.206 438.797L275.38 438.788L275.496 438.697L276.275 438.581C276.524 438.473 276.748 438.424 276.988 438.622H277.254L277.411 438.705L277.859 438.821C277.991 438.813 277.958 438.78 277.967 438.913L278.713 439.327L278.812 439.435L279.202 439.642L279.293 439.75L279.484 439.841L279.583 439.941L279.674 439.949L279.774 440.048L279.857 440.057L279.956 440.156L280.462 440.247L280.653 440.355L280.993 440.347L281.142 440.264L281.565 440.148L281.664 440.048L281.863 439.957L281.946 439.849L282.593 439.153L282.692 439.054L282.792 438.954L282.966 438.672L283.074 438.573L283.637 437.976L283.72 437.868L283.985 437.76L284.102 437.669L284.342 437.652L284.549 437.578L284.831 437.561L285.047 437.661L285.295 437.677L285.411 437.769L285.801 437.876L285.901 437.968L286.265 438.084L286.373 438.175L286.738 438.291L286.854 438.382L287.036 438.39L287.161 438.482H287.434L287.608 438.598L288.23 438.581L288.371 438.498L288.537 438.49C288.537 438.349 288.504 438.39 288.645 438.399L288.927 438.299L289.018 438.191L289.499 437.901L289.582 437.793L289.673 437.694L289.764 437.586L290.809 436.616L290.9 436.492C291.173 436.285 291.298 436.168 291.629 436.102L291.77 436.019L292.475 436.028L292.608 436.119L292.881 436.226L292.972 436.334L293.163 436.425L293.254 436.55L293.942 437.13L294.034 437.238L294.108 437.255L294.224 437.346L294.979 437.163L295.07 437.056L295.161 436.948L295.733 436.475L295.824 436.359L295.907 436.243L295.99 436.152L296.098 436.044L296.77 435.48L296.852 435.364L297.043 435.273L297.134 435.165L297.317 435.074L297.408 434.975H297.507L297.599 434.875L297.682 434.867L297.781 434.776H297.963L298.088 434.684L299.083 434.693C299.232 434.684 299.199 434.643 299.199 434.784L299.481 434.892L299.572 435L300.152 435.397L300.243 435.522L300.724 435.82L300.824 435.92L301.329 436.003L302.075 436.036C302.59 436.019 302.755 435.845 303.186 435.638L303.269 435.53L303.651 435.248L303.75 435.14L304.297 434.336L304.397 434.245L304.48 434.038L304.571 433.938L304.654 433.822C305.085 433.598 305.433 433.557 305.79 433.971C306.188 434.444 305.989 434.801 305.831 435.265L305.798 435.207ZM304.032 426.104L303.933 426.203L303.767 426.51L303.651 426.601L303.004 427.289L302.913 427.405C302.565 427.621 302.374 427.812 301.968 427.894L301.86 427.986L300.882 428.077L300.716 427.994L300.301 427.87L300.194 427.778L299.796 427.579L299.704 427.472L299.423 427.273L299.331 427.148L298.942 426.858L298.85 426.75H298.734L298.461 426.717L297.789 427.032L297.706 427.14L297.516 427.231L297.425 427.347L297.151 427.53L297.06 427.646L296.761 427.828L296.67 427.953L296.297 428.234L296.206 428.35L295.65 428.74L295.559 428.848L295.368 428.939L295.277 429.039L294.622 429.337L294.515 429.428L293.992 429.544L293.851 429.627L292.848 429.611L292.707 429.528C292.135 429.403 291.878 429.097 291.397 428.798L291.306 428.682L291.016 428.491L290.925 428.375L290.717 428.284L290.618 428.185L290.004 428.093L289.855 428.176L289.689 428.185L289.582 428.276L288.636 428.765L288.554 428.873L288.355 428.964L288.263 429.08L287.899 429.362L287.807 429.478L287.418 429.76L287.327 429.884L286.954 430.166L286.862 430.282L285.843 430.97L285.751 431.07L285.66 431.078L285.569 431.178L285.204 431.277C285.204 431.418 285.237 431.377 285.096 431.368L284.856 431.377L284.682 431.451L284.118 431.443L283.919 431.377C283.413 431.302 283.082 431.086 282.634 430.846L282.543 430.738L282.162 430.531L282.062 430.423L281.606 430.208L281.482 430.116L281.142 430.125L281.009 430.208C280.603 430.307 280.437 430.489 280.081 430.705L279.998 430.813L279.708 430.995L279.625 431.111L279.442 431.211L279.351 431.318L279.053 431.493L278.97 431.6L278.878 431.609L278.787 431.708L278.414 431.907L278.315 432.007H278.215L278.124 432.098L277.776 432.214C277.776 432.355 277.809 432.313 277.651 432.305L276.275 432.487L276.035 432.396L275.703 432.38L275.562 432.297L275.38 432.288L275.264 432.197L275.115 432.181L274.999 432.09L274.824 432.081L274.717 431.99L274.36 431.874L274.244 431.783H274.045L273.871 431.667L273.44 431.692L273.282 431.766L273.141 431.783L273.017 431.874L272.934 431.882L272.843 431.982L272.652 432.073L272.561 432.172L272.47 432.28L271.251 433.466L271.16 433.565L271.069 433.665L270.878 433.764L270.787 433.872L270.14 434.17L270.024 434.262L269.792 434.278L269.502 434.345L269.104 434.353L268.888 434.245L268.64 434.237L268.524 434.146L268.341 434.137L268.233 434.046H268.134L268.034 433.947L267.28 433.524L267.189 433.416C266.55 433.084 266.584 433.002 265.862 433.209L265.763 433.3H265.655L265.572 433.399L265.489 433.408L265.398 433.507L265.199 433.598L265.108 433.714L264.096 434.809L263.997 434.908L263.897 435.008L263.359 435.804L263.251 435.903C262.894 436.591 262.098 436.616 261.742 435.903L261.651 435.787L261.717 435.091L261.816 434.991L262.09 434.494L262.198 434.394L262.546 433.905L262.662 433.806C262.994 433.275 263.557 432.678 264.047 432.313L264.13 432.189L264.411 432.007L264.503 431.899L264.892 431.708L264.983 431.609L265.083 431.6L265.174 431.509L265.937 431.31L266.144 431.211L266.965 431.31L267.089 431.401L267.247 431.418L267.355 431.517L267.446 431.526L267.545 431.625L267.636 431.634L267.728 431.733L268.598 432.239L268.698 432.338L269.154 432.454L269.46 432.446L270.016 432.247L270.107 432.148L270.207 432.048L271.525 430.771L271.616 430.647L271.898 430.465L271.989 430.365L272.089 430.373L272.188 430.266L272.445 430.158L272.544 430.058L272.71 430.05L272.818 429.959L273.1 429.967L273.299 429.868L274.029 429.876L274.227 429.984L274.999 430.191L275.115 430.282L275.28 430.29C275.43 430.282 275.396 430.232 275.405 430.382L275.562 430.39C275.72 430.373 275.687 430.332 275.687 430.481L275.844 430.498L276.002 430.572L276.988 430.597L277.113 430.514L277.27 430.498L277.37 430.407L277.643 430.307L277.734 430.208H277.834L277.925 430.108L278.124 430.017L278.207 429.909L278.406 429.826L278.497 429.71L278.771 429.528L278.862 429.42L279.053 429.329L279.144 429.221L279.326 429.13L279.417 429.03C279.907 428.79 280.238 428.541 280.794 428.425L280.968 428.35H281.755L281.896 428.433L282.045 428.45L282.153 428.541L282.825 428.856L282.908 428.964L283.115 429.055L283.206 429.163L283.853 429.478L283.977 429.569H284.715L284.831 429.478L285.188 429.362L285.287 429.262L285.494 429.18L285.577 429.063L285.859 428.881L285.95 428.765L286.406 428.384L286.498 428.259L286.978 427.886L287.061 427.77L287.343 427.579L287.426 427.463L288.197 426.983L288.28 426.883L288.371 426.875L288.462 426.784H288.57L288.661 426.692L289.018 426.585L289.126 426.493L289.3 426.485L289.416 426.394L290.717 426.303L290.875 426.377L291.588 426.709L291.679 426.817L291.878 426.908L291.969 427.024L292.268 427.215L292.359 427.331L292.641 427.521L292.732 427.637L293.022 427.737L293.122 427.828C293.661 427.845 293.669 427.762 294.141 427.637L294.241 427.546L294.631 427.356L294.722 427.248L294.912 427.148L295.004 427.032L295.385 426.767L295.468 426.651L295.742 426.452L295.841 426.352L295.932 426.245L296.214 426.054L296.297 425.938L296.579 425.755L296.67 425.639L296.869 425.548L296.952 425.44L297.325 425.25L297.425 425.15L297.773 425.034L297.889 424.943C298.958 424.81 298.627 424.786 299.605 425.159L299.696 425.266L299.895 425.358L299.995 425.482C300.268 425.747 300.591 426.046 300.948 426.187L301.097 426.278L301.611 426.195L301.702 426.095L301.893 426.004L301.984 425.896L302.092 425.797L302.175 425.714C302.175 425.565 302.142 425.606 302.274 425.606C302.706 424.951 302.83 424.57 303.667 424.611L303.775 424.703L303.858 424.711L303.949 424.827L304.04 424.918L304.148 425.009C304.339 425.606 304.281 425.615 304.065 426.12L304.032 426.104ZM301.52 416.304L301.412 416.404L301.246 416.702L301.139 416.793L300.691 417.39L300.583 417.506L299.937 418.087L299.845 418.203L299.663 418.294C299.663 418.443 299.704 418.41 299.572 418.402L298.734 418.8L298.593 418.883L298.378 418.908L298.229 418.99L297.856 418.982C297.665 419.231 297.143 419.106 296.927 418.982L296.579 418.974L296.438 418.891L296.272 418.883L296.148 418.791L295.302 418.377C295.169 418.377 295.211 418.41 295.203 418.261L294.921 418.07L294.821 417.962L294.722 417.863C294.108 417.515 294.158 417.639 293.586 417.954L293.495 418.062L293.205 418.244L293.122 418.36L292.649 418.75L292.558 418.858L292.467 418.957L292.376 419.073L291.895 419.438L291.812 419.554L291.348 419.853L291.256 419.952C290.61 420.275 290.336 420.375 289.59 420.325L289.441 420.242C289.034 420.176 288.935 420.06 288.603 419.828L288.504 419.72L288.404 419.621L288.031 419.214L287.924 419.115L287.824 418.999L287.642 419.09L287.559 419.214L286.431 420.284L286.34 420.4L286.249 420.516L285.959 420.698L285.867 420.814L285.677 420.897L285.586 421.005C285.188 421.245 284.831 421.453 284.367 421.494L284.176 421.594C283.248 421.577 283.074 421.527 282.203 421.37C282.037 421.386 282.062 421.436 282.062 421.279L281.714 421.163L281.606 421.071H281.507L281.407 420.972L281.332 420.964L281.233 420.864L281.15 420.856L281.051 420.756L280.669 420.657L280.537 420.566C280.139 420.615 279.973 420.93 279.732 421.262L279.616 421.353L279.177 421.958L279.069 422.05L278.978 422.157L278.505 422.539L278.422 422.655L278.232 422.738L278.141 422.846L278.058 422.854L277.958 422.953H277.867L277.776 423.053C277.096 423.243 276.897 423.335 276.151 423.318L275.944 423.252L275.612 423.235C275.454 423.243 275.479 423.293 275.479 423.144L275.338 423.127L275.206 423.036L274.551 422.721L274.451 422.622L274.078 422.414L273.987 422.315L273.78 422.215L273.689 422.108L273.498 422.008L273.407 421.9L272.768 421.585L272.611 421.502L271.898 421.494L271.757 421.577L271.541 421.602L271.409 421.685L270.563 422.075L270.472 422.191L270.19 422.373L270.099 422.472L270.008 422.58L269.535 422.962L269.452 423.078L269.361 423.185L268.988 423.459L268.897 423.575L268.698 423.666L268.606 423.766L267.769 424.164L267.653 424.255L267.487 424.263L267.355 424.354H267.172L267.015 424.47L265.705 424.437L265.564 424.354L265.323 424.33C265.174 424.346 265.199 424.388 265.199 424.238L264.528 423.932L264.436 423.824L263.674 423.409L263.541 423.326C263.102 423.326 262.828 423.484 262.455 423.699L262.372 423.807L262.09 423.99C262.09 424.139 262.132 424.106 261.991 424.097L261.899 424.197L261.816 424.305L261.709 424.404L261.535 424.703L261.435 424.794L261.261 425.217L261.17 425.316V425.416L261.079 425.515V425.623L260.987 425.722L260.896 425.905L260.797 426.021L260.614 426.112L260.498 426.203H260.067L259.943 426.112H259.843L259.752 425.996C259.495 425.731 259.537 425.814 259.47 425.474C259.222 425.3 259.387 425.183 259.454 425.084L259.462 424.91L259.545 424.794L259.827 424.106L259.918 424.006L260.001 423.791L260.1 423.691L260.183 423.492L260.274 423.393L260.374 423.293L261.103 422.497L261.186 422.381L261.667 422.091L261.75 421.992L262.223 421.793L262.322 421.701L262.762 421.594L262.903 421.511L263.881 421.527L264.03 421.61L264.196 421.619L264.304 421.71H264.403L264.494 421.809L264.586 421.818L264.685 421.917L265.348 422.323L265.456 422.423H265.556L265.663 422.514L265.829 422.53L265.962 422.613L266.716 422.622L266.882 422.539L267.048 422.53L267.156 422.439L267.612 422.232L267.703 422.124L268.01 421.958L268.092 421.842L268.466 421.56L268.557 421.453L268.648 421.345L269.12 420.972L269.203 420.856L269.668 420.557L269.759 420.458L269.941 420.367C269.941 420.226 269.908 420.251 270.041 420.259L270.149 420.267L270.24 420.176L270.779 419.969C270.779 419.828 270.745 419.869 270.895 419.878L271.06 419.869L271.193 419.786L271.392 419.761L271.574 419.687L272.826 419.703L272.984 419.786L273.432 419.902L273.539 419.994L273.813 420.101L273.904 420.201L273.995 420.209L274.087 420.309L274.277 420.4L274.368 420.508L274.584 420.599L274.675 420.707L274.874 420.806L274.965 420.914L275.338 421.129L275.438 421.229H275.537L275.637 421.328L276.143 421.428L276.648 421.461L276.847 421.444L276.972 421.362L277.428 421.154L277.519 421.046L278.257 420.251L278.348 420.151L278.447 420.052C278.754 419.596 279.069 419.189 279.575 418.966L279.666 418.866L280.76 418.775L280.885 418.874H281.059C281.208 418.866 281.175 418.825 281.175 418.966L282.286 419.496L282.394 419.587L282.85 419.703L282.991 419.786H283.878L284.044 419.712L284.184 419.695L284.301 419.604L284.757 419.397L284.839 419.289L285.138 419.115L285.221 418.999L286.605 417.606L286.696 417.49L286.895 417.399L286.987 417.299H287.086L287.186 417.2L287.335 417.183L287.468 417.1L288.073 417.108L288.214 417.2L288.487 417.307L288.578 417.423L289.142 418.029C289.283 418.029 289.25 417.996 289.25 418.145L289.747 418.427L290.013 418.435H290.195L290.286 418.335L290.775 418.054L290.858 417.937L291.339 417.556L291.43 417.448L291.522 417.332L292.085 416.851L292.168 416.727L292.45 416.545L292.541 416.437L292.923 416.238L293.014 416.138L293.097 416.13L293.196 416.039H293.296L293.395 415.948L293.851 415.848L294.05 415.74L294.481 415.765L294.614 415.848L294.796 415.857L294.888 415.956L294.979 415.964L295.078 416.064L295.659 416.462L295.75 416.578L296.032 416.777L296.123 416.885L296.595 417.092L296.728 417.175L297.043 417.2L297.607 417.175C298.179 417.15 298.303 416.968 298.784 416.711L298.867 416.594L299.688 415.707L299.804 415.608L299.97 415.293L300.086 415.202L300.26 415.003L300.351 414.895H300.434L300.558 414.804L300.998 414.812L301.106 414.903L301.387 415.11L301.503 415.21C301.702 415.782 301.653 415.823 301.429 416.321L301.52 416.304ZM299.655 406.795L299.389 407.301L299.282 407.392L298.933 407.898L298.826 407.989L298.734 408.088L298.652 408.204L298.361 408.387L298.27 408.495L298.088 408.586C298.088 408.727 298.121 408.694 297.988 408.685H297.897L297.798 408.776L297.358 408.884L297.217 408.967L296.421 408.959L296.264 408.876L295.833 408.752L295.733 408.652L295.352 408.453L295.261 408.345L294.954 408.155L294.871 408.039L294.78 407.931L294.473 407.748L294.382 407.641L294.291 407.632L294.175 407.541L294.125 407.549C294.125 407.707 294.158 407.649 293.984 407.632L293.437 407.84L293.346 407.939L293.147 408.022L293.064 408.13L292.873 408.229L292.79 408.345L292.4 408.619L292.309 408.727L292.226 408.843L291.853 409.125L291.77 409.241L291.372 409.506L291.289 409.622L291.09 409.713L291.008 409.821L290.179 410.227L290.046 410.31L289.797 410.327L289.665 410.41H288.686L288.529 410.327L288.297 410.302L288.156 410.219L287.99 410.211L287.882 410.111L287.426 409.896L287.318 409.788H287.227L287.128 409.68L286.456 409.274L286.357 409.166C285.809 408.851 285.801 408.926 285.229 409.058L285.13 409.15L284.665 409.357L284.574 409.456L284.375 409.547L284.292 409.655L284.019 409.838L283.927 409.962L283.538 410.236L283.455 410.36L282.991 410.741L282.899 410.866L282.609 411.048L282.518 411.156L281.573 411.744L281.482 411.844L281.134 411.96L281.017 412.043H280.835L280.702 412.134L280.479 412.151L280.313 412.225L279.417 412.217L279.26 412.134L279.036 412.109L278.912 412.018L278.53 411.91L278.439 411.811L278.348 411.802L278.248 411.703L278.049 411.612L277.958 411.504L277.577 411.297L277.486 411.189C276.731 410.799 276.657 410.915 275.968 411.272L275.886 411.388L275.612 411.579L275.521 411.703L275.131 411.977L275.04 412.084L274.957 412.192L274.758 412.275L274.667 412.391C274.302 412.673 273.888 412.971 273.456 413.071L273.34 413.162L273.191 413.179L273.075 413.27L272.81 413.278L272.586 413.369L271.89 413.361L271.682 413.262H271.392L271.243 413.179L270.522 412.955L270.414 412.864L269.792 412.632L269.659 412.54L269.46 412.549L269.278 412.433L268.532 412.532L268.432 412.632L268.159 412.731L268.068 412.847L266.575 414.323L266.484 414.439L266.293 414.53L266.21 414.63L265.746 414.829L265.63 414.92L265.489 414.936L265.34 415.019L264.428 415.011L264.271 414.936L264.055 414.903L263.939 414.812L263.259 414.505L263.168 414.397L262.786 414.19L262.687 414.091L262.405 413.983L262.297 413.892L261.659 413.883L261.51 413.966L261.162 414.074L261.07 414.182L260.598 414.472L260.507 414.58L260.424 414.696L259.785 415.392L259.669 415.483L259.404 415.881L259.296 415.973L259.13 416.296L259.023 416.387L258.931 416.578L258.832 416.669L258.666 416.976L258.567 417.092L257.854 417.266L257.713 417.183H257.63L257.539 417.067C257.132 416.686 257.124 416.487 257.24 415.973L257.323 415.873V415.765L257.422 415.666L257.58 415.351L257.688 415.26L257.779 415.069L257.887 414.978L258.135 414.563L258.252 414.472L258.782 413.759L258.882 413.643L259.545 413.063L259.636 412.963L259.727 412.864L259.91 412.764L259.993 412.656L260.183 412.565L260.274 412.466H260.366L260.457 412.366H260.556L260.656 412.267H260.755L260.855 412.176L261.021 412.159L261.137 412.068L261.286 412.051L261.427 411.968L262.745 412.076L262.853 412.167L263.317 412.383L263.408 412.482L263.79 412.69L263.881 412.789L264.353 413.005L264.469 413.096L264.644 413.104H265.025L265.597 412.814L265.688 412.706L265.779 412.607L265.871 412.507L265.962 412.408L266.061 412.308L266.426 411.919L266.517 411.811L266.617 411.711L266.708 411.604L266.998 411.421L267.081 411.313L267.255 411.214C267.255 411.073 267.222 411.106 267.355 411.114H267.446L267.537 411.015L267.628 411.007L267.728 410.907L267.835 410.915L267.935 410.824L268.109 410.816L268.25 410.733L268.532 410.7L268.731 410.634L269.361 410.65L269.552 410.716L269.775 410.733L269.908 410.824L270.663 411.04L270.779 411.131L270.936 411.148L271.044 411.239L271.226 411.247L271.334 411.338L271.516 411.347L271.641 411.438H272.611L272.743 411.355L273.415 411.065L273.506 410.957L273.68 410.857L273.771 410.741L274.244 410.368L274.327 410.252L274.982 409.763L275.073 409.655L275.454 409.465L275.546 409.365L276.192 409.166L276.342 409.083L277.237 409.091C277.386 409.075 277.353 409.033 277.353 409.183L278.224 409.597L278.315 409.697L278.505 409.796L278.597 409.904L278.688 409.912L278.787 410.02L279.252 410.227C279.409 410.219 279.376 410.169 279.384 410.318H279.567L280.031 410.335H280.288L280.421 410.252L280.595 410.244L280.694 410.153H280.794L280.877 410.053H280.976L281.075 409.954L281.241 409.854L281.332 409.746L281.531 409.655L281.623 409.556L281.714 409.448L282.095 409.166L282.186 409.058L282.278 408.951L282.734 408.569L282.825 408.445L283.115 408.271L283.206 408.155L283.397 408.063L283.48 407.956L283.845 407.757L283.936 407.657L284.234 407.566L284.325 407.467H284.417L284.524 407.375L284.665 407.359L284.798 407.276L284.964 407.268L285.113 407.193L285.453 407.185C285.718 406.986 285.785 406.994 286.066 407.168L286.365 407.201L286.481 407.292L286.962 407.5L287.053 407.607L287.235 407.707L287.335 407.815L287.534 407.906L287.633 408.005L288.396 408.42L288.512 408.511L288.661 408.536L288.802 408.627H289.308L289.432 408.544L289.606 408.536L289.723 408.445L289.822 408.453L289.913 408.354L290.751 407.765L290.833 407.657L290.916 407.541L291.389 407.168L291.472 407.044L291.845 406.77L291.936 406.654L292.143 406.571L292.226 406.463L292.409 406.364L292.5 406.256H292.591L292.691 406.157L293.138 405.949C293.138 405.808 293.105 405.85 293.246 405.858L293.404 405.85L293.553 405.767L294.465 405.775L294.589 405.866L294.954 405.983L295.045 406.09L295.244 406.181L295.335 406.298L295.824 406.687L295.916 406.803L296.214 406.986L296.314 407.093L296.852 407.193L296.969 407.102H297.06L297.151 406.994C297.532 406.745 297.748 406.497 297.972 406.09L298.079 405.991C298.477 405.477 298.477 405.369 299.182 405.41L299.29 405.51L299.389 405.502L299.481 405.609L299.563 405.709L299.68 405.808C299.845 406.206 299.829 406.322 299.688 406.712L299.597 406.812L299.655 406.795ZM297.507 396.996C297.516 397.136 297.549 397.095 297.416 397.095L297.333 397.302L297.234 397.402L297.143 397.601L297.043 397.692L296.877 398.007L296.77 398.098L295.924 398.985L295.841 399.101L295.659 399.201L295.567 399.309L294.912 399.607L294.805 399.698L294.647 399.707C294.647 399.847 294.68 399.806 294.531 399.798L294.282 399.814L294.141 399.897L293.652 399.914C293.404 400.046 293.37 400.055 293.097 399.897L292.691 399.872L292.525 399.789L292.268 399.773L292.135 399.682L291.978 399.665C291.837 399.673 291.87 399.715 291.87 399.574L291.207 399.259L291.115 399.151C290.626 398.869 290.51 398.546 289.913 398.546L289.764 398.629L289.399 398.737L289.316 398.836L288.844 399.126L288.753 399.242L288.363 399.516L288.28 399.64L287.807 400.005L287.716 400.138L287.351 400.42L287.26 400.536L287.061 400.618L286.97 400.735L286.779 400.826L286.688 400.925L286.406 401.025L286.299 401.116L285.876 401.232L285.718 401.307L285.204 401.298L285.055 401.215L284.325 400.892L284.234 400.776L283.355 399.98L283.256 399.881H283.181L283.074 399.972L282.883 400.063L282.8 400.179L282.709 400.279L282.609 400.37L282.518 400.469L282.435 400.585L281.689 401.273L281.606 401.381L281.515 401.489L281.316 401.58L281.233 401.688L281.042 401.779L280.951 401.879L280.487 402.078L280.387 402.169L279.923 402.268L279.782 402.351L279.459 402.36C279.185 402.525 278.961 402.517 278.68 402.351L278.29 402.36L278.124 402.243H277.85C277.701 402.252 277.734 402.293 277.734 402.152L277.361 402.044L277.262 401.945L277.179 401.937L277.079 401.837H276.972C276.839 401.846 276.872 401.879 276.872 401.738L276.599 401.63L276.499 401.53L276.408 401.522L276.308 401.431L275.828 401.323L275.363 401.92L275.256 402.011L274.999 402.434L274.899 402.534L274.8 402.633L274.053 403.421L273.962 403.537L273.78 403.628L273.697 403.736C273.307 403.935 273.034 404.101 272.586 404.125L272.379 404.225L271.434 404.208L271.226 404.101L270.903 404.084L270.762 404.001L270.588 403.993L270.48 403.902L270.099 403.794L269.999 403.694L269.916 403.686L269.817 403.587L269.535 403.479L269.444 403.371L268.955 403.081L268.863 402.965L268.664 402.874L268.573 402.766L268.374 402.666L268.283 402.567L268.209 402.55L268.109 402.451H268.01L267.885 402.36L267.089 402.343C267.089 402.492 267.122 402.442 266.957 402.426L266.791 402.434L266.683 402.525L266.608 402.534L266.517 402.633L266.409 402.625L266.318 402.733L266.136 402.832L266.045 402.923L265.953 403.031L265.141 403.935L265.033 404.034L264.934 404.125L264.843 404.225L264.751 404.324L264.66 404.424L264.569 404.532L264.271 404.714L264.188 404.822L263.483 405.137L263.317 405.211L262.521 405.203L262.372 405.12L262.214 405.104L262.115 405.004L262.032 404.996L261.924 404.896L261.825 404.905L261.734 404.805L261.361 404.598L261.269 404.49L261.07 404.399L260.971 404.291H260.88L260.772 404.192L260.606 404.183L260.473 404.092L259.951 404.084L259.81 404.167L259.653 404.175L259.545 404.266L258.517 404.855L258.426 404.963L258.343 405.079L257.887 405.568L257.779 405.659L257.688 405.759L257.522 406.065L257.414 406.157L257.34 406.38L257.24 406.48L257.157 406.679L257.058 406.787C256.668 407.027 256.676 406.977 256.212 406.952C256.079 406.961 256.113 406.994 256.104 406.853L255.715 406.455C255.582 406.455 255.615 406.488 255.623 406.339C255.599 405.684 255.632 405.784 255.889 405.245L255.98 405.153L256.063 404.938C256.055 404.789 256.021 404.83 256.162 404.83L256.519 404.341L256.627 404.258L256.726 404.159L256.809 404.059L256.9 403.96L256.983 403.852L257.074 403.736L257.547 403.363L257.63 403.247L257.82 403.155L257.903 403.048L258.276 402.849C258.276 402.708 258.243 402.741 258.376 402.749H258.467L258.567 402.658H258.666L258.757 402.558C259.711 402.31 259.702 402.21 260.797 402.277C260.971 402.26 260.938 402.21 260.938 402.36L261.103 402.368C261.244 402.36 261.211 402.318 261.211 402.467H261.302L261.402 402.567L261.477 402.575L261.576 402.675H261.667L261.767 402.774L262.165 402.973L262.264 403.073L262.339 403.081L262.447 403.18L263.11 403.288L263.201 403.189C263.773 402.832 264.179 401.995 264.793 401.597L264.884 401.481L265.149 401.282L265.232 401.174L265.63 401L265.73 400.9C266.7 400.486 267.048 400.444 268.142 400.519L268.275 400.61L268.416 400.627L268.54 400.726L269.212 401.033L269.311 401.133L269.684 401.34L269.775 401.448C270.323 401.779 270.629 402.144 271.284 402.268L271.45 402.343L272.155 402.368L272.329 402.252L272.826 402.078L272.909 401.97L273.639 401.174L273.747 401.083L273.912 400.768L274.012 400.668L274.111 400.577L274.758 399.881L274.841 399.773L275.314 399.574L275.43 399.483L276.648 399.59L276.748 399.682L277.685 400.113L277.784 400.212L278.165 400.32L278.298 400.411L278.447 400.428L278.597 400.511H279.467L279.591 400.428L279.973 400.328L280.064 400.237L280.139 400.221L280.23 400.121L280.421 400.03L280.503 399.914C281.241 399.391 281.946 398.148 282.825 398.032L282.999 397.957L283.38 397.966L283.538 398.04L283.695 398.057L283.803 398.156H283.903L284.002 398.256L284.193 398.355L284.284 398.48L285.163 399.275L285.254 399.375C285.851 399.433 285.826 399.292 286.29 398.994L286.373 398.877L286.846 398.496L286.929 398.38L287.02 398.264L287.409 397.99L287.492 397.874L287.774 397.692L287.865 397.576L288.338 397.286L288.438 397.186L288.52 397.178L288.612 397.078H288.703L288.802 396.979L289.573 396.797L289.781 396.705H290.386L290.535 396.788L291.256 397.12L291.348 397.228L291.563 397.319L291.654 397.418L291.853 397.51L291.944 397.617L292.4 397.833L292.508 397.924L292.666 397.932L292.823 398.015L294.199 397.941L294.307 397.849L294.564 397.742L294.664 397.634L294.946 397.451L295.029 397.319L295.211 397.136L295.31 397.037C295.302 396.896 295.269 396.929 295.41 396.929L295.584 396.622L295.692 396.531L295.783 396.332L295.882 396.241L296.048 395.918L296.148 395.818L296.239 395.71L296.521 395.619C296.645 395.52 296.736 395.362 296.886 395.636C297.226 395.702 297.118 395.652 297.383 395.934L297.483 396.034L297.491 396.133L297.574 396.258L297.499 396.954L297.507 396.996Z" fill="#FEFEFE"/>
<path fill-rule="evenodd" clip-rule="evenodd" d="M93.0028 214.188L99.6933 201.893C99.6933 201.893 100.1 200.815 100.298 199.29H90.9136L82.9629 214.188H93.0028ZM100.34 196.405C100.141 194.763 99.4943 193.055 97.9605 191.762C97.9605 191.762 104.137 185.395 109.012 178.066H102.545C100.274 181.432 99.2539 183.687 99.2539 183.687L92.4639 196.405H100.348H100.34ZM110.819 175.181C113.016 171.442 114.649 167.645 114.782 164.453C110.405 168.167 107.055 171.956 104.61 175.181H110.819ZM506.976 191.77C505.434 193.064 504.787 194.772 504.588 196.413H511.047L504.257 183.695C504.257 183.695 503.237 181.449 500.965 178.074H495.925C500.791 185.403 506.968 191.77 506.968 191.77H506.976ZM504.63 199.298C504.829 200.815 505.235 201.901 505.235 201.901L511.925 214.196H520.539L512.589 199.298H504.63ZM498.901 175.181C496.754 172.354 493.918 169.096 490.304 165.829C490.76 168.714 492.235 171.964 494.117 175.181H498.901ZM460.482 157.373C455.085 161.966 457.108 169.411 460.018 175.181H469.544L460.482 157.373ZM461.618 178.066C463.542 181.274 465.357 183.471 465.357 183.471L464.197 186.846L469.27 196.397H480.347L471.011 178.058H461.61L461.618 178.066ZM470.804 199.29L478.722 214.188H489.4L481.814 199.29H470.804ZM492.509 214.188H503.187L495.51 199.29H484.931L492.517 214.188H492.509ZM494.018 196.405L487.17 183.115C487.17 183.115 486.308 181.076 484.55 178.074H474.129L483.464 196.413H494.026L494.018 196.405ZM482.743 175.181C478.946 169.436 472.645 161.924 463.641 157.464L472.653 175.181H482.743ZM411.767 150.492C397.557 153.974 396.786 165.987 398.502 175.181H420.754L411.759 150.492H411.767ZM399.14 178.066C400.367 182.924 402.026 186.44 402.026 186.44L400.475 192.989L401.628 196.405H428.481L421.807 178.066H399.14ZM402.614 199.29L407.663 214.188H434.964L429.542 199.29H402.623H402.614ZM437.916 214.188H465.216L457.655 199.29H432.493L437.916 214.188ZM456.188 196.405L446.878 178.066H424.758L431.432 196.405H456.18H456.188ZM445.278 175.181C442.815 171.475 433.671 158.84 419.56 152.49C417.637 151.727 416.004 151.138 414.81 150.732L423.714 175.173H445.278V175.181ZM311.153 171.583V175.181H345.824L343.353 146.272C315.613 151.719 311.153 171.583 311.153 171.583ZM311.153 178.066V196.405H347.639L346.073 178.066H311.153ZM311.153 199.29V214.188H349.157L347.88 199.29H311.144H311.153ZM351.942 214.188H389.946L385.925 199.29H350.665L351.942 214.188ZM385.146 196.405L380.197 178.066H348.858L350.425 196.405H385.146ZM379.417 175.181L378.696 172.495C378.696 172.495 367.412 148.983 346.131 146.172L348.609 175.181H379.417ZM224.79 172.495L224.068 175.181H255.73L258.325 146.048C236.413 148.253 224.79 172.495 224.79 172.495ZM223.281 178.074L218.331 196.413H253.832L255.465 178.074H223.281ZM217.552 199.298L213.531 214.196H252.248L253.575 199.298H217.552ZM255.034 214.196H293.751V199.298H256.36L255.034 214.196ZM293.751 196.413V178.074H258.25L256.617 196.413H293.751ZM293.751 175.189V171.591C293.751 171.591 289.257 151.503 261.094 146.181L258.507 175.181H293.751V175.189ZM156.6 178.074L147.289 196.413H172.692L179.299 178.074H156.6ZM145.822 199.298L138.261 214.196H166.275L171.647 199.298H145.822ZM180.344 175.181L189.223 150.55C187.996 150.956 186.164 151.603 183.925 152.49C169.815 158.84 160.67 171.475 158.208 175.181H180.344ZM169.235 214.188H197.248L202.289 199.29H174.599L169.226 214.188H169.235ZM203.276 196.405L204.428 192.989L202.878 186.44C202.878 186.44 204.536 182.924 205.763 178.066H182.251L175.643 196.405H203.267H203.276ZM206.41 175.181C208.167 165.804 207.33 153.484 192.274 150.284L183.295 175.181H206.401H206.41ZM126.198 214.188L134.116 199.29H122.385L114.815 214.188H126.207H126.198ZM135.649 196.405L140.723 186.854L139.563 183.48C139.563 183.48 141.378 181.283 143.31 178.074H133.171L123.852 196.413H135.649V196.405ZM144.91 175.181C147.92 169.228 149.984 161.477 143.915 156.933L134.638 175.181H144.902H144.91ZM140.765 157.016C131.264 161.41 124.664 169.237 120.743 175.181H131.529L140.765 157.016ZM118.944 178.066C117.186 181.067 116.324 183.107 116.324 183.107L109.476 196.397H120.743L130.062 178.058H118.944V178.066ZM107.984 199.29L100.307 214.188H111.698L119.276 199.29H107.992H107.984Z" fill="#65FDF1"/>
</g>
<defs>
<clipPath id="clip0_1978_43541">
<rect width="609.539" height="610.627" fill="white"/>
</clipPath>
</defs>
</svg>
