<svg width="226" height="277" viewBox="0 0 226 277" fill="none" xmlns="http://www.w3.org/2000/svg">
<g filter="url(#filter0_dddd_19_799)">
<rect x="31" y="5" width="164" height="165" rx="24" fill="white"/>
<rect x="31.5" y="5.5" width="163" height="164" rx="23.5" stroke="#49E5E9"/>
<mask id="mask0_19_799" style="mask-type:luminance" maskUnits="userSpaceOnUse" x="31" y="5" width="164" height="165">
<path d="M194.876 5H31V169.899H194.876V5Z" fill="white"/>
</mask>
<g mask="url(#mask0_19_799)">
<path d="M50.002 61.7747H51.346L53.361 58.8282C53.361 58.8282 53.3654 58.8239 53.3677 58.8217C53.5371 57.964 53.3966 57.4761 53.2428 57.2187C53.176 57.1358 53.1002 57.0507 53.011 56.9632C53.1403 56.4461 53.7956 55.62 54.6939 54.6797C56.7846 51.9862 60.5091 47.6363 64.0442 45.8137H65.7205C65.7205 45.8137 81.08 27.979 106.448 24.0006C106.448 24.0006 107.825 22.6662 110.709 22.2632V22.2341C111.14 22.1871 111.547 22.1625 111.938 22.1535V22.1513C112 22.1513 112.067 22.1513 112.129 22.1535C112.194 22.1535 112.259 22.1513 112.321 22.1513C112.825 22.149 113.36 22.1714 113.932 22.2341V22.2632C116.817 22.6684 118.194 24.0006 118.194 24.0006C143.562 27.979 158.921 45.8137 158.921 45.8137H160.214H160.597C165.898 48.5496 171.631 56.9611 171.631 56.9611C170.423 58.1612 171.281 58.826 171.281 58.826L173.296 61.7725H174.64V62.5538H50.0064V61.7725L50.002 61.7747ZM50.002 65.1352H174.635V65.9143H50.002V65.1352ZM50.002 63.456H174.635V64.2375H50.002V63.456ZM53.3075 61.7769H56.0067L57.8055 58.4566C57.8055 58.4566 58.4674 56.6745 57.3374 55.7207C57.3374 55.7207 61.7417 51.1626 61.86 48.3438C61.86 48.3438 61.7598 48.4221 61.5812 48.5677C61.7573 48.4243 61.86 48.3438 61.86 48.3438C58.8911 50.8715 57.6851 53.5401 57.6851 53.5401L53.3075 61.7769ZM57.9706 61.7769H64.9314L68.8365 54.3953L68.5244 53.4842C68.5244 53.4842 72.8911 48.1804 69.3825 46.107C64.5168 48.0281 62.2768 53.3856 62.2768 53.3856L57.9706 61.779V61.7769ZM68.1767 61.7769H84.0358L85.9659 56.0521L85.5492 54.2835C85.5492 54.2835 89.6035 45.6638 82.3262 44.4481C82.3262 44.4481 81.5817 44.6652 80.4539 45.1154C75.9759 47.1391 73.3591 51.5252 73.3591 51.5252L68.1767 61.7769ZM88.4133 61.7769H109.981V50.2714C109.981 50.2714 108.732 44.6719 100.831 43.3444C94.6945 43.6892 91.4378 50.5177 91.4378 50.5177L88.4111 61.7769H88.4133ZM114.659 61.7769H135.845L132.818 50.5177C132.818 50.5177 129.653 43.8861 123.686 43.3668C115.898 44.7303 114.661 50.2714 114.661 50.2714V61.7769H114.659ZM140.604 61.7769H156.079L150.897 51.5252C150.897 51.5252 148.281 47.1391 143.803 45.1154C142.969 44.7816 142.343 44.578 142.075 44.4929C135.125 45.8564 139.091 54.2835 139.091 54.2835L138.674 56.0521L140.604 61.7769ZM159.706 61.7769H166.284L161.977 53.3835C161.977 53.3835 159.806 48.2026 155.105 46.2034C151.885 48.3392 156.113 53.482 156.113 53.482L155.801 54.3932L159.706 61.7747V61.7769ZM168.633 61.7769H170.949L166.571 53.5401C166.571 53.5401 165.479 51.1288 162.82 48.7175C163.27 51.5452 167.302 55.7207 167.302 55.7207C166.172 56.6745 166.834 58.4566 166.834 58.4566L168.633 61.7769Z" fill="#06B2B6"/>
<mask id="mask1_19_799" style="mask-type:luminance" maskUnits="userSpaceOnUse" x="50" y="22" width="125" height="44">
<path d="M50.002 61.7747H51.346L53.361 58.8282C53.361 58.8282 53.3654 58.8239 53.3677 58.8217C53.5371 57.964 53.3966 57.4761 53.2428 57.2187C53.176 57.1358 53.1002 57.0507 53.011 56.9632C53.1403 56.4461 53.7956 55.62 54.6939 54.6797C56.7846 51.9862 60.5091 47.6363 64.0442 45.8137H65.7205C65.7205 45.8137 81.08 27.979 106.448 24.0006C106.448 24.0006 107.825 22.6662 110.709 22.2632V22.2341C111.14 22.1871 111.547 22.1625 111.938 22.1535V22.1513C112 22.1513 112.067 22.1513 112.129 22.1535C112.194 22.1535 112.259 22.1513 112.321 22.1513C112.825 22.149 113.36 22.1714 113.932 22.2341V22.2632C116.817 22.6684 118.194 24.0006 118.194 24.0006C143.562 27.979 158.921 45.8137 158.921 45.8137H160.214H160.597C165.898 48.5496 171.631 56.9611 171.631 56.9611C170.423 58.1612 171.281 58.826 171.281 58.826L173.296 61.7725H174.64V62.5538H50.0064V61.7725L50.002 61.7747ZM50.002 65.1352H174.635V65.9143H50.002V65.1352ZM50.002 63.456H174.635V64.2375H50.002V63.456ZM53.3075 61.7769H56.0067L57.8055 58.4566C57.8055 58.4566 58.4674 56.6745 57.3374 55.7207C57.3374 55.7207 61.7417 51.1626 61.86 48.3438C61.86 48.3438 61.7598 48.4221 61.5812 48.5677C61.7573 48.4243 61.86 48.3438 61.86 48.3438C58.8911 50.8715 57.6851 53.5401 57.6851 53.5401L53.3075 61.7769ZM57.9706 61.7769H64.9314L68.8365 54.3953L68.5244 53.4842C68.5244 53.4842 72.8911 48.1804 69.3825 46.107C64.5168 48.0281 62.2768 53.3856 62.2768 53.3856L57.9706 61.779V61.7769ZM68.1767 61.7769H84.0358L85.9659 56.0521L85.5492 54.2835C85.5492 54.2835 89.6035 45.6638 82.3262 44.4481C82.3262 44.4481 81.5817 44.6652 80.4539 45.1154C75.9759 47.1391 73.3591 51.5252 73.3591 51.5252L68.1767 61.7769ZM88.4133 61.7769H109.981V50.2714C109.981 50.2714 108.732 44.6719 100.831 43.3444C94.6945 43.6892 91.4378 50.5177 91.4378 50.5177L88.4111 61.7769H88.4133ZM114.659 61.7769H135.845L132.818 50.5177C132.818 50.5177 129.653 43.8861 123.686 43.3668C115.898 44.7303 114.661 50.2714 114.661 50.2714V61.7769H114.659ZM140.604 61.7769H156.079L150.897 51.5252C150.897 51.5252 148.281 47.1391 143.803 45.1154C142.969 44.7816 142.343 44.578 142.075 44.4929C135.125 45.8564 139.091 54.2835 139.091 54.2835L138.674 56.0521L140.604 61.7769ZM159.706 61.7769H166.284L161.977 53.3835C161.977 53.3835 159.806 48.2026 155.105 46.2034C151.885 48.3392 156.113 53.482 156.113 53.482L155.801 54.3932L159.706 61.7747V61.7769ZM168.633 61.7769H170.949L166.571 53.5401C166.571 53.5401 165.479 51.1288 162.82 48.7175C163.27 51.5452 167.302 55.7207 167.302 55.7207C166.172 56.6745 166.834 58.4566 166.834 58.4566L168.633 61.7769Z" fill="white"/>
</mask>
<g mask="url(#mask1_19_799)">
<path d="M74.2818 45.0705C74.2216 45.1374 74.1391 45.1688 74.059 45.1688C73.981 45.1688 73.9006 45.1374 73.8404 45.0726C73.7178 44.9449 73.7156 44.7345 73.8361 44.6046C73.8673 44.5711 77.0413 41.1637 82.6781 37.0081C87.8782 33.1753 96.306 27.8961 106.925 24.5154C107.09 24.4639 107.263 24.5624 107.313 24.737C107.361 24.9116 107.268 25.0975 107.103 25.149C86.9332 31.5702 74.4044 44.9338 74.2797 45.0659L74.2818 45.0705ZM112.629 44.8374C112.629 45.021 112.488 45.1688 112.316 45.1688C112.142 45.1688 112.004 45.021 112.004 44.8374V24.8355C112.004 24.6519 112.142 24.5042 112.316 24.5042C112.488 24.5042 112.629 24.6519 112.629 24.8355V44.8374ZM150.324 45.0748C150.275 45.1264 150.213 45.1509 150.148 45.1598C150.084 45.1509 150.019 45.1242 149.97 45.0705C149.847 44.936 137.319 31.5745 117.147 25.1534C116.982 25.1019 116.888 24.9161 116.937 24.7415C116.973 24.6139 117.075 24.5266 117.191 24.5086C117.207 24.5109 117.222 24.5131 117.238 24.5199C127.857 27.9005 136.284 33.1796 141.484 37.0127C147.124 41.168 150.295 44.5755 150.326 44.6092C150.447 44.7391 150.445 44.9495 150.322 45.0772L150.324 45.0748ZM113.734 24.6922C113.781 24.5893 113.87 24.5243 113.968 24.5086C113.999 24.5131 114.033 24.5221 114.064 24.5378C122.006 28.6147 127.299 33.8715 130.342 37.5612C133.645 41.5666 135.047 44.5665 135.105 44.6921C135.181 44.8555 135.116 45.0548 134.962 45.1353C134.934 45.1509 134.905 45.1598 134.873 45.1644C134.773 45.1509 134.679 45.0883 134.632 44.9854C134.619 44.9562 133.2 41.9225 129.943 37.9776C126.941 34.3395 121.716 29.1588 113.879 25.1355C113.723 25.0549 113.658 24.8579 113.734 24.6922ZM110.373 25.1355C102.536 29.1588 97.3112 34.3395 94.3089 37.9776C91.0523 41.9225 89.6347 44.9541 89.6191 44.9854C89.5656 45.1018 89.4543 45.1712 89.3384 45.1712C89.2916 45.1712 89.2445 45.1598 89.2002 45.1374C89.0464 45.057 88.9816 44.8577 89.0574 44.6943C89.1155 44.569 90.5173 41.5687 93.8207 37.5634C96.8633 33.8715 102.157 28.617 110.099 24.54C110.252 24.4594 110.44 24.5288 110.515 24.6945C110.589 24.8602 110.524 25.0572 110.37 25.1378L110.373 25.1355Z" fill="#FEFEFE"/>
</g>
<path fill-rule="evenodd" clip-rule="evenodd" d="M95.4634 113.324H113.353H119.186H139.215C139.806 113.324 140.392 113.25 140.878 113.622C140.929 113.663 140.942 113.678 140.99 113.718C141.036 113.759 141.047 113.752 141.09 113.808C141.128 113.859 141.15 113.873 141.186 113.918C141.339 114.126 141.435 114.343 141.48 114.605C141.542 114.968 141.442 115.247 141.351 115.592C141.132 116.414 140.876 117.22 140.653 118.048C140.599 118.248 140.537 118.456 140.477 118.664L138.91 124.178C138.671 124.991 138.455 125.826 138.212 126.632C137.965 127.451 137.76 128.271 137.515 129.086L136.993 130.924C136.772 131.741 136.525 132.563 136.295 133.378L135.598 135.832C135.395 136.521 135.339 136.969 134.762 137.354C134.345 137.632 133.915 137.585 133.413 137.585H95.7107C95.2806 137.585 94.9639 137.661 94.6453 137.896C94.5272 137.983 94.4423 138.073 94.3554 138.191C94.2885 138.281 94.2597 138.33 94.2062 138.438C93.961 138.926 94.0234 139.488 94.3019 139.938C94.371 140.047 94.4557 140.135 94.5471 140.215C94.8816 140.518 95.2582 140.616 95.7107 140.616H132.736C133.037 140.616 133.973 140.585 134.271 140.643C134.545 140.697 134.757 140.829 134.965 140.992C134.998 141.019 135.069 141.093 135.098 141.129C135.174 141.23 135.252 141.33 135.31 141.44C135.326 141.469 135.33 141.494 135.348 141.529C135.444 141.735 135.468 141.977 135.468 142.217C135.468 142.927 134.826 143.571 134.156 143.643C133.739 143.688 131.996 143.661 131.441 143.661V143.677C131.594 143.677 131.768 143.717 131.909 143.746C132.317 143.836 132.682 143.983 133.052 144.167C133.088 144.185 133.108 144.196 133.144 144.218C133.355 144.353 133.574 144.476 133.765 144.639L133.971 144.814C134.122 144.968 134.282 145.118 134.421 145.282L134.646 145.58C134.887 145.922 135.085 146.301 135.221 146.699C135.417 147.274 135.468 147.704 135.468 148.338C135.468 148.969 135.252 149.71 135.042 150.129C134.84 150.536 134.617 150.872 134.327 151.219C134.242 151.322 134.015 151.549 133.91 151.627L133.765 151.752C133.322 152.133 132.783 152.372 132.232 152.56C131.512 152.807 130.574 152.8 129.836 152.616C129.68 152.576 129.559 152.534 129.412 152.487C129.203 152.417 129.022 152.33 128.828 152.231L128.481 152.025C128.418 151.985 128.38 151.956 128.322 151.913L127.935 151.607C127.901 151.582 127.89 151.571 127.859 151.54L127.33 150.96C127.079 150.642 126.878 150.274 126.729 149.899C126.492 149.307 126.401 148.736 126.401 148.069C126.401 147.281 126.662 146.482 127.068 145.821L127.33 145.434L128.044 144.691C128.077 144.666 128.079 144.657 128.111 144.63C128.407 144.377 128.822 144.138 129.183 143.994C129.546 143.849 130.045 143.674 130.429 143.674H99.0719C99.3529 143.674 99.676 143.766 99.939 143.851C100.311 143.972 100.675 144.14 101.002 144.355L101.163 144.462C101.314 144.563 101.673 144.863 101.8 144.995C101.831 145.029 101.829 145.036 101.856 145.067C101.898 145.118 101.945 145.148 101.987 145.203L102.326 145.64C102.511 145.904 102.658 146.202 102.779 146.502C102.805 146.569 102.825 146.616 102.848 146.686C103.138 147.566 103.191 148.448 102.957 149.352C102.797 149.972 102.509 150.501 102.137 151.002C101.773 151.49 101.187 151.972 100.641 152.245C100.389 152.372 100.133 152.471 99.8632 152.558C99.13 152.8 98.2027 152.798 97.4558 152.61C97.3021 152.572 97.1706 152.525 97.0346 152.477L96.6423 152.316C96.5866 152.292 96.5041 152.251 96.453 152.22C96.221 152.083 96.0005 151.945 95.7841 151.781C95.6282 151.663 95.4878 151.53 95.3497 151.392C95.3029 151.345 95.247 151.298 95.2069 151.248L94.5829 150.353C93.9008 149.048 93.8317 147.516 94.4982 146.182C94.6942 145.79 94.9461 145.396 95.2537 145.087C95.3451 144.995 95.4276 144.906 95.5212 144.816C95.7019 144.644 95.9134 144.492 96.1207 144.355C96.6022 144.039 97.5072 143.67 98.06 143.67V143.654C97.4247 143.654 95.6104 143.699 95.1201 143.625C95.0865 143.621 95.062 143.623 95.0308 143.621L94.5716 143.542C93.9454 143.417 93.3569 143.13 92.8598 142.757C92.7149 142.649 92.5902 142.521 92.463 142.425C92.3651 142.351 92.2826 142.237 92.2001 142.15L92.0732 142.006C91.9237 141.829 91.7901 141.641 91.6696 141.444C91.4935 141.156 91.3309 140.804 91.2217 140.45C90.905 139.427 90.9652 138.359 91.3532 137.374L91.5516 136.953C91.6852 136.698 91.8591 136.405 92.0576 136.194C92.0863 136.163 92.082 136.161 92.1065 136.132L92.2557 135.964C92.3226 135.892 92.3985 135.809 92.4743 135.753C92.5211 135.72 92.5367 135.693 92.5813 135.655C92.8042 135.455 93.0561 135.272 93.3212 135.131C93.4349 135.07 93.6088 134.94 93.7382 134.929C93.7382 134.741 93.6156 134.332 93.5777 134.139C93.5532 134.02 93.5153 133.87 93.4905 133.752L93.0671 131.831C93.0047 131.566 92.9512 131.32 92.8934 131.054L92.0441 127.214C92.0129 127.078 91.9885 126.948 91.9594 126.825C91.9282 126.697 91.9014 126.576 91.8769 126.449L91.5336 124.906C91.4801 124.642 91.4223 124.405 91.3663 124.138L90.9407 122.219C90.6442 120.937 90.3858 119.647 90.0871 118.366C90.056 118.232 90.0358 118.122 90.0046 117.988L89.6658 116.456C89.6414 116.329 89.6078 116.204 89.5787 116.069L87.176 105.076C87.1626 105.009 87.1427 104.953 87.1405 104.891H79.3102C79.0849 104.891 78.8265 104.83 78.6727 104.754C78.4208 104.629 78.2022 104.461 78.0463 104.226C77.8791 103.97 77.7788 103.702 77.7788 103.353C77.7788 102.558 78.4743 101.846 79.2166 101.846H88.4377C88.7743 101.846 89.1531 102.016 89.3806 102.246C89.7796 102.649 89.8062 102.947 89.9465 103.549L90.1382 104.418C90.2097 104.714 90.2632 105.003 90.3345 105.3C90.3678 105.441 90.3969 105.589 90.4326 105.741C90.4837 105.961 92.0395 113.226 92.0842 113.318H95.4766L95.4634 113.324Z" fill="#06B2B6"/>
<path fill-rule="evenodd" clip-rule="evenodd" d="M126.271 105.388L137.686 109.225C138.337 109.444 138.691 110.158 138.473 110.812L132.466 128.835C132.247 129.489 131.536 129.845 130.885 129.626L119.471 125.788C118.82 125.569 118.466 124.855 118.684 124.201L124.691 106.178C124.91 105.524 125.621 105.168 126.271 105.388Z" fill="#604CC3"/>
<path fill-rule="evenodd" clip-rule="evenodd" d="M126.167 106.852L136.892 110.459C137.091 110.526 137.198 110.743 137.133 110.942L135.967 114.439C135.901 114.638 135.684 114.748 135.486 114.681L124.76 111.074C124.562 111.007 124.455 110.79 124.52 110.591L125.685 107.093C125.752 106.894 125.968 106.787 126.167 106.852ZM129.231 124.342L132.096 125.304C132.221 125.347 132.287 125.484 132.247 125.609L131.516 127.803C131.474 127.928 131.338 127.996 131.213 127.955L128.349 126.993C128.224 126.95 128.157 126.814 128.197 126.688L128.928 124.494C128.971 124.368 129.107 124.302 129.231 124.342ZM130.321 121.068L133.186 122.031C133.31 122.074 133.377 122.21 133.337 122.336L132.606 124.53C132.564 124.655 132.428 124.722 132.303 124.682L129.439 123.719C129.314 123.677 129.247 123.54 129.287 123.415L130.018 121.221C130.061 121.095 130.197 121.028 130.321 121.068ZM131.411 117.795L134.276 118.758C134.4 118.801 134.467 118.937 134.427 119.063L133.696 121.256C133.654 121.382 133.518 121.449 133.393 121.409L130.529 120.446C130.404 120.404 130.337 120.267 130.377 120.142L131.108 117.948C131.151 117.822 131.287 117.755 131.411 117.795ZM125.164 122.974L128.028 123.936C128.153 123.979 128.219 124.116 128.179 124.241L127.448 126.435C127.406 126.56 127.27 126.628 127.145 126.587L124.281 125.624C124.156 125.582 124.089 125.445 124.129 125.32L124.861 123.126C124.903 123.001 125.039 122.933 125.164 122.974ZM126.254 119.7L129.118 120.663C129.243 120.706 129.31 120.842 129.269 120.968L128.538 123.162C128.496 123.287 128.36 123.354 128.235 123.314L125.371 122.351C125.246 122.309 125.179 122.172 125.219 122.047L125.951 119.853C125.993 119.727 126.129 119.66 126.254 119.7ZM127.344 116.427L130.208 117.39C130.333 117.433 130.4 117.569 130.359 117.694L129.628 119.889C129.586 120.014 129.45 120.081 129.325 120.041L126.461 119.078C126.336 119.036 126.269 118.899 126.309 118.774L127.041 116.579C127.083 116.454 127.219 116.387 127.344 116.427ZM121.096 121.608L123.96 122.571C124.085 122.613 124.152 122.75 124.112 122.875L123.381 125.069C123.338 125.195 123.202 125.262 123.077 125.222L120.213 124.259C120.088 124.216 120.022 124.08 120.062 123.955L120.793 121.76C120.835 121.635 120.971 121.568 121.096 121.608ZM122.186 118.335L125.05 119.298C125.175 119.34 125.242 119.477 125.202 119.602L124.471 121.796C124.428 121.922 124.292 121.989 124.167 121.948L121.303 120.986C121.178 120.943 121.112 120.807 121.152 120.681L121.883 118.487C121.925 118.362 122.061 118.295 122.186 118.335ZM123.276 115.062L126.14 116.024C126.265 116.067 126.332 116.204 126.292 116.329L125.561 118.523C125.518 118.648 125.382 118.716 125.257 118.675L122.393 117.712C122.268 117.67 122.201 117.533 122.242 117.408L122.973 115.214C123.015 115.089 123.151 115.021 123.276 115.062ZM132.499 114.522L135.363 115.485C135.488 115.527 135.555 115.664 135.515 115.789L134.784 117.983C134.742 118.109 134.606 118.176 134.481 118.135L131.616 117.173C131.492 117.13 131.425 116.994 131.465 116.868L132.196 114.674C132.238 114.549 132.374 114.482 132.499 114.522ZM128.433 113.154L131.298 114.117C131.423 114.159 131.49 114.296 131.449 114.421L130.718 116.615C130.676 116.741 130.54 116.808 130.415 116.766L127.551 115.803C127.426 115.76 127.359 115.623 127.399 115.498L128.13 113.304C128.173 113.179 128.309 113.111 128.433 113.152V113.154ZM124.368 111.786L127.232 112.749C127.357 112.791 127.424 112.928 127.384 113.053L126.653 115.248C126.61 115.373 126.474 115.44 126.35 115.4L123.485 114.437C123.36 114.394 123.294 114.258 123.334 114.133L124.065 111.938C124.107 111.813 124.243 111.746 124.368 111.786Z" fill="#FEFEFE"/>
<path fill-rule="evenodd" clip-rule="evenodd" d="M110.832 107.613L110.749 107.62L110.702 107.64L110.624 107.649L110.582 107.669L110.495 107.671L110.451 107.691L110.382 107.694L110.33 107.723L110.243 107.725L110.194 107.745L110.116 107.752L110.072 107.772L109.994 107.779L109.949 107.799L109.867 107.806L109.822 107.826L109.733 107.828L109.69 107.848L109.61 107.855L109.566 107.875L109.481 107.879L109.434 107.9L109.354 107.906L109.314 107.929L109.232 107.933L109.189 107.956L109.104 107.96L109.06 107.98L108.975 107.985L108.933 108.005L108.85 108.011L108.806 108.032L108.723 108.038L108.683 108.059L108.598 108.063L108.554 108.083L108.474 108.09L108.429 108.11L108.344 108.115L108.3 108.135L108.22 108.141L108.179 108.164L108.095 108.168L108.046 108.186L107.966 108.193L107.921 108.213L107.841 108.22L107.798 108.242L107.709 108.247L107.664 108.267L107.591 108.274L107.542 108.294L107.455 108.298L107.41 108.318L107.328 108.325L107.288 108.345L107.194 108.347L107.15 108.379L107.069 108.377L107.029 108.397L106.944 108.401L106.902 108.421L106.813 108.424L106.771 108.455H106.699C106.699 108.5 106.708 108.482 106.655 108.475L106.566 108.477L106.519 108.506L106.32 108.531L106.276 108.551L106.191 108.556L106.146 108.576L105.937 108.607L105.89 108.625L105.688 108.658C105.688 108.703 105.696 108.685 105.645 108.681L105.56 108.685L105.514 108.706L105.436 108.712L105.389 108.732L105.302 108.737L105.26 108.757L105.182 108.764L105.137 108.784L104.921 108.813L104.874 108.842H104.802L104.756 108.862L104.671 108.867L104.629 108.887L104.542 108.892L104.502 108.911L104.395 108.918L104.348 108.939L104.27 108.945L104.23 108.968L104.165 108.97L104.12 108.99L104.02 108.999L103.978 109.019L103.887 109.021L103.84 109.041H103.771L103.724 109.071H103.63L103.588 109.093L103.507 109.1L103.465 109.12H103.396L103.345 109.149L103.267 109.147L103.218 109.176H103.129L103.089 109.196L103.004 109.2L102.961 109.22L102.881 109.227L102.834 109.247L102.747 109.252L102.705 109.272L102.623 109.279L102.58 109.299L102.498 109.306L102.453 109.326L102.366 109.33L102.322 109.35L102.241 109.357L102.195 109.377L102.11 109.382L102.063 109.402L101.981 109.409L101.945 109.431L101.863 109.438L101.816 109.456L101.729 109.46L101.684 109.48L101.62 109.482L101.568 109.512L101.472 109.507L101.432 109.53L101.357 109.539L101.31 109.556L101.221 109.559L101.178 109.581L101.096 109.586L101.053 109.606L100.969 109.61L100.929 109.633L100.844 109.639L100.799 109.659L100.717 109.664L100.67 109.684L100.59 109.691L100.545 109.711L100.461 109.715L100.416 109.735L100.206 109.767L100.164 109.787L100.077 109.792L100.037 109.812L99.9567 109.818L99.9123 109.839L99.8252 109.843L99.783 109.863L99.6983 109.867L99.6537 109.888L99.5757 109.894L99.5333 109.917L99.4375 109.914L99.384 109.944L99.3061 109.939L99.2593 109.971L99.1679 109.973L99.1276 109.993L99.0407 109.997L98.9961 110.018L98.9138 110.022L98.8668 110.042L98.7912 110.049L98.7487 110.069L98.6662 110.076L98.6194 110.094L98.5326 110.098L98.4858 110.121H98.4189L98.3699 110.148L98.2828 110.152L98.236 110.172L98.1535 110.179L98.1113 110.199L98.0266 110.203L97.982 110.224L97.8994 110.228L97.8594 110.25L97.7725 110.255L97.7279 110.275L97.661 110.277L97.6075 110.304L97.5206 110.306L97.4806 110.329L97.3332 110.358L97.3088 110.382L97.2864 110.385L97.262 110.414L97.184 110.492L97.1574 110.519L97.1327 110.6L97.1104 110.635L97.1128 110.79C97.1528 110.79 97.1394 110.781 97.1351 110.833L97.144 110.949L97.1639 110.994L97.1663 111.068L97.195 111.119L97.1975 111.195L97.2174 111.244L97.2265 111.33L97.2464 111.379L97.251 111.475L97.28 111.527L97.3066 111.746L97.3268 111.793L97.3356 111.876L97.3555 111.923L97.358 112.024L97.3892 112.077L97.3913 112.153L97.4136 112.196L97.4203 112.288L97.4402 112.339L97.4427 112.436L97.4717 112.489L97.4738 112.566L97.4937 112.613L97.5029 112.693L97.5228 112.745L97.5316 112.83L97.5518 112.877L97.5585 112.966L97.5784 113.013L97.5876 113.098L97.6075 113.147L97.6142 113.239L97.6343 113.288L97.6411 113.378L97.661 113.427L97.6698 113.515L97.69 113.564L97.6967 113.651L97.7166 113.701L97.7233 113.79L97.7435 113.839L97.7502 113.929L97.7701 113.976L97.7793 114.063L97.7992 114.11L97.8059 114.204L97.8282 114.251L97.8349 114.336L97.8548 114.388L97.8615 114.473L97.8817 114.524L97.8884 114.61L97.9083 114.657V114.735L97.9398 114.782L97.9441 114.883L97.9642 114.93L97.9664 115.004L97.9954 115.055L97.9997 115.156L98.0199 115.201L98.0489 115.413L98.078 115.467L98.0844 115.559L98.1046 115.608V115.693L98.1336 115.742L98.1315 115.83L98.1602 115.881L98.1648 115.977L98.185 116.022L98.1871 116.096L98.2161 116.15L98.2183 116.253L98.2382 116.302L98.2473 116.387L98.2672 116.434L98.2761 116.524L98.2963 116.571L98.3051 116.658L98.3253 116.705L98.3296 116.801L98.3519 116.851L98.3543 116.922L98.3831 116.971L98.3877 117.066L98.4078 117.113L98.41 117.193L98.439 117.245L98.4433 117.343L98.4635 117.39L98.4702 117.482L98.4925 117.527L98.499 117.614L98.5191 117.663V117.742L98.5482 117.791L98.5525 117.887L98.5726 117.937L98.5772 118.001L98.5971 118.046L98.606 118.16L98.6283 118.207L98.6372 118.292L98.6573 118.339L98.7176 118.68L98.7377 118.727L98.7442 118.823L98.7665 118.863L98.7711 118.962L98.8001 119.011L98.8022 119.089L98.8224 119.134L98.8603 119.383L98.8802 119.43L98.8869 119.521L98.9071 119.566L98.916 119.654L98.9359 119.701L98.9426 119.792L98.9627 119.837L98.9606 119.92L98.9918 119.967L99.0206 120.184L99.0407 120.229L99.0453 120.325L99.0741 120.375L99.0786 120.473L99.0988 120.522L99.1009 120.598L99.1321 120.645V120.726L99.1523 120.773L99.1587 120.863L99.1789 120.912L99.1835 121.008L99.2147 121.055V121.136L99.2346 121.185L99.2413 121.275L99.2614 121.319L99.2657 121.418L99.2969 121.467V121.548L99.3171 121.595L99.326 121.675L99.3461 121.725L99.3504 121.821L99.3795 121.872V121.955L99.3996 122L99.4064 122.092L99.4262 122.139L99.4354 122.222L99.4553 122.271L99.462 122.36L99.4822 122.405L99.4886 122.495L99.5088 122.544L99.5155 122.634L99.5357 122.685L99.5445 122.77L99.5644 122.819L99.5712 122.911L99.5913 122.956L99.6002 123.043L99.6204 123.09L99.6271 123.18L99.647 123.229L99.6558 123.316L99.676 123.363L99.6827 123.453L99.7026 123.5L99.7094 123.589L99.7295 123.641L99.7384 123.726L99.7561 123.778L99.7653 123.863L99.7852 123.908L99.8164 124.145L99.8475 124.194L99.8432 124.284L99.872 124.333L99.8744 124.407L99.8922 124.458L99.8989 124.548L99.9191 124.593L99.9524 124.825L99.9814 124.875L99.9836 124.949C100.024 124.949 100.008 124.942 100.006 124.993L100.039 125.228L100.059 125.273L100.064 125.372L100.093 125.423L100.095 125.497L100.115 125.546L100.122 125.638L100.142 125.685L100.153 125.795L100.173 125.842V125.92L100.204 125.967L100.233 126.182L100.255 126.225L100.262 126.319L100.282 126.368L100.289 126.462L100.309 126.505L100.316 126.599L100.345 126.652V126.731L100.365 126.776L100.374 126.858L100.394 126.908L100.4 127.004L100.429 127.057V127.14L100.449 127.185L100.456 127.275L100.476 127.322L100.483 127.414L100.503 127.456L100.512 127.541L100.532 127.593L100.534 127.671L100.563 127.723L100.565 127.821L100.585 127.87L100.594 127.953L100.614 128.005L100.619 128.076L100.645 128.132L100.65 128.224L100.67 128.273L100.675 128.372L100.697 128.414L100.704 128.508L100.733 128.558V128.638L100.752 128.687L100.761 128.766L100.782 128.82L100.788 128.911L100.808 128.958L100.815 129.048L100.835 129.097L100.842 129.184L100.862 129.234L100.871 129.319L100.891 129.37L100.9 129.458L100.92 129.502L100.926 129.592L100.949 129.635L100.955 129.724L100.975 129.773L100.978 129.849L101.007 129.903L101.009 130.004L101.029 130.049L101.036 130.141L101.056 130.192L101.065 130.275L101.085 130.322L101.089 130.391L101.111 130.427C101.151 130.535 101.176 130.559 101.27 130.613L101.296 130.64L101.582 130.673L101.628 130.644L101.72 130.642L101.764 130.62L101.845 130.613L101.887 130.593L101.961 130.595L102.008 130.566H102.081L102.123 130.546L102.206 130.539L102.25 130.519L102.333 130.512L102.373 130.492L102.455 130.485L102.505 130.465L102.583 130.458L102.625 130.438H102.698L102.743 130.407H102.839L102.879 130.384L102.964 130.38L103.008 130.36H103.077L103.12 130.329L103.316 130.302L103.358 130.282L103.447 130.279L103.499 130.25H103.568L103.61 130.23L103.697 130.226L103.744 130.205L103.817 130.196L103.864 130.176L103.953 130.174L104 130.152L104.076 130.145L104.125 130.125L104.201 130.118L104.25 130.098L104.323 130.091L104.366 130.071L104.455 130.069L104.504 130.049L104.58 130.04L104.62 130.017L104.818 129.99L104.865 129.961H104.934C104.934 129.916 104.925 129.935 104.979 129.941L105.059 129.937L105.106 129.916L105.193 129.912L105.235 129.892L105.317 129.885L105.358 129.863L105.442 129.858L105.487 129.838L105.567 129.831L105.612 129.811L105.696 129.807L105.734 129.784L105.819 129.78L105.861 129.76L105.942 129.753L105.984 129.733L106.073 129.729L106.115 129.708L106.309 129.682L106.358 129.652L106.438 129.657L106.486 129.628H106.552L106.597 129.608L106.688 129.605L106.735 129.576H106.804L106.849 129.556L106.927 129.547L106.973 129.527L107.063 129.525L107.107 129.505L107.185 129.496L107.225 129.475L107.308 129.469L107.35 129.449L107.435 129.444L107.479 129.424L107.555 129.426L107.604 129.397L107.682 129.402L107.727 129.37L107.794 129.368L107.841 129.348L107.921 129.341L107.97 129.323L108.052 129.317L108.092 129.296L108.175 129.29L108.222 129.269L108.3 129.261L108.342 129.241H108.416L108.462 129.211L108.552 129.209L108.598 129.189L108.681 129.184L108.728 129.164L108.806 129.158L108.848 129.137H108.919L108.964 129.106L109.037 129.108L109.08 129.088L109.165 129.081L109.205 129.061L109.285 129.055L109.332 129.034L109.412 129.028L109.457 129.007L109.541 129.003L109.588 128.983L109.769 128.952L109.813 128.932L109.905 128.929L109.954 128.9H110.027L110.072 128.88L110.152 128.873L110.194 128.853L110.275 128.847L110.319 128.826L110.406 128.822L110.448 128.799L110.531 128.795L110.573 128.775L110.665 128.773L110.705 128.752L110.778 128.743L110.825 128.723L110.912 128.719L110.957 128.696H111.026L111.073 128.665H111.142L111.186 128.645L111.267 128.638L111.311 128.618L111.393 128.611L111.44 128.591L111.527 128.589L111.576 128.56H111.643L111.692 128.54L111.897 128.508L111.942 128.488L112.029 128.484L112.071 128.464L112.151 128.457L112.196 128.437L112.285 128.432L112.33 128.412L112.41 128.405L112.455 128.385L112.537 128.379L112.581 128.358L112.662 128.352L112.706 128.332L112.789 128.325L112.833 128.305L112.891 128.3C112.891 128.255 112.883 128.271 112.934 128.278L113.014 128.273L113.063 128.253L113.143 128.246L113.188 128.226L113.27 128.219L113.313 128.199L113.397 128.195L113.444 128.175L113.531 128.172L113.576 128.15L113.654 128.143L113.7 128.123L113.776 128.117L113.823 128.096H113.892L113.941 128.067L114.133 128.04L114.18 128.02L114.258 128.013L114.305 127.993L114.389 127.989L114.431 127.969L114.643 127.938L114.686 127.917L114.77 127.913L114.811 127.891L114.895 127.886L114.944 127.866L115.027 127.861L115.071 127.841L115.109 127.837L115.136 127.812L115.16 127.81L115.185 127.783C115.272 127.736 115.314 127.678 115.336 127.572C115.332 127.521 115.319 127.53 115.357 127.53L115.359 127.373L115.33 127.322L115.328 127.223L115.308 127.174L115.299 127.089L115.279 127.037L115.272 126.952L115.252 126.903L115.243 126.816L115.223 126.767L115.216 126.675L115.196 126.625L115.187 126.54L115.167 126.491L115.158 126.404L115.138 126.355L115.129 126.269L115.109 126.22L115.103 126.128L115.082 126.081L115.076 125.992L115.056 125.947L115.049 125.855L115.029 125.811L115.022 125.721L115.002 125.669L114.995 125.578L114.969 125.522L114.966 125.443L114.947 125.396L114.94 125.307L114.92 125.26L114.911 125.177L114.891 125.128L114.882 125.043L114.862 124.993L114.855 124.906L114.835 124.857L114.826 124.767L114.806 124.72L114.799 124.628L114.779 124.579L114.773 124.492L114.752 124.447L114.746 124.358L114.726 124.306L114.719 124.214L114.699 124.17L114.69 124.08L114.67 124.033L114.663 123.939L114.643 123.892L114.634 123.804L114.614 123.757L114.605 123.668L114.585 123.621L114.579 123.536L114.559 123.484L114.554 123.386L114.525 123.334V123.254L114.505 123.207L114.494 123.097L114.474 123.046L114.467 122.987L114.447 122.938L114.409 122.69L114.389 122.642L114.387 122.564L114.356 122.519L114.358 122.432L114.329 122.38V122.295L114.3 122.242L114.16 121.46L114.139 121.411V121.335L114.111 121.286L114.104 121.194L114.084 121.147L114.082 121.071L114.053 121.019L114.057 120.93L114.028 120.881L114.026 120.809L114.006 120.76L114.001 120.661L113.973 120.612L113.968 120.516L113.948 120.471L113.946 120.392L113.917 120.336L113.912 120.242L113.892 120.193L113.89 120.113L113.863 120.057L113.857 119.963L113.836 119.918L113.83 119.824L113.81 119.772L113.801 119.692L113.781 119.642L113.774 119.551L113.754 119.501L113.747 119.414L113.727 119.367L113.721 119.28L113.7 119.226L113.694 119.143L113.674 119.092L113.665 119.011L113.645 118.964L113.636 118.874L113.616 118.827L113.607 118.74L113.587 118.693L113.58 118.599L113.56 118.55L113.553 118.458L113.533 118.409L113.527 118.322L113.507 118.272L113.502 118.18L113.48 118.129L113.471 118.048L113.451 118.001L113.444 117.91L113.424 117.858L113.415 117.773L113.395 117.722L113.386 117.634L113.366 117.585L113.36 117.495L113.339 117.448L113.33 117.361L113.31 117.318L113.304 117.227L113.284 117.18L113.277 117.088L113.257 117.039L113.248 116.951L113.228 116.9L113.219 116.819L113.199 116.766L113.19 116.678L113.17 116.627L113.163 116.537L113.143 116.488L113.139 116.392L113.11 116.34V116.257L113.081 116.206L113.079 116.127L113.058 116.08L113.052 115.991L113.032 115.942L113.025 115.848L112.996 115.798L112.994 115.722L112.974 115.671L112.967 115.574L112.94 115.521L112.938 115.447L112.918 115.398L112.911 115.306L112.891 115.257L112.883 115.169L112.862 115.12L112.856 115.028L112.829 114.972L112.827 114.901L112.807 114.847L112.771 114.625L112.751 114.574L112.715 114.345L112.695 114.301L112.691 114.195L112.662 114.144V114.061L112.633 114.009V113.907L112.611 113.862L112.604 113.772L112.581 113.727L112.575 113.638L112.555 113.586L112.548 113.501L112.526 113.456L112.517 113.374L112.497 113.324L112.463 113.094L112.443 113.047L112.441 112.973L112.412 112.924L112.41 112.823L112.39 112.776V112.7L112.359 112.651L112.361 112.563L112.332 112.512L112.334 112.427L112.303 112.377L112.305 112.292L112.276 112.241L112.274 112.162L112.254 112.12L112.247 112.026L112.218 111.972L112.22 111.885L112.191 111.836L112.189 111.764L112.169 111.712L112.163 111.621L112.14 111.578L112.134 111.486L112.113 111.437L112.105 111.347L112.085 111.3L112.075 111.211L112.056 111.162L112.047 111.074L112.027 111.025L111.993 110.795L111.971 110.752L111.968 110.676L111.94 110.624L111.935 110.526L111.915 110.476L111.909 110.387L111.888 110.342L111.877 110.259L111.857 110.212V110.127L111.83 110.074L111.824 109.982L111.804 109.93L111.795 109.845L111.775 109.796L111.768 109.704L111.748 109.662L111.739 109.574L111.721 109.523L111.714 109.431L111.695 109.386L111.688 109.294L111.668 109.247L111.665 109.171L111.636 109.12L111.632 109.026L111.612 108.974L111.605 108.88L111.583 108.84L111.574 108.753L111.554 108.703L111.547 108.611L111.527 108.564L111.523 108.491L111.494 108.441L111.492 108.345L111.472 108.298L111.465 108.209L111.445 108.157L111.436 108.07L111.416 108.025L111.409 107.936L111.389 107.886L111.385 107.817L111.36 107.781L111.255 107.649L111.231 107.62L111.093 107.57L110.959 107.562L110.852 107.566L110.809 107.586L110.832 107.613Z" fill="#FF6600"/>
<path fill-rule="evenodd" clip-rule="evenodd" d="M110.689 110.694V110.723L110.662 110.75L110.64 110.808L110.614 110.833L110.589 110.886L110.56 110.913L110.518 111.001L110.489 111.025L110.286 111.236L110.263 111.267L110.139 111.345L110.116 111.372L110.041 111.399L110.016 111.426H109.99L109.96 111.451L109.916 111.453L109.883 111.477L109.84 111.48L109.802 111.502L109.731 111.504L109.66 111.536L109.481 111.533L109.405 111.502H109.332L109.296 111.48L109.252 111.475L109.225 111.448H109.198L109.171 111.424L109.151 111.421L109.125 111.392H109.098L109.071 111.365L109.02 111.338L108.995 111.31L108.915 111.26L108.89 111.229L108.839 111.202L108.812 111.173L108.69 111.146L108.659 111.171L108.607 111.193L108.585 111.227L108.389 111.442L108.362 111.468L108.333 111.495L108.186 111.657L108.164 111.688L107.985 111.791C107.985 111.831 107.994 111.82 107.954 111.815L107.912 111.82L107.878 111.842L107.819 111.847L107.765 111.865L107.638 111.869L107.56 111.838H107.513L107.477 111.813L107.353 111.757L107.328 111.728C107.234 111.668 107.177 111.612 107.121 111.509L107.096 111.482L107.065 111.48C107.067 111.518 107.076 111.509 107.04 111.509L106.969 111.616L106.94 111.641L106.911 111.668L106.74 111.856L106.717 111.889L106.619 111.968L106.597 111.997L106.543 112.021L106.519 112.051L106.468 112.075L106.443 112.102L106.419 112.104L106.394 112.129L106.365 112.127L106.341 112.153L106.318 112.156C106.318 112.194 106.327 112.183 106.289 112.18H106.243L106.209 112.205L106.165 112.207C106.165 112.247 106.173 112.236 106.129 112.23L105.761 112.227L105.716 112.207L105.656 112.2L105.627 112.176L105.5 112.12L105.476 112.091L105.396 112.039L105.369 112.01L105.344 111.981C105.237 111.892 105.195 111.777 105.066 111.764L105.039 111.791C104.887 111.88 104.685 112.178 104.511 112.326L104.488 112.357L104.41 112.407L104.386 112.436L104.337 112.462L104.312 112.489H104.286L104.261 112.514H104.234L104.21 112.539L104.168 112.543L104.132 112.566H104.061C103.996 112.615 103.985 112.606 103.918 112.568L103.86 112.563L103.824 112.539C103.697 112.503 103.595 112.389 103.543 112.261L103.519 112.234L103.517 112.207H103.49L103.443 112.236L103.421 112.268L103.314 112.342L103.289 112.375L103.189 112.451L103.167 112.485L103.064 112.561L103.04 112.59L102.986 112.613L102.961 112.642L102.913 112.666L102.888 112.693L102.864 112.695L102.841 112.722H102.817L102.788 112.747L102.765 112.749L102.736 112.774L102.692 112.776L102.658 112.801L102.621 112.805L102.58 112.828C102.337 112.845 102.331 112.839 102.108 112.769L102.081 112.742H102.054L102.028 112.715L101.976 112.689L101.952 112.66L101.823 112.579L101.798 112.55L101.622 112.465L101.588 112.44L101.392 112.436L101.361 112.46L101.339 112.462L101.317 112.492L101.145 112.68L101.114 112.704L101.02 112.836L100.987 112.863L100.842 113.029L100.819 113.058L100.764 113.081L100.739 113.107L100.719 113.109L100.695 113.136L100.664 113.134L100.632 113.156L100.572 113.163L100.532 113.183L100.287 113.154C100.249 113.156 100.258 113.166 100.258 113.128L100.155 113.071L100.131 113.04L99.9524 112.848L99.9258 112.821L99.9011 112.794L99.85 112.796L99.8231 112.825L99.7519 112.904L99.725 112.93L99.6962 112.955L99.6271 113.062L99.5981 113.087L99.5736 113.139L99.5467 113.166C99.4777 113.322 99.4064 113.32 99.2459 113.302L99.219 113.275C99.0787 113.172 99.0943 113.078 99.1367 112.922L99.1612 112.895L99.1835 112.836L99.2101 112.812L99.2349 112.76L99.2615 112.736L99.3083 112.653L99.3352 112.628L99.3618 112.601L99.3887 112.575L99.4844 112.467L99.5067 112.434L99.5847 112.384L99.6091 112.355L99.7519 112.297L99.7876 112.274L99.9793 112.279L100.019 112.301L100.091 112.33L100.118 112.36L100.423 112.664L100.53 112.635L100.554 112.604L100.655 112.498L100.686 112.474L100.73 112.386L100.759 112.362L100.831 112.254L100.857 112.227L100.886 112.2L100.906 112.176L100.931 112.145L100.956 112.118L101.178 111.981L101.205 111.957L101.25 111.952L101.285 111.93L101.37 111.925C101.424 111.9 101.537 111.872 101.58 111.939C101.695 111.934 101.711 111.954 101.818 111.988L101.847 112.013L101.974 112.068L101.999 112.098L102.13 112.178L102.155 112.207L102.208 112.234L102.233 112.263L102.255 112.266L102.282 112.292H102.311L102.337 112.317C102.498 112.326 102.522 112.31 102.663 112.241L102.69 112.212L102.741 112.189C102.741 112.149 102.73 112.158 102.765 112.16L102.846 112.111L102.87 112.077L102.971 112.001L102.993 111.972L103.015 111.943L103.093 111.894L103.115 111.862L103.196 111.815L103.22 111.787L103.271 111.762L103.296 111.735L103.32 111.733L103.345 111.706H103.372L103.398 111.681L103.445 111.679C103.445 111.641 103.436 111.652 103.476 111.654L103.673 111.659L103.702 111.683H103.728L103.753 111.713C103.878 111.793 103.902 111.93 103.982 112.066C104.087 112.046 104.134 112.006 104.214 111.934L104.239 111.903L104.265 111.878L104.292 111.851L104.317 111.82L104.388 111.742L104.417 111.715L104.441 111.685L104.471 111.661L104.644 111.473L104.667 111.439L104.769 111.365L104.794 111.334L104.84 111.31L104.867 111.283H104.89C104.89 111.245 104.881 111.253 104.918 111.258L104.965 111.256L104.999 111.233L105.186 111.238L105.222 111.26L105.268 111.263C105.306 111.26 105.298 111.251 105.298 111.287L105.351 111.312L105.375 111.343L105.453 111.395L105.478 111.426L105.503 111.455L105.529 111.482L105.554 111.511L105.707 111.645L105.734 111.674H105.761L105.788 111.701L105.833 111.706L105.873 111.728L105.986 111.733L106.037 111.704L106.165 111.679L106.191 111.654L106.216 111.652L106.24 111.625L106.367 111.545L106.39 111.513L106.637 111.245L106.668 111.22L106.737 111.108L106.764 111.083L106.811 111.003L106.84 110.978L106.938 110.871L106.96 110.844H106.987L107.014 110.819C107.141 110.817 107.217 110.808 107.295 110.929L107.319 110.956L107.321 110.983L107.348 111.01L107.373 111.068L107.399 111.095L107.448 111.178L107.475 111.204L107.504 111.231L107.529 111.253L107.553 111.285L107.582 111.312L107.778 111.338L107.809 111.316H107.838L107.863 111.287L108.059 111.072L108.086 111.045L108.11 111.018L108.284 110.83L108.309 110.799L108.436 110.721L108.46 110.694H108.489L108.516 110.669L108.779 110.62L108.826 110.64L108.886 110.647L108.915 110.671H108.944L108.968 110.698L108.993 110.701L109.018 110.727L109.069 110.752L109.096 110.783L109.149 110.808L109.174 110.839L109.305 110.918L109.33 110.944L109.352 110.947L109.381 110.971L109.428 110.974C109.472 110.971 109.463 110.958 109.466 110.998C109.66 111.01 109.666 110.989 109.835 110.949L109.86 110.922L109.965 110.871L109.99 110.842L110.014 110.812L110.163 110.656L110.192 110.629L110.215 110.571L110.241 110.546L110.266 110.492L110.293 110.468L110.315 110.412L110.344 110.387L110.366 110.363L110.391 110.329L110.471 110.306L110.489 110.269L110.562 110.295C110.714 110.34 110.763 110.436 110.75 110.6L110.725 110.631V110.658L110.7 110.683L110.689 110.694ZM107.199 127.199L107.17 127.225L107.145 127.25L106.925 127.36L106.896 127.385H106.844L106.815 127.409L106.771 127.411L106.733 127.434L106.673 127.438L106.63 127.459H106.202L106.158 127.427L105.873 127.344L105.844 127.317L105.745 127.286L105.716 127.261L105.619 127.23L105.587 127.205L105.514 127.203L105.393 127.197L105.182 127.306L105.159 127.338L105.01 127.465L104.985 127.496L104.961 127.525L104.885 127.577L104.863 127.608L104.733 127.685L104.709 127.711L104.685 127.714L104.66 127.74H104.631L104.607 127.767L104.488 127.799L104.453 127.821L104.37 127.819C104.328 127.875 104.23 127.857 104.181 127.817L104.112 127.814L104.065 127.792L104 127.787L103.965 127.763L103.866 127.734L103.842 127.707L103.82 127.705L103.793 127.678L103.769 127.676L103.742 127.649H103.717L103.69 127.622H103.666L103.639 127.595H103.612L103.581 127.568L103.439 127.566L103.405 127.588L103.36 127.591L103.332 127.615L103.256 127.642L103.229 127.669L103.207 127.671L103.182 127.698L103.051 127.774L103.028 127.806L102.953 127.857L102.928 127.886L102.906 127.917L102.603 128.208L102.578 128.238H102.554L102.52 128.26H102.433L102.4 128.235L102.3 128.15L102.273 128.123V128.099L102.248 128.065L102.291 127.853L102.32 127.828L102.346 127.801L102.371 127.774L102.398 127.749L102.427 127.723L102.447 127.696L102.471 127.667L102.496 127.64L102.518 127.608L102.65 127.51L102.674 127.476L102.772 127.4L102.794 127.369L102.848 127.344L102.872 127.315L102.919 127.288L102.944 127.259L103.12 127.178L103.149 127.154L103.247 127.127L103.278 127.102H103.332L103.374 127.071L103.641 127.08L103.681 127.102L103.784 127.129L103.811 127.158C104.049 127.297 104.105 127.349 104.39 127.326L104.422 127.302L104.495 127.275L104.519 127.246L104.575 127.223L104.598 127.192L104.725 127.089L104.749 127.058L104.771 127.026L104.896 126.923L104.921 126.892L104.974 126.87L104.999 126.84L105.173 126.76L105.202 126.735L105.549 126.713L105.594 126.733L105.674 126.744L105.714 126.767L105.757 126.771L105.788 126.796L105.83 126.8L105.864 126.825L105.962 126.856L105.995 126.881L106.04 126.883L106.073 126.908L106.116 126.912L106.153 126.935L106.211 126.941L106.256 126.964L106.329 126.966L106.45 126.97L106.566 126.968L106.606 126.946L106.722 126.914L106.753 126.89L106.878 126.836L106.904 126.811L107.072 126.787C107.11 126.784 107.101 126.773 107.103 126.811C107.179 126.856 107.17 126.84 107.208 126.921L107.232 126.948L107.234 127.109L107.212 127.138L107.192 127.194L107.199 127.199ZM113.215 123.608L113.19 123.632L113.168 123.684L113.139 123.711L113.119 123.769L113.09 123.793C113.028 123.887 112.958 123.977 112.867 124.035L112.842 124.069L112.764 124.116L112.74 124.145L112.715 124.147L112.691 124.174L112.568 124.23L112.541 124.255L112.417 124.281L112.381 124.304L112.294 124.311L112.252 124.331H112.004L111.935 124.297L111.724 124.246L111.697 124.219L111.67 124.217L111.645 124.19L111.621 124.187L111.596 124.161L111.467 124.08L111.445 124.049L111.363 123.999L111.336 123.972L111.311 123.943L111.133 123.995L111.108 124.024L111.084 124.051L110.959 124.156C110.959 124.196 110.97 124.187 110.935 124.185L110.908 124.212L110.885 124.243L110.709 124.402L110.685 124.429L110.658 124.456C110.562 124.523 110.5 124.586 110.386 124.62L110.355 124.644L110.007 124.666L109.971 124.644L109.793 124.561L109.769 124.532L109.666 124.454L109.642 124.423L109.617 124.396L109.591 124.369L109.566 124.34L109.543 124.338L109.515 124.34L109.459 124.362L109.434 124.396L109.133 124.687L109.111 124.72L109.011 124.796L108.989 124.826L108.935 124.85L108.911 124.877L108.888 124.879L108.861 124.906H108.837L108.81 124.931L108.788 124.933C108.788 124.971 108.797 124.96 108.761 124.958L108.714 124.96L108.681 124.982L108.619 124.987L108.574 125.007L108.287 125.005L108.24 124.984L108.155 124.978L108.115 124.955L108.05 124.951L108.015 124.926L107.968 124.924L107.937 124.899L107.714 124.812L107.685 124.787L107.531 124.732L107.361 124.971L107.33 124.996L107.136 125.213L107.114 125.244L106.84 125.403L106.809 125.426L106.766 125.428L106.731 125.45L106.648 125.457L106.601 125.477L106.452 125.479L106.381 125.448L106.202 125.421L106.171 125.396L106.129 125.394C106.089 125.396 106.098 125.408 106.098 125.369H106.071L106.046 125.343L106.024 125.341L105.997 125.314H105.971L105.944 125.287H105.919L105.892 125.26L105.79 125.204L105.766 125.175L105.712 125.15L105.688 125.121L105.509 125.036L105.471 125.014L105.264 125.011L105.228 125.034H105.177L105.146 125.058L105.025 125.114L105.001 125.143L104.95 125.168L104.928 125.197L104.852 125.249L104.827 125.278L104.803 125.305L104.676 125.408L104.653 125.439L104.629 125.47L104.524 125.544L104.5 125.575L104.232 125.739L104.201 125.761H104.174C104.174 125.799 104.183 125.788 104.145 125.786L103.98 125.817L103.931 125.835L103.771 125.837L103.715 125.811L103.648 125.808L103.608 125.784L103.561 125.782L103.53 125.757L103.434 125.726L103.407 125.699L103.251 125.616L103.227 125.589L103.097 125.535L102.995 125.533H102.948L102.917 125.558L102.794 125.614L102.772 125.643L102.719 125.667L102.694 125.694L102.669 125.723C102.547 125.813 102.411 126.001 102.346 126.158L102.322 126.184C102.289 126.267 102.273 126.305 102.199 126.346L102.17 126.37C102.041 126.37 101.992 126.377 101.916 126.258L101.892 126.229L101.912 125.961L101.936 125.934V125.907L101.961 125.88L102.01 125.768L102.037 125.743L102.083 125.665L102.112 125.638C102.181 125.504 102.291 125.399 102.409 125.311L102.433 125.28L102.509 125.233L102.534 125.204L102.754 125.094L102.785 125.069L102.915 125.045L102.966 125.018L103.133 125.025L103.173 125.047L103.218 125.049L103.249 125.074L103.479 125.186L103.503 125.215C103.646 125.291 103.684 125.329 103.851 125.352L103.911 125.327L104.034 125.298L104.058 125.273L104.165 125.222L104.187 125.193L104.261 125.143L104.283 125.11L104.435 124.982L104.459 124.953L104.484 124.922L104.584 124.846L104.607 124.814L104.685 124.767L104.707 124.736L104.812 124.685L104.838 124.658L104.907 124.626L104.934 124.602H104.961L104.99 124.577L105.037 124.575L105.068 124.55L105.277 124.519C105.344 124.49 105.405 124.476 105.469 124.53H105.541L105.583 124.552L105.703 124.584C105.739 124.581 105.73 124.573 105.732 124.608L105.933 124.72L105.959 124.749L106.064 124.805L106.089 124.834L106.14 124.859L106.167 124.886L106.191 124.888L106.218 124.915L106.24 124.917L106.267 124.944L106.403 124.969L106.454 124.998L106.546 124.996L106.586 124.973L106.7 124.942L106.726 124.915L106.78 124.89L106.802 124.861L106.976 124.673L107.003 124.647L107.029 124.62L107.076 124.543L107.105 124.517L107.257 124.355L107.279 124.326L107.35 124.297L107.382 124.272L107.446 124.268L107.502 124.248L107.578 124.243L107.636 124.27L107.702 124.275L107.734 124.299L107.838 124.328L107.865 124.353L107.963 124.385L107.992 124.409L108.09 124.44L108.122 124.465L108.17 124.467L108.204 124.492H108.277L108.324 124.523L108.491 124.519L108.529 124.496L108.574 124.494C108.574 124.456 108.565 124.467 108.603 124.47L108.679 124.443L108.703 124.413L108.833 124.335L108.855 124.306L108.879 124.279L108.904 124.25L109.185 123.988L109.209 123.955C109.283 123.899 109.316 123.867 109.405 123.849L109.443 123.827L109.633 123.829L109.669 123.854L109.742 123.883L109.766 123.912L109.818 123.937L109.842 123.97L110.027 124.127L110.052 124.156L110.072 124.161L110.103 124.185L110.306 124.136L110.33 124.107L110.355 124.078L110.509 123.95L110.533 123.919L110.555 123.887L110.578 123.863L110.607 123.834L110.787 123.681L110.81 123.65L110.861 123.625L110.885 123.596L110.935 123.572L110.959 123.545H110.986L111.01 123.518L111.033 123.516L111.059 123.491H111.108L111.142 123.466L111.409 123.469C111.449 123.466 111.441 123.455 111.441 123.493L111.516 123.523L111.541 123.552L111.697 123.659L111.721 123.693L111.851 123.773L111.877 123.8L112.013 123.823L112.214 123.832C112.352 123.827 112.397 123.78 112.512 123.724L112.535 123.695L112.637 123.619L112.664 123.59L112.811 123.372L112.838 123.348L112.86 123.292L112.885 123.265L112.907 123.234C113.023 123.173 113.117 123.162 113.213 123.274C113.32 123.402 113.266 123.498 113.224 123.623L113.215 123.608ZM112.74 121.149L112.713 121.176L112.669 121.259L112.637 121.284L112.463 121.469L112.439 121.501C112.345 121.559 112.294 121.611 112.185 121.633L112.156 121.658L111.893 121.682L111.848 121.66L111.737 121.626L111.708 121.601L111.601 121.548L111.576 121.519L111.501 121.465L111.476 121.431L111.371 121.353L111.347 121.324H111.315L111.242 121.315L111.061 121.4L111.039 121.429L110.988 121.454L110.964 121.485L110.89 121.534L110.865 121.566L110.785 121.615L110.761 121.649L110.66 121.725L110.636 121.756L110.486 121.861L110.462 121.89L110.411 121.915L110.386 121.942L110.21 122.022L110.181 122.047L110.041 122.078L110.003 122.101L109.733 122.096L109.695 122.074C109.541 122.04 109.472 121.958 109.343 121.877L109.318 121.846L109.24 121.794L109.216 121.763L109.16 121.738L109.133 121.711L108.968 121.686L108.928 121.709L108.884 121.711L108.855 121.736L108.601 121.868L108.579 121.897L108.525 121.922L108.5 121.953L108.402 122.029L108.378 122.061L108.273 122.137L108.249 122.17L108.148 122.246L108.124 122.278L107.85 122.463L107.825 122.49L107.801 122.493L107.776 122.52L107.678 122.546C107.678 122.584 107.687 122.573 107.649 122.571L107.584 122.573L107.538 122.593L107.386 122.591L107.332 122.573C107.196 122.553 107.107 122.495 106.987 122.43L106.963 122.401L106.86 122.345L106.833 122.316L106.711 122.258L106.677 122.233L106.586 122.235L106.55 122.258C106.441 122.284 106.396 122.334 106.301 122.392L106.278 122.421L106.2 122.47L106.178 122.502L106.129 122.529L106.104 122.557L106.024 122.605L106.002 122.634L105.977 122.636L105.953 122.663L105.852 122.716L105.826 122.743H105.799L105.774 122.768L105.681 122.799C105.681 122.837 105.69 122.826 105.647 122.824L105.277 122.873L105.213 122.849L105.124 122.844L105.086 122.822L105.037 122.819L105.006 122.795L104.965 122.79L104.934 122.766L104.887 122.763L104.858 122.739L104.762 122.708L104.731 122.683H104.678L104.631 122.652L104.515 122.658L104.473 122.678L104.435 122.683L104.401 122.708L104.379 122.71L104.355 122.737L104.303 122.761L104.279 122.788L104.254 122.817L103.927 123.137L103.902 123.164L103.878 123.191L103.826 123.218L103.802 123.247L103.628 123.328L103.597 123.352L103.534 123.357L103.456 123.375L103.349 123.377L103.291 123.348L103.225 123.346L103.193 123.321L103.144 123.319L103.115 123.294H103.089L103.062 123.267L102.859 123.153L102.835 123.124C102.663 123.034 102.672 123.012 102.478 123.068L102.451 123.093H102.422L102.4 123.119L102.377 123.122L102.353 123.149L102.3 123.173L102.275 123.204L102.003 123.5L101.976 123.527L101.949 123.554L101.805 123.769L101.776 123.796C101.68 123.981 101.466 123.988 101.37 123.796L101.346 123.764L101.363 123.576L101.39 123.549L101.464 123.415L101.493 123.388L101.586 123.256L101.617 123.229C101.707 123.086 101.858 122.925 101.99 122.826L102.012 122.793L102.088 122.743L102.112 122.714L102.217 122.663L102.241 122.636L102.268 122.634L102.293 122.609L102.498 122.555L102.554 122.529L102.774 122.555L102.808 122.58L102.85 122.584L102.879 122.611L102.904 122.614L102.93 122.64L102.955 122.643L102.979 122.669L103.213 122.806L103.24 122.833L103.363 122.864L103.445 122.862L103.595 122.808L103.619 122.782L103.646 122.755L104 122.41L104.025 122.376L104.101 122.327L104.125 122.3L104.152 122.302L104.179 122.273L104.248 122.244L104.274 122.217L104.319 122.215L104.348 122.19L104.424 122.193L104.477 122.166L104.673 122.168L104.727 122.197L104.934 122.253L104.965 122.278L105.01 122.28C105.05 122.278 105.041 122.264 105.043 122.305L105.086 122.307C105.128 122.302 105.119 122.291 105.119 122.331L105.161 122.336L105.204 122.356L105.469 122.363L105.503 122.34L105.545 122.336L105.572 122.311L105.645 122.284L105.67 122.258H105.696L105.721 122.231L105.774 122.206L105.797 122.177L105.85 122.154L105.875 122.123L105.948 122.074L105.973 122.045L106.024 122.02L106.049 121.991L106.098 121.967L106.122 121.94C106.254 121.875 106.343 121.807 106.492 121.776L106.539 121.756H106.751L106.789 121.778L106.829 121.783L106.858 121.807L107.038 121.893L107.061 121.922L107.116 121.946L107.141 121.975L107.315 122.061L107.348 122.085H107.546L107.578 122.061L107.674 122.029L107.7 122.002L107.756 121.98L107.778 121.948L107.854 121.899L107.878 121.868L108.001 121.765L108.026 121.731L108.155 121.631L108.177 121.599L108.253 121.548L108.275 121.516L108.483 121.387L108.505 121.36L108.529 121.358L108.554 121.333H108.583L108.607 121.308L108.703 121.279L108.732 121.254L108.779 121.252L108.81 121.228L109.16 121.203L109.203 121.223L109.394 121.313L109.419 121.342L109.472 121.366L109.497 121.398L109.577 121.449L109.602 121.481L109.677 121.532L109.702 121.563L109.78 121.59L109.807 121.615C109.952 121.62 109.954 121.597 110.081 121.563L110.108 121.539L110.212 121.487L110.237 121.458L110.288 121.431L110.313 121.4L110.415 121.328L110.437 121.297L110.511 121.243L110.538 121.216L110.562 121.187L110.638 121.136L110.66 121.105L110.736 121.055L110.761 121.024L110.814 120.999L110.836 120.97L110.937 120.919L110.964 120.892L111.057 120.86L111.088 120.836C111.376 120.8 111.287 120.793 111.55 120.894L111.574 120.923L111.628 120.948L111.655 120.981C111.728 121.053 111.815 121.134 111.911 121.172L111.951 121.196L112.089 121.174L112.113 121.147L112.165 121.122L112.189 121.093L112.218 121.066L112.241 121.044C112.241 121.004 112.232 121.015 112.267 121.015C112.383 120.838 112.417 120.735 112.642 120.746L112.671 120.771L112.693 120.773L112.718 120.805L112.742 120.829L112.771 120.854C112.822 121.015 112.807 121.017 112.749 121.154L112.74 121.149ZM112.065 118.503L112.035 118.53L111.991 118.61L111.962 118.635L111.842 118.796L111.813 118.827L111.639 118.984L111.614 119.016L111.565 119.04C111.565 119.081 111.576 119.072 111.541 119.069L111.315 119.177L111.278 119.199L111.22 119.206L111.18 119.228L111.079 119.226C111.028 119.293 110.888 119.26 110.83 119.226L110.736 119.224L110.698 119.202L110.654 119.199L110.62 119.174L110.393 119.063C110.357 119.063 110.368 119.072 110.366 119.031L110.29 118.98L110.263 118.951L110.237 118.924C110.072 118.83 110.085 118.863 109.931 118.948L109.907 118.978L109.829 119.027L109.807 119.058L109.68 119.163L109.655 119.193L109.631 119.219L109.606 119.251L109.477 119.349L109.454 119.381L109.33 119.461L109.305 119.488C109.131 119.575 109.058 119.602 108.857 119.589L108.817 119.566C108.708 119.549 108.681 119.517 108.592 119.455L108.565 119.425L108.538 119.399L108.438 119.289L108.409 119.262L108.382 119.231L108.333 119.255L108.311 119.289L108.008 119.578L107.983 119.609L107.959 119.64L107.881 119.689L107.856 119.721L107.805 119.743L107.781 119.772C107.674 119.837 107.578 119.893 107.453 119.904L107.402 119.931C107.152 119.927 107.105 119.913 106.871 119.871C106.826 119.875 106.833 119.889 106.833 119.846L106.74 119.815L106.711 119.79H106.684L106.657 119.763L106.637 119.761L106.61 119.734L106.588 119.732L106.561 119.705L106.459 119.678L106.423 119.654C106.316 119.667 106.272 119.752 106.207 119.842L106.176 119.866L106.058 120.03L106.029 120.055L106.004 120.083L105.877 120.187L105.855 120.218L105.803 120.24L105.779 120.27L105.757 120.272L105.73 120.298H105.705L105.681 120.325C105.498 120.377 105.445 120.402 105.244 120.397L105.188 120.379L105.099 120.375C105.057 120.377 105.063 120.39 105.063 120.35L105.025 120.345L104.99 120.321L104.814 120.236L104.787 120.209L104.687 120.153L104.662 120.126L104.607 120.099L104.582 120.07L104.531 120.043L104.506 120.014L104.334 119.929L104.292 119.907L104.101 119.904L104.063 119.927L104.005 119.934L103.969 119.956L103.742 120.061L103.717 120.093L103.641 120.142L103.617 120.169L103.592 120.198L103.465 120.301L103.443 120.332L103.418 120.361L103.318 120.435L103.294 120.466L103.24 120.491L103.216 120.518L102.99 120.625L102.959 120.65L102.915 120.652L102.879 120.677H102.83L102.788 120.708L102.436 120.699L102.398 120.677L102.333 120.67C102.293 120.675 102.3 120.686 102.3 120.645L102.119 120.563L102.094 120.534L101.89 120.422L101.854 120.399C101.736 120.399 101.662 120.442 101.562 120.5L101.539 120.529L101.464 120.578C101.464 120.619 101.475 120.61 101.437 120.607L101.412 120.634L101.39 120.664L101.361 120.69L101.314 120.771L101.288 120.796L101.241 120.91L101.216 120.937V120.964L101.192 120.99V121.019L101.167 121.046L101.143 121.096L101.116 121.127L101.067 121.152L101.036 121.176H100.92L100.886 121.152H100.86L100.835 121.12C100.766 121.049 100.777 121.071 100.759 120.979C100.693 120.932 100.737 120.901 100.755 120.874L100.757 120.827L100.779 120.796L100.855 120.61L100.88 120.583L100.902 120.525L100.929 120.498L100.951 120.444L100.975 120.417L101.002 120.39L101.198 120.175L101.221 120.144L101.35 120.066L101.372 120.039L101.499 119.985L101.526 119.96L101.644 119.931L101.682 119.909L101.945 119.913L101.985 119.936L102.03 119.938L102.059 119.963H102.086L102.11 119.99L102.135 119.992L102.161 120.019L102.34 120.128L102.369 120.155H102.396L102.424 120.18L102.469 120.184L102.505 120.207L102.707 120.209L102.752 120.187L102.797 120.184L102.826 120.16L102.948 120.104L102.973 120.075L103.055 120.03L103.077 119.998L103.178 119.922L103.202 119.893L103.227 119.864L103.354 119.763L103.376 119.732L103.501 119.651L103.525 119.625L103.574 119.6C103.574 119.562 103.566 119.569 103.601 119.571L103.63 119.573L103.655 119.549L103.8 119.493C103.8 119.455 103.791 119.466 103.831 119.468L103.875 119.466L103.911 119.443L103.965 119.436L104.013 119.416L104.35 119.421L104.393 119.443L104.513 119.475L104.542 119.499L104.615 119.528L104.64 119.555L104.664 119.557L104.689 119.584L104.74 119.609L104.765 119.638L104.823 119.663L104.847 119.692L104.901 119.719L104.925 119.748L105.025 119.806L105.052 119.833H105.079L105.106 119.86L105.242 119.887L105.378 119.896L105.431 119.891L105.465 119.869L105.587 119.813L105.612 119.783L105.81 119.569L105.835 119.542L105.861 119.515C105.944 119.392 106.029 119.282 106.165 119.222L106.189 119.195L106.483 119.17L106.517 119.197H106.564C106.604 119.195 106.595 119.184 106.595 119.222L106.893 119.365L106.922 119.389L107.045 119.421L107.083 119.443H107.321L107.366 119.423L107.404 119.419L107.435 119.394L107.558 119.338L107.58 119.309L107.66 119.262L107.682 119.231L108.055 118.854L108.079 118.823L108.133 118.799L108.157 118.772H108.184L108.211 118.745L108.251 118.74L108.287 118.718L108.449 118.72L108.487 118.745L108.561 118.774L108.585 118.805L108.737 118.969C108.775 118.969 108.766 118.96 108.766 119L108.899 119.076L108.971 119.078H109.02L109.044 119.051L109.176 118.975L109.198 118.944L109.327 118.841L109.352 118.812L109.377 118.78L109.528 118.651L109.55 118.617L109.626 118.568L109.65 118.539L109.753 118.485L109.778 118.458L109.8 118.456L109.827 118.431H109.853L109.88 118.407L110.003 118.38L110.056 118.351L110.172 118.357L110.208 118.38L110.257 118.382L110.281 118.409L110.306 118.411L110.333 118.438L110.489 118.546L110.513 118.577L110.589 118.631L110.614 118.66L110.74 118.716L110.776 118.738L110.861 118.745L111.012 118.738C111.166 118.731 111.2 118.682 111.329 118.613L111.351 118.581L111.572 118.342L111.603 118.315L111.648 118.23L111.679 118.205L111.726 118.152L111.75 118.122H111.773L111.806 118.098L111.924 118.1L111.953 118.125L112.029 118.18L112.06 118.207C112.113 118.362 112.1 118.373 112.04 118.507L112.065 118.503ZM111.563 115.935L111.492 116.072L111.463 116.096L111.369 116.233L111.34 116.257L111.315 116.284L111.293 116.315L111.215 116.365L111.191 116.394L111.142 116.419C111.142 116.457 111.151 116.448 111.115 116.445H111.09L111.064 116.47L110.946 116.499L110.908 116.522L110.694 116.519L110.651 116.497L110.536 116.463L110.509 116.436L110.406 116.383L110.382 116.354L110.299 116.302L110.277 116.271L110.252 116.242L110.17 116.192L110.145 116.163L110.121 116.161L110.09 116.136L110.076 116.139C110.076 116.181 110.085 116.166 110.038 116.161L109.891 116.217L109.867 116.244L109.813 116.266L109.791 116.296L109.74 116.322L109.717 116.354L109.613 116.428L109.588 116.457L109.566 116.488L109.466 116.564L109.443 116.596L109.336 116.667L109.314 116.698L109.26 116.723L109.238 116.752L109.015 116.862L108.98 116.884L108.913 116.889L108.877 116.911H108.614L108.572 116.889L108.509 116.882L108.472 116.86L108.427 116.857L108.398 116.83L108.275 116.772L108.246 116.743H108.222L108.195 116.714L108.015 116.604L107.988 116.575C107.841 116.49 107.838 116.51 107.685 116.546L107.658 116.571L107.533 116.627L107.509 116.654L107.455 116.678L107.433 116.707L107.359 116.757L107.335 116.79L107.23 116.864L107.208 116.898L107.083 117.001L107.058 117.034L106.98 117.084L106.956 117.113L106.702 117.271L106.677 117.298L106.584 117.33L106.552 117.352H106.503L106.468 117.377L106.408 117.381L106.363 117.401L106.122 117.399L106.08 117.377L106.02 117.37L105.986 117.345L105.884 117.316L105.859 117.29L105.835 117.287L105.808 117.26L105.754 117.236L105.73 117.207L105.627 117.151L105.603 117.122C105.4 117.016 105.38 117.048 105.195 117.144L105.173 117.175L105.099 117.227L105.075 117.26L104.97 117.334L104.945 117.363L104.923 117.392L104.869 117.415L104.845 117.446C104.747 117.522 104.636 117.603 104.519 117.63L104.488 117.654L104.448 117.659L104.417 117.684L104.346 117.686L104.286 117.71L104.098 117.708L104.042 117.681H103.965L103.924 117.659L103.731 117.598L103.702 117.574L103.534 117.511L103.499 117.486L103.445 117.489L103.396 117.458L103.196 117.484L103.169 117.511L103.095 117.538L103.071 117.569L102.669 117.968L102.645 117.999L102.594 118.024L102.571 118.051L102.447 118.105L102.415 118.129L102.377 118.133L102.337 118.156L102.092 118.154L102.05 118.133L101.992 118.125L101.961 118.1L101.778 118.017L101.753 117.988L101.651 117.932L101.624 117.905L101.548 117.876L101.519 117.852L101.348 117.849L101.308 117.872L101.214 117.901L101.189 117.93L101.063 118.008L101.038 118.037L101.016 118.069L100.844 118.257L100.813 118.281L100.742 118.389L100.712 118.413L100.668 118.501L100.639 118.525L100.614 118.577L100.588 118.601L100.543 118.684L100.516 118.716L100.325 118.763L100.287 118.74H100.265L100.24 118.709C100.131 118.606 100.129 118.552 100.16 118.413L100.182 118.386V118.357L100.209 118.331L100.251 118.246L100.28 118.221L100.305 118.169L100.334 118.145L100.4 118.033L100.432 118.008L100.574 117.816L100.601 117.784L100.779 117.628L100.804 117.601L100.828 117.574L100.878 117.547L100.9 117.518L100.951 117.493L100.975 117.466H101L101.025 117.439H101.051L101.078 117.413H101.105L101.132 117.388L101.176 117.384L101.207 117.359L101.248 117.354L101.285 117.332L101.64 117.361L101.669 117.386L101.794 117.444L101.818 117.471L101.921 117.527L101.945 117.554L102.072 117.612L102.103 117.637L102.15 117.639H102.253L102.407 117.56L102.431 117.531L102.455 117.505L102.48 117.478L102.505 117.451L102.531 117.424L102.629 117.319L102.654 117.29L102.681 117.263L102.705 117.234L102.783 117.184L102.806 117.155L102.852 117.128C102.852 117.09 102.843 117.099 102.879 117.101H102.904L102.928 117.075L102.953 117.072L102.979 117.045L103.008 117.048L103.035 117.023L103.082 117.021L103.12 116.998L103.196 116.99L103.249 116.972L103.418 116.976L103.47 116.994L103.53 116.998L103.566 117.023L103.769 117.081L103.8 117.106L103.842 117.111L103.871 117.135L103.92 117.137L103.949 117.162L103.998 117.164L104.031 117.189H104.292L104.328 117.166L104.508 117.088L104.533 117.059L104.58 117.032L104.604 117.001L104.731 116.9L104.754 116.869L104.93 116.736L104.954 116.707L105.057 116.656L105.081 116.629L105.255 116.575L105.295 116.553L105.536 116.555C105.576 116.551 105.567 116.539 105.567 116.58L105.801 116.692L105.826 116.719L105.877 116.745L105.902 116.775L105.926 116.777L105.953 116.806L106.078 116.862C106.12 116.86 106.111 116.846 106.113 116.886H106.162L106.287 116.891H106.356L106.392 116.869L106.439 116.866L106.465 116.842H106.492L106.515 116.815H106.541L106.568 116.788L106.612 116.761L106.637 116.732L106.69 116.707L106.715 116.681L106.74 116.651L106.842 116.575L106.867 116.546L106.891 116.517L107.014 116.414L107.038 116.381L107.116 116.334L107.141 116.302L107.192 116.277L107.214 116.249L107.313 116.195L107.337 116.168L107.417 116.143L107.442 116.116H107.466L107.495 116.092L107.533 116.087L107.569 116.065L107.613 116.063L107.653 116.042L107.745 116.04C107.816 115.987 107.834 115.989 107.91 116.036L107.99 116.045L108.021 116.069L108.151 116.125L108.175 116.154L108.224 116.181L108.251 116.21L108.304 116.235L108.331 116.262L108.536 116.374L108.567 116.398L108.607 116.405L108.645 116.43H108.781L108.815 116.407L108.861 116.405L108.893 116.381L108.919 116.383L108.944 116.356L109.169 116.197L109.191 116.168L109.214 116.136L109.341 116.036L109.363 116.002L109.463 115.928L109.488 115.897L109.543 115.875L109.566 115.845L109.615 115.819L109.639 115.789H109.664L109.691 115.763L109.811 115.707C109.811 115.668 109.802 115.68 109.84 115.682L109.883 115.68L109.923 115.657L110.168 115.66L110.201 115.684L110.299 115.716L110.324 115.745L110.377 115.769L110.402 115.801L110.533 115.906L110.558 115.937L110.638 115.987L110.665 116.015L110.81 116.042L110.841 116.018H110.865L110.89 115.989C110.992 115.921 111.05 115.855 111.111 115.745L111.139 115.718C111.246 115.579 111.246 115.55 111.436 115.561L111.465 115.588L111.492 115.586L111.516 115.615L111.538 115.642L111.57 115.668C111.614 115.776 111.61 115.807 111.572 115.913L111.548 115.94L111.563 115.935ZM110.986 113.289C110.988 113.327 110.997 113.316 110.961 113.316L110.939 113.371L110.912 113.398L110.888 113.452L110.861 113.477L110.816 113.562L110.787 113.586L110.56 113.826L110.538 113.857L110.489 113.884L110.464 113.913L110.288 113.994L110.259 114.018L110.217 114.021C110.217 114.059 110.226 114.048 110.186 114.045L110.119 114.05L110.081 114.072L109.949 114.077C109.883 114.112 109.873 114.115 109.8 114.072L109.691 114.065L109.646 114.043L109.577 114.039L109.541 114.014L109.499 114.01C109.461 114.012 109.47 114.023 109.47 113.985L109.292 113.9L109.267 113.871C109.136 113.795 109.104 113.707 108.944 113.707L108.904 113.73L108.806 113.759L108.783 113.786L108.657 113.864L108.632 113.895L108.527 113.969L108.505 114.003L108.378 114.101L108.353 114.137L108.255 114.213L108.231 114.245L108.177 114.267L108.153 114.298L108.101 114.323L108.077 114.35L108.001 114.377L107.972 114.401L107.859 114.433L107.816 114.453L107.678 114.451L107.638 114.428L107.442 114.341L107.417 114.31L107.181 114.095L107.154 114.068H107.134L107.105 114.092L107.054 114.117L107.032 114.148L107.007 114.175L106.98 114.2L106.956 114.227L106.933 114.258L106.733 114.444L106.711 114.473L106.686 114.502L106.633 114.527L106.61 114.556L106.559 114.58L106.534 114.607L106.41 114.661L106.383 114.686L106.258 114.712L106.22 114.735L106.133 114.737C106.06 114.782 105.999 114.78 105.924 114.735L105.819 114.737L105.774 114.706H105.701C105.661 114.708 105.67 114.719 105.67 114.681L105.569 114.652L105.543 114.625L105.52 114.623L105.493 114.596H105.465C105.429 114.599 105.438 114.607 105.438 114.569L105.364 114.54L105.338 114.513L105.313 114.511L105.286 114.486L105.157 114.457L105.032 114.619L105.003 114.643L104.934 114.757L104.907 114.784L104.881 114.811L104.68 115.024L104.655 115.055L104.607 115.08L104.584 115.109C104.479 115.163 104.406 115.207 104.286 115.214L104.23 115.241L103.976 115.236L103.92 115.207L103.833 115.203L103.795 115.18L103.748 115.178L103.719 115.154L103.617 115.125L103.59 115.098L103.568 115.095L103.541 115.069L103.465 115.04L103.441 115.01L103.309 114.932L103.285 114.901L103.231 114.876L103.207 114.847L103.153 114.82L103.129 114.793L103.109 114.789L103.082 114.762H103.055L103.022 114.737L102.808 114.733C102.808 114.773 102.817 114.759 102.772 114.755L102.728 114.757L102.699 114.782L102.678 114.784L102.654 114.811L102.625 114.809L102.6 114.838L102.551 114.865L102.527 114.889L102.502 114.919L102.284 115.163L102.255 115.189L102.228 115.214L102.204 115.241L102.179 115.268L102.155 115.295L102.13 115.324L102.05 115.373L102.028 115.402L101.838 115.487L101.794 115.507L101.58 115.505L101.539 115.483L101.497 115.478L101.47 115.451L101.448 115.449L101.419 115.422L101.392 115.425L101.368 115.398L101.268 115.342L101.243 115.313L101.189 115.288L101.163 115.259H101.138L101.109 115.232L101.065 115.23L101.029 115.205L100.889 115.203L100.851 115.225L100.808 115.227L100.779 115.252L100.503 115.411L100.479 115.44L100.456 115.472L100.334 115.604L100.305 115.628L100.28 115.655L100.236 115.738L100.207 115.763L100.187 115.823L100.16 115.85L100.137 115.904L100.111 115.933C100.006 115.998 100.008 115.984 99.8834 115.977C99.8476 115.98 99.8567 115.989 99.8543 115.951L99.7497 115.843C99.714 115.843 99.7228 115.852 99.725 115.812C99.7185 115.635 99.7274 115.662 99.7965 115.516L99.821 115.492L99.8433 115.434C99.8411 115.393 99.832 115.404 99.8699 115.404L99.9659 115.272L99.9949 115.25L100.022 115.223L100.044 115.196L100.068 115.169L100.091 115.14L100.115 115.109L100.242 115.008L100.265 114.977L100.316 114.952L100.338 114.923L100.438 114.869C100.438 114.831 100.429 114.84 100.465 114.842H100.49L100.516 114.818H100.543L100.568 114.791C100.824 114.724 100.822 114.697 101.116 114.715C101.163 114.71 101.154 114.697 101.154 114.737L101.198 114.739C101.236 114.737 101.227 114.726 101.227 114.766H101.252L101.279 114.793L101.299 114.795L101.325 114.822H101.35L101.377 114.849L101.484 114.903L101.51 114.93L101.531 114.932L101.56 114.959L101.738 114.988L101.762 114.961C101.916 114.865 102.025 114.639 102.19 114.531L102.215 114.5L102.286 114.446L102.308 114.417L102.415 114.37L102.442 114.343C102.703 114.231 102.797 114.22 103.091 114.24L103.127 114.265L103.164 114.269L103.198 114.296L103.378 114.379L103.405 114.406L103.505 114.462L103.53 114.491C103.677 114.58 103.759 114.679 103.935 114.712L103.98 114.733L104.17 114.739L104.216 114.708L104.35 114.661L104.372 114.632L104.569 114.417L104.598 114.392L104.642 114.307L104.669 114.28L104.696 114.256L104.869 114.068L104.892 114.039L105.019 113.985L105.05 113.96L105.378 113.989L105.404 114.014L105.656 114.131L105.683 114.157L105.785 114.186L105.821 114.211L105.861 114.216L105.902 114.238H106.136L106.169 114.216L106.272 114.189L106.296 114.164L106.316 114.16L106.341 114.133L106.392 114.108L106.414 114.077C106.612 113.936 106.802 113.6 107.038 113.569L107.085 113.548L107.188 113.551L107.23 113.571L107.272 113.575L107.301 113.602H107.328L107.355 113.629L107.406 113.656L107.431 113.69L107.667 113.904L107.691 113.931C107.852 113.947 107.845 113.909 107.97 113.828L107.992 113.797L108.119 113.694L108.142 113.663L108.166 113.631L108.271 113.557L108.293 113.526L108.369 113.477L108.393 113.445L108.521 113.367L108.547 113.34L108.569 113.338L108.594 113.311H108.619L108.645 113.284L108.853 113.235L108.908 113.21H109.071L109.111 113.233L109.305 113.322L109.33 113.351L109.388 113.376L109.412 113.403L109.466 113.428L109.49 113.456L109.613 113.515L109.642 113.539L109.684 113.542L109.726 113.564L110.096 113.544L110.125 113.519L110.194 113.49L110.221 113.461L110.297 113.412L110.319 113.376L110.368 113.327L110.395 113.3C110.393 113.262 110.384 113.271 110.422 113.271L110.469 113.188L110.498 113.163L110.522 113.109L110.549 113.085L110.593 112.998L110.62 112.971L110.645 112.941L110.721 112.917C110.754 112.89 110.778 112.848 110.819 112.922C110.91 112.939 110.881 112.926 110.952 113.002L110.979 113.029L110.981 113.056L111.004 113.089L110.983 113.277L110.986 113.289Z" fill="#FEFEFE"/>
<path fill-rule="evenodd" clip-rule="evenodd" d="M56.0042 61.7613L57.8029 58.441C57.8029 58.441 57.9123 58.1499 57.9655 57.7381H55.4425L53.3049 61.7613H56.0042ZM57.9768 56.959C57.9233 56.5155 57.7494 56.0543 57.3371 55.7051C57.3371 55.7051 58.9976 53.9857 60.3083 52.0065H58.5696C57.9591 52.9155 57.6848 53.5245 57.6848 53.5245L55.8593 56.959H57.979H57.9768ZM60.7941 51.2274C61.3848 50.2177 61.8238 49.1924 61.8596 48.3304C60.6828 49.3333 59.7822 50.3565 59.1248 51.2274H60.7941ZM167.302 55.7073C166.887 56.0567 166.713 56.518 166.66 56.9611H168.396L166.571 53.5266C166.571 53.5266 166.297 52.9201 165.686 52.0087H164.331C165.639 53.9879 167.3 55.7073 167.3 55.7073H167.302ZM166.671 57.7402C166.725 58.1499 166.834 58.4432 166.834 58.4432L168.632 61.7634H170.948L168.811 57.7402H166.671ZM165.131 51.2274C164.554 50.464 163.791 49.5842 162.82 48.7019C162.942 49.481 163.339 50.3587 163.845 51.2274H165.131ZM154.802 46.4184C153.351 47.6587 153.895 49.6693 154.677 51.2274H157.238L154.802 46.4184ZM155.107 52.0065C155.625 52.8729 156.113 53.4662 156.113 53.4662L155.801 54.3776L157.165 56.9568H160.143L157.633 52.0044H155.105L155.107 52.0065ZM157.577 57.7381L159.706 61.7613H162.577L160.537 57.7381H157.577ZM163.412 61.7613H166.283L164.219 57.7381H161.375L163.415 61.7613H163.412ZM163.818 56.959L161.977 53.37C161.977 53.37 161.745 52.8194 161.273 52.0087H158.471L160.981 56.9611H163.82L163.818 56.959ZM160.787 51.2274C159.766 49.676 158.072 47.6474 155.651 46.443L158.074 51.2274H160.787ZM141.705 44.5602C137.884 45.5005 137.677 48.7446 138.138 51.2274H144.121L141.703 44.5602H141.705ZM138.31 52.0065C138.64 53.3184 139.086 54.2679 139.086 54.2679L138.669 56.0365L138.979 56.959H146.198L144.404 52.0065H138.31ZM139.244 57.7381L140.601 61.7613H147.941L146.484 57.7381H139.246H139.244ZM148.735 61.7613H156.075L154.042 57.7381H147.277L148.735 61.7613ZM153.647 56.959L151.144 52.0065H145.197L146.992 56.959H153.645H153.647ZM150.714 51.2274C150.052 50.2266 147.594 46.8146 143.8 45.0998C143.283 44.8937 142.844 44.7347 142.523 44.625L144.917 51.2253H150.714V51.2274ZM114.654 50.2558V51.2274H123.976L123.311 43.4206C115.853 44.8916 114.654 50.2558 114.654 50.2558ZM114.654 52.0065V56.959H124.464L124.043 52.0065H114.654ZM114.654 57.7381V61.7613H124.872L124.529 57.7381H114.652H114.654ZM125.621 61.7613H135.838L134.757 57.7381H125.277L125.621 61.7613ZM134.548 56.959L133.217 52.0065H124.791L125.213 56.959H134.548ZM133.007 51.2274L132.814 50.5021C132.814 50.5021 129.78 44.1527 124.058 43.3936L124.725 51.2274H133.007ZM91.4355 50.5021L91.2414 51.2274H99.7538L100.451 43.3601C94.5604 43.9556 91.4355 50.5021 91.4355 50.5021ZM91.0298 52.0087L89.699 56.9611H99.2435L99.6825 52.0087H91.0298ZM89.4895 57.7402L88.4085 61.7634H98.8176L99.1744 57.7402H89.4895ZM99.5667 61.7634H109.976V57.7402H99.9232L99.5667 61.7634ZM109.976 56.9611V52.0087H100.431L99.9923 56.9611H109.976ZM109.976 51.2296V50.258C109.976 50.258 108.768 44.8332 101.196 43.396L100.5 51.2274H109.976V51.2296ZM73.1024 52.0087L70.5992 56.9611H77.4288L79.2051 52.0087H73.1024ZM70.2048 57.7402L68.172 61.7634H75.7036L77.1479 57.7402H70.2048ZM79.4861 51.2274L81.8732 44.5759C81.5433 44.6855 81.0508 44.8602 80.4488 45.0998C76.6553 46.8146 74.1967 50.2266 73.5348 51.2274H79.4861ZM76.4994 61.7613H84.0308L85.386 57.7381H77.9415L76.497 61.7613H76.4994ZM85.6514 56.959L85.9611 56.0365L85.5444 54.2679C85.5444 54.2679 85.9902 53.3184 86.32 52.0065H79.9988L78.2222 56.959H85.649H85.6514ZM86.494 51.2274C86.9664 48.6952 86.7413 45.3682 82.6935 44.504L80.2795 51.2274H86.4916H86.494ZM64.9288 61.7613L67.0576 57.7381H63.9037L61.8684 61.7613H64.9312H64.9288ZM67.4697 56.959L68.8339 54.3797L68.522 53.4686C68.522 53.4686 69.01 52.8753 69.5294 52.0087H66.8035L64.2981 56.9611H67.4697V56.959ZM69.9596 51.2274C70.7688 49.6198 71.3237 47.5267 69.6921 46.2996L67.1979 51.2274H69.9574H69.9596ZM68.8452 46.322C66.2908 47.5086 64.5164 49.6223 63.4622 51.2274H66.362L68.8452 46.322ZM62.9785 52.0065C62.5059 52.817 62.2741 53.3679 62.2741 53.3679L60.433 56.9568H63.4622L65.9676 52.0044H62.9785V52.0065ZM60.0319 57.7381L57.9679 61.7613H61.0304L63.0678 57.7381H60.0341H60.0319Z" fill="#65FDF1"/>
<path d="M110.815 72.0803H116.425C118.375 72.0803 119.797 72.5412 120.692 73.463C121.586 74.3617 122.034 75.7559 122.034 77.6455V79.1318C122.034 81.6437 121.208 83.2337 119.556 83.902V83.9711C120.474 84.2477 121.116 84.8122 121.483 85.6649C121.873 86.5175 122.068 87.6582 122.068 89.0869V93.3386C122.068 94.0299 122.091 94.5945 122.137 95.0323C122.183 95.4471 122.298 95.8619 122.481 96.2767H118.627C118.489 95.885 118.398 95.5163 118.352 95.1706C118.306 94.8249 118.283 94.2027 118.283 93.304V88.8795C118.283 87.7734 118.099 87.0014 117.732 86.5636C117.388 86.1258 116.78 85.9068 115.908 85.9068H114.601V96.2767H110.815V72.0803ZM115.977 82.4502C116.734 82.4502 117.296 82.2543 117.663 81.8626C118.053 81.4708 118.248 80.8141 118.248 79.8923V78.0257C118.248 77.15 118.088 76.5163 117.767 76.1246C117.468 75.7328 116.987 75.537 116.321 75.537H114.601V82.4502H115.977Z" fill="black"/>
<path d="M102.508 96.6223C100.65 96.6223 99.2273 96.0923 98.2407 95.0323C97.2542 93.9723 96.761 92.4744 96.761 90.5387V77.8183C96.761 75.8826 97.2542 74.3847 98.2407 73.3247C99.2273 72.2646 100.65 71.7346 102.508 71.7346C104.366 71.7346 105.789 72.2646 106.775 73.3247C107.762 74.3847 108.255 75.8826 108.255 77.8183V90.5387C108.255 92.4744 107.762 93.9723 106.775 95.0323C105.789 96.0923 104.366 96.6223 102.508 96.6223ZM102.508 93.1657C103.816 93.1657 104.47 92.3707 104.47 90.7806V77.5763C104.47 75.9863 103.816 75.1912 102.508 75.1912C101.2 75.1912 100.546 75.9863 100.546 77.5763V90.7806C100.546 92.3707 101.2 93.1657 102.508 93.1657Z" fill="black"/>
<path d="M83.8113 92.8892L90.8316 75.537H84.1554V72.0803H94.8923V75.4678L87.872 92.8201H94.8923V96.2767H83.8113V92.8892Z" fill="black"/>
<path d="M76.2614 96.6223C74.4031 96.6223 72.9807 96.0923 71.9942 95.0323C71.0077 93.9723 70.5144 92.4744 70.5144 90.5387V77.8183C70.5144 75.8826 71.0077 74.3847 71.9942 73.3247C72.9807 72.2646 74.4031 71.7346 76.2614 71.7346C78.1197 71.7346 79.5421 72.2646 80.5286 73.3247C81.5151 74.3847 82.0084 75.8826 82.0084 77.8183V90.5387C82.0084 92.4744 81.5151 93.9723 80.5286 95.0323C79.5421 96.0923 78.1197 96.6223 76.2614 96.6223ZM76.2614 93.1657C77.5691 93.1657 78.2229 92.3707 78.2229 90.7806V77.5763C78.2229 75.9863 77.5691 75.1912 76.2614 75.1912C74.9537 75.1912 74.2998 75.9863 74.2998 77.5763V90.7806C74.2998 92.3707 74.9537 93.1657 76.2614 93.1657Z" fill="black"/>
<path d="M56.8765 72.0803H62.589C64.5391 72.0803 65.9615 72.5412 66.8563 73.463C67.751 74.3617 68.1984 75.7559 68.1984 77.6455V78.6134C68.1984 79.8577 67.9919 80.8717 67.5789 81.6552C67.1889 82.4387 66.581 83.0033 65.755 83.3489V83.4181C67.6363 84.0633 68.5769 85.7455 68.5769 88.4647V90.5387C68.5769 92.4053 68.0837 93.834 67.0972 94.8249C66.1336 95.7928 64.7112 96.2767 62.8299 96.2767H56.8765V72.0803ZM62.1417 81.9317C62.8988 81.9317 63.4608 81.7358 63.8279 81.3441C64.2179 80.9523 64.4129 80.2956 64.4129 79.3738V78.0257C64.4129 77.15 64.2523 76.5163 63.9312 76.1246C63.6329 75.7328 63.1511 75.537 62.4858 75.537H60.6619V81.9317H62.1417ZM62.8299 92.8201C63.4953 92.8201 63.9885 92.6473 64.3097 92.3016C64.6309 91.9329 64.7915 91.3107 64.7915 90.435V88.3265C64.7915 87.2204 64.5965 86.4599 64.2065 86.0451C63.8394 85.6073 63.2199 85.3883 62.3482 85.3883H60.6619V92.8201H62.8299Z" fill="black"/>
<path d="M158.167 72.0803H163.741C165.623 72.0803 167.034 72.5873 167.974 73.6012C168.915 74.6152 169.385 76.1015 169.385 78.0603V80.4454C169.385 82.4041 168.915 83.8905 167.974 84.9044C167.034 85.9184 165.623 86.4253 163.741 86.4253H161.952V96.2767H158.167V72.0803ZM163.741 82.9687C164.361 82.9687 164.82 82.7959 165.118 82.4502C165.439 82.1045 165.6 81.5169 165.6 80.6873V77.8183C165.6 76.9887 165.439 76.4011 165.118 76.0554C164.82 75.7098 164.361 75.537 163.741 75.537H161.952V82.9687H163.741Z" fill="#06B2B6"/>
<path d="M144.892 72.0803H150.467C152.348 72.0803 153.759 72.5873 154.7 73.6012C155.64 74.6152 156.111 76.1015 156.111 78.0603V80.4454C156.111 82.4041 155.64 83.8905 154.7 84.9044C153.759 85.9184 152.348 86.4253 150.467 86.4253H148.678V96.2767H144.892V72.0803ZM150.467 82.9687C151.086 82.9687 151.545 82.7959 151.844 82.4502C152.165 82.1045 152.325 81.5169 152.325 80.6873V77.8183C152.325 76.9887 152.165 76.4011 151.844 76.0554C151.545 75.7098 151.086 75.537 150.467 75.537H148.678V82.9687H150.467Z" fill="#06B2B6"/>
<path d="M134.005 72.0803H139.132L143.056 96.2767H139.27L138.582 91.472V91.5411H134.28L133.592 96.2767H130.082L134.005 72.0803ZM138.134 88.2573L136.448 76.2974H136.379L134.728 88.2573H138.134Z" fill="#06B2B6"/>
</g>
</g>
<defs>
<filter id="filter0_dddd_19_799" x="0" y="0" width="226" height="277" filterUnits="userSpaceOnUse" color-interpolation-filters="sRGB">
<feFlood flood-opacity="0" result="BackgroundImageFix"/>
<feColorMatrix in="SourceAlpha" type="matrix" values="0 0 0 0 0 0 0 0 0 0 0 0 0 0 0 0 0 0 127 0" result="hardAlpha"/>
<feOffset dy="5"/>
<feGaussianBlur stdDeviation="5"/>
<feColorMatrix type="matrix" values="0 0 0 0 0.00784314 0 0 0 0 0.168627 0 0 0 0 0.172549 0 0 0 0.18 0"/>
<feBlend mode="normal" in2="BackgroundImageFix" result="effect1_dropShadow_19_799"/>
<feColorMatrix in="SourceAlpha" type="matrix" values="0 0 0 0 0 0 0 0 0 0 0 0 0 0 0 0 0 0 127 0" result="hardAlpha"/>
<feOffset dy="19"/>
<feGaussianBlur stdDeviation="9.5"/>
<feColorMatrix type="matrix" values="0 0 0 0 0.00784314 0 0 0 0 0.168627 0 0 0 0 0.172549 0 0 0 0.16 0"/>
<feBlend mode="normal" in2="effect1_dropShadow_19_799" result="effect2_dropShadow_19_799"/>
<feColorMatrix in="SourceAlpha" type="matrix" values="0 0 0 0 0 0 0 0 0 0 0 0 0 0 0 0 0 0 127 0" result="hardAlpha"/>
<feOffset dy="43"/>
<feGaussianBlur stdDeviation="13"/>
<feColorMatrix type="matrix" values="0 0 0 0 0.00784314 0 0 0 0 0.168627 0 0 0 0 0.172549 0 0 0 0.09 0"/>
<feBlend mode="normal" in2="effect2_dropShadow_19_799" result="effect3_dropShadow_19_799"/>
<feColorMatrix in="SourceAlpha" type="matrix" values="0 0 0 0 0 0 0 0 0 0 0 0 0 0 0 0 0 0 127 0" result="hardAlpha"/>
<feOffset dy="76"/>
<feGaussianBlur stdDeviation="15.5"/>
<feColorMatrix type="matrix" values="0 0 0 0 0.00784314 0 0 0 0 0.168627 0 0 0 0 0.172549 0 0 0 0.03 0"/>
<feBlend mode="normal" in2="effect3_dropShadow_19_799" result="effect4_dropShadow_19_799"/>
<feBlend mode="normal" in="SourceGraphic" in2="effect4_dropShadow_19_799" result="shape"/>
</filter>
</defs>
</svg>
